SplineFontDB: 3.0
FontName: CheyenneSans-ExtraBold
FullName: Cheyenne Sans ExtraBold
FamilyName: Cheyenne Sans ExtraBold
Weight: Heavy
Copyright: 
Version: 1.000; ttfautohint (v1.8.2)
ItalicAngle: 0
UnderlinePosition: -150
UnderlineWidth: 50
Ascent: 800
Descent: 200
InvalidEm: 0
sfntRevision: 0x00010000
LayerCount: 2
Layer: 0 1 "Back" 1
Layer: 1 1 "Fore" 0
XUID: [1021 646 1163163066 1069912]
StyleMap: 0x0040
FSType: 0
OS2Version: 3
OS2_WeightWidthSlopeOnly: 0
OS2_UseTypoMetrics: 0
CreationTime: 1513572760
ModificationTime: 1543765685
PfmFamily: 81
TTFWeight: 800
TTFWidth: 5
LineGap: 0
VLineGap: 0
Panose: 0 0 9 0 0 0 0 0 0 0
OS2TypoAscent: 743
OS2TypoAOffset: 0
OS2TypoDescent: -161
OS2TypoDOffset: 0
OS2TypoLinegap: 0
OS2WinAscent: 822
OS2WinAOffset: 0
OS2WinDescent: 178
OS2WinDOffset: 0
HheadAscent: 822
HheadAOffset: 0
HheadDescent: -178
HheadDOffset: 0
OS2SubXSize: 650
OS2SubYSize: 600
OS2SubXOff: 0
OS2SubYOff: 75
OS2SupXSize: 650
OS2SupYSize: 600
OS2SupXOff: 0
OS2SupYOff: 350
OS2StrikeYSize: 50
OS2StrikeYPos: 310
OS2CapHeight: 723
OS2XHeight: 517
OS2Vendor: 'IMPA'
OS2CodePages: 20000193.00000000
OS2UnicodeRanges: 00000007.00000000.00000000.00000000
Lookup: 1 0 0 "'aalt' Access All Alternates in Latin lookup 0" { "'aalt' Access All Alternates in Latin lookup 0 subtable"  } ['aalt' ('DFLT' <'dflt' > 'latn' <'AZE ' 'CAT ' 'CRT ' 'KAZ ' 'MOL ' 'ROM ' 'TAT ' 'TRK ' 'dflt' > ) ]
Lookup: 3 0 0 "'aalt' Access All Alternates in Latin lookup 1" { "'aalt' Access All Alternates in Latin lookup 1 subtable"  } ['aalt' ('DFLT' <'dflt' > 'latn' <'AZE ' 'CAT ' 'CRT ' 'KAZ ' 'MOL ' 'ROM ' 'TAT ' 'TRK ' 'dflt' > ) ]
Lookup: 6 0 0 "'ccmp' Glyph Composition/Decomposition in Latin lookup 2" { "'ccmp' Glyph Composition/Decomposition in Latin lookup 2 contextual 0"  "'ccmp' Glyph Composition/Decomposition in Latin lookup 2 contextual 1"  } ['ccmp' ('DFLT' <'dflt' > 'latn' <'AZE ' 'CAT ' 'CRT ' 'KAZ ' 'MOL ' 'ROM ' 'TAT ' 'TRK ' 'dflt' > ) ]

StartChar: .notdef
Encoding: 65536 -1 0
Width: 639
Flags: W
LayerCount: 2
Fore
SplineSet
563 820.5 m 128,-1,1
 568 815 568 815 568 805 c 2,2,-1
 568 -133 l 2,3,4
 568 -148 568 -148 560 -154.5 c 128,-1,5
 552 -161 552 -161 535 -161 c 2,6,-1
 99 -161 l 2,7,8
 84 -161 84 -161 78 -155.5 c 128,-1,9
 72 -150 72 -150 72 -137 c 2,10,-1
 72 803 l 2,11,12
 72 814 72 814 77 820 c 128,-1,13
 82 826 82 826 91 826 c 2,14,-1
 550 826 l 2,15,0
 558 826 558 826 563 820.5 c 128,-1,1
513 772.5 m 128,-1,17
 509 777 509 777 502 777 c 2,18,-1
 159 777 l 1,19,-1
 517 -57 l 1,20,-1
 517 760 l 2,21,16
 517 768 517 768 513 772.5 c 128,-1,17
128 -107 m 128,-1,23
 133 -112 133 -112 145 -112 c 2,24,-1
 481 -112 l 1,25,-1
 123 716 l 1,26,-1
 123 -92 l 2,27,22
 123 -102 123 -102 128 -107 c 128,-1,23
EndSplineSet
EndChar

StartChar: exclam
Encoding: 33 33 4
Width: 288
GlyphClass: 2
Flags: W
LayerCount: 2
Fore
SplineSet
192 241 m 1,0,-1
 87 241 l 1,1,-1
 39 723 l 1,2,-1
 237 723 l 1,3,-1
 192 241 l 1,0,-1
229 0 m 1,4,-1
 47 0 l 1,5,-1
 47 174 l 1,6,-1
 229 174 l 1,7,-1
 229 0 l 1,4,-1
EndSplineSet
EndChar

StartChar: quotedbl
Encoding: 34 34 5
Width: 500
GlyphClass: 2
Flags: W
LayerCount: 2
Fore
SplineSet
424 422 m 1,0,-1
 342 422 l 1,1,-1
 300 723 l 1,2,-1
 466 723 l 1,3,-1
 424 422 l 1,0,-1
187 422 m 1,4,-1
 105 422 l 1,5,-1
 63 723 l 1,6,-1
 229 723 l 1,7,-1
 187 422 l 1,4,-1
EndSplineSet
EndChar

StartChar: numbersign
Encoding: 35 35 6
Width: 612
GlyphClass: 2
Flags: W
LayerCount: 2
Fore
SplineSet
465 425 m 1,0,-1
 447 305 l 1,1,-1
 553 305 l 1,2,-1
 553 220 l 1,3,-1
 435 220 l 1,4,-1
 402 -3 l 1,5,-1
 316 8 l 1,6,-1
 347 220 l 1,7,-1
 219 220 l 1,8,-1
 186 -3 l 1,9,-1
 101 8 l 1,10,-1
 132 220 l 1,11,-1
 20 220 l 1,12,-1
 20 305 l 1,13,-1
 145 305 l 1,14,-1
 163 425 l 1,15,-1
 52 425 l 1,16,-1
 52 510 l 1,17,-1
 175 510 l 1,18,-1
 207 725 l 1,19,-1
 291 716 l 1,20,-1
 261 510 l 1,21,-1
 390 510 l 1,22,-1
 422 725 l 1,23,-1
 507 716 l 1,24,-1
 477 510 l 1,25,-1
 585 510 l 1,26,-1
 585 425 l 1,27,-1
 465 425 l 1,0,-1
378 425 m 1,28,-1
 249 425 l 1,29,-1
 231 305 l 1,30,-1
 360 305 l 1,31,-1
 378 425 l 1,28,-1
EndSplineSet
EndChar

StartChar: dollar
Encoding: 36 36 7
Width: 672
GlyphClass: 2
Flags: W
LayerCount: 2
Fore
SplineSet
566 69 m 128,-1,1
 506 9 506 9 405 -2 c 0,2,3
 393 -3 393 -3 390 -6.5 c 128,-1,4
 387 -10 387 -10 387 -20 c 2,5,-1
 387 -74 l 1,6,-1
 278 -74 l 1,7,-1
 278 -4 l 1,8,9
 198 2 198 2 136 27.5 c 128,-1,10
 74 53 74 53 19 101 c 1,11,-1
 114 205 l 1,12,13
 188 131 188 131 280 116 c 1,14,-1
 281 289 l 1,15,16
 157 311 157 311 102 368.5 c 128,-1,17
 47 426 47 426 47 509 c 0,18,19
 47 587 47 587 102 642.5 c 128,-1,20
 157 698 157 698 259 719 c 0,21,22
 266 720 266 720 273 725 c 128,-1,23
 280 730 280 730 280 737 c 2,24,-1
 280 785 l 1,25,-1
 387 785 l 1,26,-1
 387 724 l 1,27,28
 505 692 505 692 582 640 c 1,29,-1
 499 532 l 1,30,31
 482 551 482 551 455.5 568 c 128,-1,32
 429 585 429 585 398 595 c 2,33,-1
 394 596 l 2,34,35
 390 596 390 596 388 593.5 c 128,-1,36
 386 591 386 591 386 588 c 2,37,-1
 386 437 l 1,38,-1
 457 419 l 2,39,40
 533 398 533 398 579.5 344.5 c 128,-1,41
 626 291 626 291 626 218 c 0,42,0
 626 129 626 129 566 69 c 128,-1,1
281 601 m 1,43,44
 262 601 262 601 240 592.5 c 128,-1,45
 218 584 218 584 203 567.5 c 128,-1,46
 188 551 188 551 188 529 c 0,47,48
 188 494 188 494 213 476 c 128,-1,49
 238 458 238 458 280 451 c 1,50,-1
 281 601 l 1,43,44
457.5 141.5 m 128,-1,52
 484 162 484 162 484 190 c 0,53,54
 484 253 484 253 386 274 c 1,55,-1
 386 116 l 1,56,51
 431 121 431 121 457.5 141.5 c 128,-1,52
EndSplineSet
EndChar

StartChar: percent
Encoding: 37 37 8
Width: 948
GlyphClass: 2
Flags: W
LayerCount: 2
Fore
SplineSet
323 706 m 128,-1,1
 366 678 366 678 391 630 c 128,-1,2
 416 582 416 582 416 527 c 0,3,4
 416 473 416 473 391.5 426.5 c 128,-1,5
 367 380 367 380 324 352.5 c 128,-1,6
 281 325 281 325 229 325 c 128,-1,7
 177 325 177 325 133.5 352.5 c 128,-1,8
 90 380 90 380 65 426.5 c 128,-1,9
 40 473 40 473 40 527 c 0,10,11
 40 582 40 582 65 630 c 128,-1,12
 90 678 90 678 133.5 706 c 128,-1,13
 177 734 177 734 229 734 c 0,14,0
 280 734 280 734 323 706 c 128,-1,1
290 -4 m 1,15,-1
 194 -2 l 1,16,-1
 682 731 l 1,17,-1
 776 731 l 1,18,-1
 290 -4 l 1,15,-1
276 439.5 m 128,-1,20
 291 469 291 469 291 527 c 0,21,22
 291 588 291 588 276 619 c 128,-1,23
 261 650 261 650 228 650 c 0,24,25
 165 650 165 650 165 527 c 0,26,27
 165 469 165 469 180 439.5 c 128,-1,28
 195 410 195 410 228 410 c 128,-1,19
 261 410 261 410 276 439.5 c 128,-1,20
808 371.5 m 128,-1,30
 851 343 851 343 876 295.5 c 128,-1,31
 901 248 901 248 901 193 c 0,32,33
 901 139 901 139 876 92 c 128,-1,34
 851 45 851 45 808 17.5 c 128,-1,35
 765 -10 765 -10 713 -10 c 128,-1,36
 661 -10 661 -10 617.5 17.5 c 128,-1,37
 574 45 574 45 549 92 c 128,-1,38
 524 139 524 139 524 193 c 0,39,40
 524 248 524 248 549 295.5 c 128,-1,41
 574 343 574 343 617.5 371.5 c 128,-1,42
 661 400 661 400 713 400 c 128,-1,29
 765 400 765 400 808 371.5 c 128,-1,30
760 105 m 128,-1,44
 775 134 775 134 775 192 c 0,45,46
 775 315 775 315 712 315 c 0,47,48
 650 315 650 315 650 192 c 0,49,50
 650 135 650 135 664.5 105.5 c 128,-1,51
 679 76 679 76 712 76 c 128,-1,43
 745 76 745 76 760 105 c 128,-1,44
EndSplineSet
EndChar

StartChar: ampersand
Encoding: 38 38 9
Width: 813
GlyphClass: 2
Flags: W
LayerCount: 2
Fore
SplineSet
490 714 m 128,-1,1
 543 694 543 694 573.5 657.5 c 128,-1,2
 604 621 604 621 604 575 c 0,3,4
 604 481 604 481 449 384 c 1,5,-1
 541 275 l 1,6,7
 575 366 575 366 584 420 c 1,8,-1
 760 420 l 1,9,10
 747 383 747 383 725 345 c 128,-1,11
 703 307 703 307 669 256 c 0,12,13
 630 194 630 194 621 178 c 1,14,-1
 773 0 l 1,15,-1
 579 0 l 1,16,-1
 521 66 l 1,17,18
 465 28 465 28 404 11.5 c 128,-1,19
 343 -5 343 -5 285 -5 c 0,20,21
 165 -5 165 -5 105 45.5 c 128,-1,22
 45 96 45 96 45 181 c 0,23,24
 45 253 45 253 89 303.5 c 128,-1,25
 133 354 133 354 232 406 c 1,26,27
 197 445 197 445 182.5 463.5 c 128,-1,28
 168 482 168 482 157.5 506.5 c 128,-1,29
 147 531 147 531 147 561 c 0,30,31
 147 610 147 610 175.5 649.5 c 128,-1,32
 204 689 204 689 255.5 711.5 c 128,-1,33
 307 734 307 734 372 734 c 128,-1,0
 437 734 437 734 490 714 c 128,-1,1
333 616.5 m 128,-1,35
 314 599 314 599 314 573 c 0,36,37
 314 537 314 537 358 490 c 2,38,-1
 380 467 l 1,39,40
 422 495 422 495 439.5 518 c 128,-1,41
 457 541 457 541 457 567 c 0,42,43
 457 599 457 599 436 616.5 c 128,-1,44
 415 634 415 634 384 634 c 0,45,34
 352 634 352 634 333 616.5 c 128,-1,35
235 206 m 0,46,47
 235 168 235 168 264 145.5 c 128,-1,48
 293 123 293 123 328 123 c 0,49,50
 354 123 354 123 386 134 c 128,-1,51
 418 145 418 145 440 165 c 1,52,-1
 314 310 l 1,53,54
 235 264 235 264 235 206 c 0,46,47
EndSplineSet
EndChar

StartChar: quotesingle
Encoding: 39 39 10
Width: 258
GlyphClass: 2
Flags: W
LayerCount: 2
Fore
SplineSet
170 422 m 1,0,-1
 88 422 l 1,1,-1
 46 723 l 1,2,-1
 212 723 l 1,3,-1
 170 422 l 1,0,-1
EndSplineSet
EndChar

StartChar: parenleft
Encoding: 40 40 11
Width: 341
GlyphClass: 2
Flags: W
LayerCount: 2
Fore
SplineSet
229 507 m 128,-1,1
 199 393 199 393 199 277 c 0,2,3
 199 167 199 167 227 62 c 128,-1,4
 255 -43 255 -43 311 -161 c 1,5,-1
 191 -161 l 1,6,7
 120 -42 120 -42 85 58 c 128,-1,8
 50 158 50 158 50 278 c 0,9,10
 50 399 50 399 87.5 512 c 128,-1,11
 125 625 125 625 192 723 c 1,12,-1
 313 723 l 1,13,0
 259 621 259 621 229 507 c 128,-1,1
EndSplineSet
EndChar

StartChar: parenright
Encoding: 41 41 12
Width: 342
GlyphClass: 2
Flags: W
LayerCount: 2
Fore
SplineSet
94 507 m 128,-1,1
 124 393 124 393 124 277 c 0,2,3
 124 167 124 167 96 62 c 128,-1,4
 68 -43 68 -43 12 -161 c 1,5,-1
 132 -161 l 1,6,7
 203 -42 203 -42 238 58 c 128,-1,8
 273 158 273 158 273 278 c 0,9,10
 273 399 273 399 235.5 512 c 128,-1,11
 198 625 198 625 131 723 c 1,12,-1
 10 723 l 1,13,0
 64 621 64 621 94 507 c 128,-1,1
EndSplineSet
EndChar

StartChar: asterisk
Encoding: 42 42 13
Width: 503
GlyphClass: 2
Flags: W
LayerCount: 2
Fore
SplineSet
249 442 m 1,0,-1
 163 298 l 1,1,-1
 75 361 l 1,2,-1
 182 487 l 1,3,-1
 28 529 l 1,4,-1
 63 626 l 1,5,-1
 208 562 l 1,6,-1
 196 723 l 1,7,-1
 304 723 l 1,8,-1
 289 561 l 1,9,-1
 436 626 l 1,10,-1
 467 529 l 1,11,-1
 318 487 l 1,12,-1
 423 363 l 1,13,-1
 334 301 l 1,14,-1
 249 442 l 1,0,-1
EndSplineSet
EndChar

StartChar: plus
Encoding: 43 43 14
Width: 595
GlyphClass: 2
Flags: W
LayerCount: 2
Fore
SplineSet
540 303 m 1,0,-1
 356 303 l 1,1,-1
 356 119 l 1,2,-1
 234 119 l 1,3,-1
 234 303 l 1,4,-1
 49 303 l 1,5,-1
 49 425 l 1,6,-1
 234 425 l 1,7,-1
 234 610 l 1,8,-1
 356 610 l 1,9,-1
 356 425 l 1,10,-1
 540 425 l 1,11,-1
 540 303 l 1,0,-1
EndSplineSet
EndChar

StartChar: comma
Encoding: 44 44 15
Width: 286
GlyphClass: 2
Flags: W
LayerCount: 2
Fore
SplineSet
104 -5 m 1,0,-1
 49 1 l 1,1,-1
 49 156 l 1,2,-1
 212 156 l 1,3,-1
 212 19 l 1,4,-1
 104 -146 l 1,5,-1
 45 -146 l 1,6,-1
 104 -5 l 1,0,-1
EndSplineSet
Substitution2: "'tnum' Tabular Numbers in Latin lookup 23 subtable" comma.tf
Substitution2: "'aalt' Access All Alternates in Latin lookup 0 subtable" comma.tf
EndChar

StartChar: hyphen
Encoding: 45 45 16
Width: 395
GlyphClass: 2
Flags: W
LayerCount: 2
Fore
SplineSet
334 196 m 1,0,-1
 53 196 l 1,1,-1
 53 318 l 1,2,-1
 334 318 l 1,3,-1
 334 196 l 1,0,-1
EndSplineSet
EndChar

StartChar: period
Encoding: 46 46 17
Width: 283
GlyphClass: 2
Flags: W
LayerCount: 2
Fore
SplineSet
227 0 m 1,0,-1
 44 0 l 1,1,-1
 44 177 l 1,2,-1
 227 177 l 1,3,-1
 227 0 l 1,0,-1
EndSplineSet
Substitution2: "'tnum' Tabular Numbers in Latin lookup 23 subtable" period.tf
Substitution2: "'aalt' Access All Alternates in Latin lookup 0 subtable" period.tf
EndChar

StartChar: slash
Encoding: 47 47 18
Width: 388
GlyphClass: 2
Flags: W
LayerCount: 2
Fore
SplineSet
260 723 m 1,0,-1
 375 723 l 1,1,-1
 121 -9 l 1,2,-1
 6 -9 l 1,3,-1
 260 723 l 1,0,-1
EndSplineSet
Substitution2: "'frac' Diagonal Fractions in Latin lookup 16 subtable" fraction
Substitution2: "'aalt' Access All Alternates in Latin lookup 0 subtable" fraction
EndChar

StartChar: zero
Encoding: 48 48 19
Width: 671
GlyphClass: 2
Flags: W
LayerCount: 2
Fore
SplineSet
494 690 m 128,-1,1
 562 646 562 646 600 561.5 c 128,-1,2
 638 477 638 477 638 360 c 128,-1,3
 638 243 638 243 601 160.5 c 128,-1,4
 564 78 564 78 495.5 35 c 128,-1,5
 427 -8 427 -8 336 -8 c 0,6,7
 244 -8 244 -8 176 35 c 128,-1,8
 108 78 108 78 70.5 160.5 c 128,-1,9
 33 243 33 243 33 360 c 128,-1,10
 33 477 33 477 71 561.5 c 128,-1,11
 109 646 109 646 177.5 690 c 128,-1,12
 246 734 246 734 336 734 c 128,-1,0
 426 734 426 734 494 690 c 128,-1,1
423 180 m 128,-1,14
 450 234 450 234 450 359 c 0,15,16
 450 488 450 488 422 544.5 c 128,-1,17
 394 601 394 601 335 601 c 128,-1,18
 276 601 276 601 248.5 544 c 128,-1,19
 221 487 221 487 221 359 c 0,20,21
 221 235 221 235 248.5 180.5 c 128,-1,22
 276 126 276 126 335 126 c 0,23,13
 396 126 396 126 423 180 c 128,-1,14
EndSplineSet
Substitution2: "'onum' Oldstyle Figures in Latin lookup 24 subtable" zero.osf
Substitution2: "'tnum' Tabular Numbers in Latin lookup 23 subtable" zero.tf
Substitution2: "'frac' Diagonal Fractions in Latin lookup 17 subtable" zero.numr
Substitution2: "'dnom' Denominators in Latin lookup 15 subtable" zero.dnom
Substitution2: "'numr' Numerators in Latin lookup 14 subtable" zero.numr
Substitution2: "'sups' Superscript in Latin lookup 13 subtable" uni2070
Substitution2: "'sinf' Scientific Inferiors in Latin lookup 12 subtable" zero.subs
Substitution2: "'subs' Subscript in Latin lookup 11 subtable" zero.subs
AlternateSubs2: "'aalt' Access All Alternates in Latin lookup 1 subtable" zero.subs uni2070 zero.numr zero.dnom zero.tf zero.osf
EndChar

StartChar: one
Encoding: 49 49 20
Width: 412
GlyphClass: 2
Flags: W
LayerCount: 2
Fore
SplineSet
147 536 m 1,0,-1
 23 504 l 1,1,-1
 23 618 l 1,2,-1
 232 723 l 1,3,-1
 319 723 l 1,4,-1
 319 0 l 1,5,-1
 147 0 l 1,6,-1
 147 536 l 1,0,-1
EndSplineSet
Substitution2: "'onum' Oldstyle Figures in Latin lookup 24 subtable" one.osf
Substitution2: "'tnum' Tabular Numbers in Latin lookup 23 subtable" one.tf
Substitution2: "'frac' Diagonal Fractions in Latin lookup 17 subtable" one.numr
Substitution2: "'dnom' Denominators in Latin lookup 15 subtable" one.dnom
Substitution2: "'numr' Numerators in Latin lookup 14 subtable" one.numr
Substitution2: "'sups' Superscript in Latin lookup 13 subtable" uni00B9
Substitution2: "'sinf' Scientific Inferiors in Latin lookup 12 subtable" one.subs
Substitution2: "'subs' Subscript in Latin lookup 11 subtable" one.subs
AlternateSubs2: "'aalt' Access All Alternates in Latin lookup 1 subtable" one.subs uni00B9 one.numr one.dnom one.tf one.osf
EndChar

StartChar: two
Encoding: 50 50 21
Width: 630
GlyphClass: 2
Flags: W
LayerCount: 2
Fore
SplineSet
34 123 m 1,0,-1
 258 316 l 2,1,2
 326 374 326 374 357 405 c 128,-1,3
 388 436 388 436 399.5 458 c 128,-1,4
 411 480 411 480 411 507 c 0,5,6
 411 547 411 547 383.5 570.5 c 128,-1,7
 356 594 356 594 313 594 c 0,8,9
 267 594 267 594 232 568.5 c 128,-1,10
 197 543 197 543 183 487 c 1,11,-1
 24 492 l 1,12,13
 31 601 31 601 105.5 667 c 128,-1,14
 180 733 180 733 317 733 c 0,15,16
 400 733 400 733 461.5 705.5 c 128,-1,17
 523 678 523 678 556 627 c 128,-1,18
 589 576 589 576 589 509 c 0,19,20
 589 453 589 453 562 410 c 128,-1,21
 535 367 535 367 463 299 c 2,22,-1
 294 141 l 1,23,-1
 596 141 l 1,24,-1
 596 0 l 1,25,-1
 34 0 l 1,26,-1
 34 123 l 1,0,-1
EndSplineSet
Substitution2: "'onum' Oldstyle Figures in Latin lookup 24 subtable" two.osf
Substitution2: "'tnum' Tabular Numbers in Latin lookup 23 subtable" two.tf
Substitution2: "'frac' Diagonal Fractions in Latin lookup 17 subtable" two.numr
Substitution2: "'dnom' Denominators in Latin lookup 15 subtable" two.dnom
Substitution2: "'numr' Numerators in Latin lookup 14 subtable" two.numr
Substitution2: "'sups' Superscript in Latin lookup 13 subtable" uni00B2
Substitution2: "'sinf' Scientific Inferiors in Latin lookup 12 subtable" two.subs
Substitution2: "'subs' Subscript in Latin lookup 11 subtable" two.subs
AlternateSubs2: "'aalt' Access All Alternates in Latin lookup 1 subtable" two.subs uni00B2 two.numr two.dnom two.tf two.osf
EndChar

StartChar: three
Encoding: 51 51 22
Width: 680
GlyphClass: 2
Flags: W
LayerCount: 2
Fore
SplineSet
122.5 681.5 m 128,-1,1
 211 733 211 733 343 733 c 0,2,3
 422 733 422 733 487 709 c 128,-1,4
 552 685 552 685 590 641.5 c 128,-1,5
 628 598 628 598 628 542 c 128,-1,6
 628 486 628 486 595 448 c 128,-1,7
 562 410 562 410 497 387 c 1,8,9
 560 371 560 371 605.5 326 c 128,-1,10
 651 281 651 281 651 212 c 128,-1,11
 651 143 651 143 605.5 92.5 c 128,-1,12
 560 42 560 42 488.5 16 c 128,-1,13
 417 -10 417 -10 342 -10 c 0,14,15
 194 -10 194 -10 113 39.5 c 128,-1,16
 32 89 32 89 24 215 c 1,17,-1
 184 219 l 1,18,19
 198 168 198 168 238.5 146.5 c 128,-1,20
 279 125 279 125 329 125 c 0,21,22
 388 125 388 125 424.5 150 c 128,-1,23
 461 175 461 175 461 211 c 0,24,25
 461 250 461 250 427.5 276 c 128,-1,26
 394 302 394 302 343 303 c 2,27,-1
 245 304 l 1,28,-1
 245 437 l 1,29,-1
 330 441 l 2,30,31
 382 443 382 443 414 467.5 c 128,-1,32
 446 492 446 492 446 528 c 0,33,34
 446 560 446 560 413 581.5 c 128,-1,35
 380 603 380 603 338 603 c 0,36,37
 277 603 277 603 237.5 584 c 128,-1,38
 198 565 198 565 188 508 c 1,39,-1
 29 513 l 1,40,0
 34 630 34 630 122.5 681.5 c 128,-1,1
EndSplineSet
Substitution2: "'onum' Oldstyle Figures in Latin lookup 24 subtable" three.osf
Substitution2: "'tnum' Tabular Numbers in Latin lookup 23 subtable" three.tf
Substitution2: "'frac' Diagonal Fractions in Latin lookup 17 subtable" three.numr
Substitution2: "'dnom' Denominators in Latin lookup 15 subtable" three.dnom
Substitution2: "'numr' Numerators in Latin lookup 14 subtable" three.numr
Substitution2: "'sups' Superscript in Latin lookup 13 subtable" uni00B3
Substitution2: "'sinf' Scientific Inferiors in Latin lookup 12 subtable" three.subs
Substitution2: "'subs' Subscript in Latin lookup 11 subtable" three.subs
AlternateSubs2: "'aalt' Access All Alternates in Latin lookup 1 subtable" three.subs uni00B3 three.numr three.dnom three.tf three.osf
EndChar

StartChar: four
Encoding: 52 52 23
Width: 634
GlyphClass: 2
Flags: W
LayerCount: 2
Fore
SplineSet
512 723 m 1,0,-1
 512 294 l 1,1,-1
 618 294 l 1,2,-1
 618 149 l 1,3,-1
 512 149 l 1,4,-1
 512 0 l 1,5,-1
 341 0 l 1,6,-1
 342 149 l 1,7,-1
 21 149 l 1,8,-1
 21 289 l 1,9,-1
 343 723 l 1,10,-1
 512 723 l 1,0,-1
343 294 m 1,11,-1
 343 489 l 1,12,-1
 198 294 l 1,13,-1
 343 294 l 1,11,-1
EndSplineSet
Substitution2: "'onum' Oldstyle Figures in Latin lookup 24 subtable" four.osf
Substitution2: "'tnum' Tabular Numbers in Latin lookup 23 subtable" four.tf
Substitution2: "'frac' Diagonal Fractions in Latin lookup 17 subtable" four.numr
Substitution2: "'dnom' Denominators in Latin lookup 15 subtable" four.dnom
Substitution2: "'numr' Numerators in Latin lookup 14 subtable" four.numr
Substitution2: "'sups' Superscript in Latin lookup 13 subtable" uni2074
Substitution2: "'sinf' Scientific Inferiors in Latin lookup 12 subtable" four.subs
Substitution2: "'subs' Subscript in Latin lookup 11 subtable" four.subs
AlternateSubs2: "'aalt' Access All Alternates in Latin lookup 1 subtable" four.subs uni2074 four.numr four.dnom four.tf four.osf
EndChar

StartChar: five
Encoding: 53 53 24
Width: 671
GlyphClass: 2
Flags: W
LayerCount: 2
Fore
SplineSet
589 723 m 1,0,-1
 581 585 l 1,1,-1
 240 585 l 1,2,-1
 227 438 l 1,3,4
 283 456 283 456 311 462.5 c 128,-1,5
 339 469 339 469 376 469 c 0,6,7
 452 469 452 469 511 441.5 c 128,-1,8
 570 414 570 414 603 361.5 c 128,-1,9
 636 309 636 309 636 236 c 0,10,11
 636 160 636 160 600 104.5 c 128,-1,12
 564 49 564 49 497 19.5 c 128,-1,13
 430 -10 430 -10 341 -10 c 0,14,15
 238 -10 238 -10 154.5 30 c 128,-1,16
 71 70 71 70 29 136 c 1,17,-1
 156 223 l 1,18,19
 197 172 197 172 232 148 c 128,-1,20
 267 124 267 124 321 124 c 0,21,22
 381 124 381 124 416 154 c 128,-1,23
 451 184 451 184 451 230 c 0,24,25
 451 275 451 275 419 304 c 128,-1,26
 387 333 387 333 330 333 c 0,27,28
 303 333 303 333 278.5 325.5 c 128,-1,29
 254 318 254 318 217 300 c 0,30,31
 209 296 209 296 204 296 c 0,32,33
 201 296 201 296 191 301 c 2,34,-1
 75 364 l 1,35,-1
 108 723 l 1,36,-1
 589 723 l 1,0,-1
EndSplineSet
Substitution2: "'onum' Oldstyle Figures in Latin lookup 24 subtable" five.osf
Substitution2: "'tnum' Tabular Numbers in Latin lookup 23 subtable" five.tf
Substitution2: "'frac' Diagonal Fractions in Latin lookup 17 subtable" five.numr
Substitution2: "'dnom' Denominators in Latin lookup 15 subtable" five.dnom
Substitution2: "'numr' Numerators in Latin lookup 14 subtable" five.numr
Substitution2: "'sups' Superscript in Latin lookup 13 subtable" uni2075
Substitution2: "'sinf' Scientific Inferiors in Latin lookup 12 subtable" five.subs
Substitution2: "'subs' Subscript in Latin lookup 11 subtable" five.subs
AlternateSubs2: "'aalt' Access All Alternates in Latin lookup 1 subtable" five.subs uni2075 five.numr five.dnom five.tf five.osf
EndChar

StartChar: six
Encoding: 54 54 25
Width: 657
GlyphClass: 2
Flags: W
LayerCount: 2
Fore
SplineSet
478 709 m 128,-1,1
 538 684 538 684 574 636.5 c 128,-1,2
 610 589 610 589 613 526 c 1,3,-1
 460 521 l 1,4,5
 446 562 446 562 419.5 582 c 128,-1,6
 393 602 393 602 350 602 c 0,7,8
 290 602 290 602 255 555 c 128,-1,9
 220 508 220 508 220 433 c 0,10,11
 220 408 220 408 222 395 c 1,12,13
 248 421 248 421 289 434.5 c 128,-1,14
 330 448 330 448 377 448 c 0,15,16
 451 448 451 448 507 420.5 c 128,-1,17
 563 393 563 393 593.5 344 c 128,-1,18
 624 295 624 295 624 233 c 0,19,20
 624 165 624 165 587 110.5 c 128,-1,21
 550 56 550 56 485 25.5 c 128,-1,22
 420 -5 420 -5 339 -5 c 0,23,24
 244 -5 244 -5 174.5 38.5 c 128,-1,25
 105 82 105 82 68 161.5 c 128,-1,26
 31 241 31 241 31 348 c 0,27,28
 31 468 31 468 69.5 555 c 128,-1,29
 108 642 108 642 179 688 c 128,-1,30
 250 734 250 734 346 734 c 0,31,0
 418 734 418 734 478 709 c 128,-1,1
282 313 m 128,-1,33
 256 302 256 302 239.5 285.5 c 128,-1,34
 223 269 223 269 223 253 c 0,35,36
 226 187 226 187 255 153.5 c 128,-1,37
 284 120 284 120 333 120 c 0,38,39
 379 120 379 120 412 150 c 128,-1,40
 445 180 445 180 445 225 c 0,41,42
 445 272 445 272 412.5 298 c 128,-1,43
 380 324 380 324 335 324 c 0,44,32
 308 324 308 324 282 313 c 128,-1,33
EndSplineSet
Substitution2: "'onum' Oldstyle Figures in Latin lookup 24 subtable" six.osf
Substitution2: "'tnum' Tabular Numbers in Latin lookup 23 subtable" six.tf
Substitution2: "'frac' Diagonal Fractions in Latin lookup 17 subtable" six.numr
Substitution2: "'dnom' Denominators in Latin lookup 15 subtable" six.dnom
Substitution2: "'numr' Numerators in Latin lookup 14 subtable" six.numr
Substitution2: "'sups' Superscript in Latin lookup 13 subtable" uni2076
Substitution2: "'sinf' Scientific Inferiors in Latin lookup 12 subtable" six.subs
Substitution2: "'subs' Subscript in Latin lookup 11 subtable" six.subs
AlternateSubs2: "'aalt' Access All Alternates in Latin lookup 1 subtable" six.subs uni2076 six.numr six.dnom six.tf six.osf
EndChar

StartChar: seven
Encoding: 55 55 26
Width: 592
GlyphClass: 2
Flags: W
LayerCount: 2
Fore
SplineSet
577 723 m 1,0,-1
 577 549 l 1,1,2
 521 483 521 483 466 385.5 c 128,-1,3
 411 288 411 288 374.5 184.5 c 128,-1,4
 338 81 338 81 338 0 c 1,5,-1
 154 0 l 1,6,7
 157 65 157 65 184 161 c 128,-1,8
 211 257 211 257 270 369.5 c 128,-1,9
 329 482 329 482 419 585 c 1,10,-1
 23 585 l 1,11,-1
 23 723 l 1,12,-1
 577 723 l 1,0,-1
EndSplineSet
Substitution2: "'onum' Oldstyle Figures in Latin lookup 24 subtable" seven.osf
Substitution2: "'tnum' Tabular Numbers in Latin lookup 23 subtable" seven.tf
Substitution2: "'frac' Diagonal Fractions in Latin lookup 17 subtable" seven.numr
Substitution2: "'dnom' Denominators in Latin lookup 15 subtable" seven.dnom
Substitution2: "'numr' Numerators in Latin lookup 14 subtable" seven.numr
Substitution2: "'sups' Superscript in Latin lookup 13 subtable" uni2077
Substitution2: "'sinf' Scientific Inferiors in Latin lookup 12 subtable" seven.subs
Substitution2: "'subs' Subscript in Latin lookup 11 subtable" seven.subs
AlternateSubs2: "'aalt' Access All Alternates in Latin lookup 1 subtable" seven.subs uni2077 seven.numr seven.dnom seven.tf seven.osf
EndChar

StartChar: eight
Encoding: 56 56 27
Width: 645
GlyphClass: 2
Flags: W
LayerCount: 2
Fore
SplineSet
459 706.5 m 128,-1,1
 521 680 521 680 555.5 634 c 128,-1,2
 590 588 590 588 590 531 c 0,3,4
 590 473 590 473 553 439 c 128,-1,5
 516 405 516 405 479 391 c 1,6,7
 522 370 522 370 548.5 353 c 128,-1,8
 575 336 575 336 598.5 300 c 128,-1,9
 622 264 622 264 622 209 c 0,10,11
 622 141 622 141 584 91.5 c 128,-1,12
 546 42 546 42 476.5 16 c 128,-1,13
 407 -10 407 -10 314 -10 c 0,14,15
 182 -10 182 -10 103 39.5 c 128,-1,16
 24 89 24 89 24 177 c 0,17,18
 24 288 24 288 156 341 c 1,19,20
 154 343 154 343 98.5 374.5 c 128,-1,21
 43 406 43 406 43 507 c 0,22,23
 43 569 43 569 76.5 620.5 c 128,-1,24
 110 672 110 672 172.5 702.5 c 128,-1,25
 235 733 235 733 319 733 c 0,26,0
 397 733 397 733 459 706.5 c 128,-1,1
252 586.5 m 128,-1,28
 224 565 224 565 224 530 c 0,29,30
 224 506 224 506 239 488.5 c 128,-1,31
 254 471 254 471 283 462 c 2,32,-1
 353 440 l 2,33,34
 356 439 356 439 363 439 c 0,35,36
 388 439 388 439 410.5 467.5 c 128,-1,37
 433 496 433 496 433 526 c 0,38,39
 433 561 433 561 403.5 584.5 c 128,-1,40
 374 608 374 608 322 608 c 0,41,27
 280 608 280 608 252 586.5 c 128,-1,28
406 136.5 m 128,-1,43
 435 157 435 157 435 193 c 0,44,45
 435 219 435 219 419 237.5 c 128,-1,46
 403 256 403 256 363 269 c 2,47,-1
 282 295 l 2,48,49
 277 297 277 297 267 297 c 0,50,51
 249 297 249 297 230 285 c 128,-1,52
 211 273 211 273 199 252.5 c 128,-1,53
 187 232 187 232 187 208 c 0,54,55
 187 116 187 116 326 116 c 0,56,42
 377 116 377 116 406 136.5 c 128,-1,43
EndSplineSet
Substitution2: "'onum' Oldstyle Figures in Latin lookup 24 subtable" eight.osf
Substitution2: "'tnum' Tabular Numbers in Latin lookup 23 subtable" eight.tf
Substitution2: "'frac' Diagonal Fractions in Latin lookup 17 subtable" eight.numr
Substitution2: "'dnom' Denominators in Latin lookup 15 subtable" eight.dnom
Substitution2: "'numr' Numerators in Latin lookup 14 subtable" eight.numr
Substitution2: "'sups' Superscript in Latin lookup 13 subtable" uni2078
Substitution2: "'sinf' Scientific Inferiors in Latin lookup 12 subtable" eight.subs
Substitution2: "'subs' Subscript in Latin lookup 11 subtable" eight.subs
AlternateSubs2: "'aalt' Access All Alternates in Latin lookup 1 subtable" eight.subs uni2078 eight.numr eight.dnom eight.tf eight.osf
EndChar

StartChar: nine
Encoding: 57 57 28
Width: 657
GlyphClass: 2
Flags: W
LayerCount: 2
Fore
SplineSet
177.5 18 m 128,-1,1
 117 44 117 44 80 91.5 c 128,-1,2
 43 139 43 139 40 200 c 1,3,-1
 199 204 l 1,4,5
 208 167 208 167 234 145.5 c 128,-1,6
 260 124 260 124 301 124 c 0,7,8
 370 124 370 124 411.5 167.5 c 128,-1,9
 453 211 453 211 453 304 c 0,10,11
 453 326 453 326 452 338 c 1,12,13
 429 305 429 305 388 287 c 128,-1,14
 347 269 347 269 290 269 c 0,15,16
 216 269 216 269 157 297.5 c 128,-1,17
 98 326 98 326 65 376.5 c 128,-1,18
 32 427 32 427 32 493 c 0,19,20
 32 562 32 562 69 616 c 128,-1,21
 106 670 106 670 171 700.5 c 128,-1,22
 236 731 236 731 317 731 c 0,23,24
 412 731 412 731 481.5 688 c 128,-1,25
 551 645 551 645 588 565 c 128,-1,26
 625 485 625 485 625 378 c 0,27,28
 625 183 625 183 542 87.5 c 128,-1,29
 459 -8 459 -8 309 -8 c 0,30,0
 238 -8 238 -8 177.5 18 c 128,-1,1
373.5 413 m 128,-1,32
 400 424 400 424 416.5 440.5 c 128,-1,33
 433 457 433 457 433 472 c 0,34,35
 430 539 430 539 401 573 c 128,-1,36
 372 607 372 607 323 607 c 0,37,38
 278 607 278 607 248 577 c 128,-1,39
 218 547 218 547 218 501 c 0,40,41
 218 456 218 456 248 429 c 128,-1,42
 278 402 278 402 321 402 c 0,43,31
 347 402 347 402 373.5 413 c 128,-1,32
EndSplineSet
Substitution2: "'onum' Oldstyle Figures in Latin lookup 24 subtable" nine.osf
Substitution2: "'tnum' Tabular Numbers in Latin lookup 23 subtable" nine.tf
Substitution2: "'frac' Diagonal Fractions in Latin lookup 17 subtable" nine.numr
Substitution2: "'dnom' Denominators in Latin lookup 15 subtable" nine.dnom
Substitution2: "'numr' Numerators in Latin lookup 14 subtable" nine.numr
Substitution2: "'sups' Superscript in Latin lookup 13 subtable" uni2079
Substitution2: "'sinf' Scientific Inferiors in Latin lookup 12 subtable" nine.subs
Substitution2: "'subs' Subscript in Latin lookup 11 subtable" nine.subs
AlternateSubs2: "'aalt' Access All Alternates in Latin lookup 1 subtable" nine.subs uni2079 nine.numr nine.dnom nine.tf nine.osf
EndChar

StartChar: colon
Encoding: 58 58 29
Width: 283
GlyphClass: 2
Flags: W
LayerCount: 2
Fore
SplineSet
227 334 m 1,0,-1
 44 334 l 1,1,-1
 44 508 l 1,2,-1
 227 508 l 1,3,-1
 227 334 l 1,0,-1
227 3 m 1,4,-1
 44 3 l 1,5,-1
 44 177 l 1,6,-1
 227 177 l 1,7,-1
 227 3 l 1,4,-1
EndSplineSet
EndChar

StartChar: semicolon
Encoding: 59 59 30
Width: 288
GlyphClass: 2
Flags: W
LayerCount: 2
Fore
SplineSet
45 506 m 1,0,-1
 227 506 l 1,1,-1
 227 328 l 1,2,-1
 45 328 l 1,3,-1
 45 506 l 1,0,-1
109 0 m 1,4,-1
 46 0 l 1,5,-1
 46 175 l 1,6,-1
 228 175 l 1,7,-1
 228 20 l 1,8,-1
 108 -160 l 1,9,-1
 40 -160 l 1,10,-1
 109 0 l 1,4,-1
EndSplineSet
EndChar

StartChar: less
Encoding: 60 60 31
Width: 593
GlyphClass: 2
Flags: W
LayerCount: 2
Fore
SplineSet
523 88 m 1,0,-1
 44 273 l 1,1,-1
 44 411 l 1,2,-1
 523 596 l 1,3,-1
 523 454 l 1,4,-1
 228 341 l 1,5,-1
 523 232 l 1,6,-1
 523 88 l 1,0,-1
EndSplineSet
EndChar

StartChar: equal
Encoding: 61 61 32
Width: 595
GlyphClass: 2
Flags: W
LayerCount: 2
Fore
SplineSet
540 397 m 1,0,-1
 49 397 l 1,1,-1
 49 520 l 1,2,-1
 540 520 l 1,3,-1
 540 397 l 1,0,-1
540 166 m 1,4,-1
 49 165 l 1,5,-1
 49 288 l 1,6,-1
 540 288 l 1,7,-1
 540 166 l 1,4,-1
EndSplineSet
EndChar

StartChar: greater
Encoding: 62 62 33
Width: 593
GlyphClass: 2
Flags: W
LayerCount: 2
Fore
SplineSet
358 341 m 1,0,-1
 62 454 l 1,1,-1
 62 596 l 1,2,-1
 541 411 l 1,3,-1
 541 273 l 1,4,-1
 62 88 l 1,5,-1
 62 232 l 1,6,-1
 358 341 l 1,0,-1
EndSplineSet
EndChar

StartChar: question
Encoding: 63 63 34
Width: 535
GlyphClass: 2
Flags: W
LayerCount: 2
Fore
SplineSet
102.5 688.5 m 128,-1,1
 170 733 170 733 266 733 c 0,2,3
 338 733 338 733 393.5 710 c 128,-1,4
 449 687 449 687 479.5 648.5 c 128,-1,5
 510 610 510 610 510 564 c 0,6,7
 510 526 510 526 496.5 496.5 c 128,-1,8
 483 467 483 467 464 446.5 c 128,-1,9
 445 426 445 426 412 396 c 0,10,11
 366 356 366 356 343 323.5 c 128,-1,12
 320 291 320 291 320 244 c 1,13,-1
 186 244 l 1,14,15
 186 294 186 294 200 332 c 128,-1,16
 214 370 214 370 234 396.5 c 128,-1,17
 254 423 254 423 285 456 c 0,18,19
 315 488 315 488 329 509 c 128,-1,20
 343 530 343 530 343 555 c 0,21,22
 343 584 343 584 320.5 601.5 c 128,-1,23
 298 619 298 619 264 619 c 0,24,25
 227 619 227 619 194.5 594.5 c 128,-1,26
 162 570 162 570 146 527 c 1,27,-1
 3 560 l 1,28,0
 35 644 35 644 102.5 688.5 c 128,-1,1
344 0 m 1,29,-1
 162 0 l 1,30,-1
 162 174 l 1,31,-1
 344 174 l 1,32,-1
 344 0 l 1,29,-1
EndSplineSet
EndChar

StartChar: at
Encoding: 64 64 35
Width: 833
GlyphClass: 2
Flags: W
LayerCount: 2
Fore
SplineSet
567 -88.5 m 128,-1,1
 502 -110 502 -110 424 -110 c 0,2,3
 307 -110 307 -110 220 -61.5 c 128,-1,4
 133 -13 133 -13 87 70.5 c 128,-1,5
 41 154 41 154 41 255 c 0,6,7
 41 361 41 361 90.5 450 c 128,-1,8
 140 539 140 539 232 591.5 c 128,-1,9
 324 644 324 644 445 644 c 0,10,11
 539 644 539 644 619.5 610.5 c 128,-1,12
 700 577 700 577 749.5 506 c 128,-1,13
 799 435 799 435 799 330 c 0,14,15
 799 257 799 257 774.5 200 c 128,-1,16
 750 143 750 143 706 111 c 128,-1,17
 662 79 662 79 605 79 c 0,18,19
 566 79 566 79 543 92 c 128,-1,20
 520 105 520 105 509 123 c 0,21,22
 505 129 505 129 503 129 c 0,23,24
 500 129 500 129 496 123 c 0,25,26
 473 96 473 96 440.5 80.5 c 128,-1,27
 408 65 408 65 368 65 c 0,28,29
 326 65 326 65 291.5 86 c 128,-1,30
 257 107 257 107 237 146 c 128,-1,31
 217 185 217 185 217 236 c 0,32,33
 217 296 217 296 241.5 348 c 128,-1,34
 266 400 266 400 311.5 431.5 c 128,-1,35
 357 463 357 463 417 463 c 0,36,37
 454 463 454 463 476.5 451 c 128,-1,38
 499 439 499 439 520 417 c 0,39,40
 523 415 523 415 525.5 416 c 128,-1,41
 528 417 528 417 529 421 c 2,42,-1
 532 438 l 1,43,-1
 626 438 l 1,44,-1
 591 226 l 2,45,46
 589 218 589 218 589 205 c 0,47,48
 589 171 589 171 617 171 c 0,49,50
 639 171 639 171 658 188 c 128,-1,51
 677 205 677 205 689.5 239.5 c 128,-1,52
 702 274 702 274 702 324 c 0,53,54
 702 446 702 446 629.5 500.5 c 128,-1,55
 557 555 557 555 445 555 c 0,56,57
 342 555 342 555 273.5 515 c 128,-1,58
 205 475 205 475 173 408 c 128,-1,59
 141 341 141 341 141 257 c 0,60,61
 141 121 141 121 221 47 c 128,-1,62
 301 -27 301 -27 441 -27 c 0,63,64
 502 -27 502 -27 540 -13 c 128,-1,65
 578 1 578 1 621 31 c 1,66,-1
 670 -34 l 1,67,0
 632 -67 632 -67 567 -88.5 c 128,-1,1
350 188.5 m 128,-1,69
 367 164 367 164 398 164 c 0,70,71
 439 164 439 164 466.5 199 c 128,-1,72
 494 234 494 234 494 278 c 0,73,74
 494 316 494 316 475.5 340.5 c 128,-1,75
 457 365 457 365 426 365 c 0,76,77
 388 365 388 365 360.5 331.5 c 128,-1,78
 333 298 333 298 333 250 c 0,79,68
 333 213 333 213 350 188.5 c 128,-1,69
EndSplineSet
EndChar

StartChar: A
Encoding: 65 65 36
Width: 718
GlyphClass: 2
Flags: W
AnchorPoint: "Anchor-5" 0 0 basechar 0
AnchorPoint: "Anchor-4" 0 0 basechar 0
AnchorPoint: "Anchor-3" 372 723 basechar 0
AnchorPoint: "Anchor-2" 705 9 basechar 0
LayerCount: 2
Fore
SplineSet
271 723 m 1,0,-1
 448 723 l 1,1,-1
 705 0 l 1,2,-1
 536 0 l 1,3,-1
 483 154 l 1,4,-1
 239 154 l 1,5,-1
 184 0 l 1,6,-1
 14 0 l 1,7,-1
 271 723 l 1,0,-1
443 301 m 1,8,-1
 360 560 l 1,9,-1
 275 301 l 1,10,-1
 443 301 l 1,8,-1
EndSplineSet
Substitution2: "Single Substitution lookup 30 subtable" ordfeminine
Substitution2: "'aalt' Access All Alternates in Latin lookup 0 subtable" ordfeminine
EndChar

StartChar: B
Encoding: 66 66 37
Width: 690
GlyphClass: 2
Flags: W
LayerCount: 2
Fore
SplineSet
72 723 m 1,0,-1
 347 723 l 2,1,2
 632 723 632 723 632 533 c 0,3,4
 632 479 632 479 604.5 440.5 c 128,-1,5
 577 402 577 402 511 371 c 1,6,7
 594 348 594 348 621.5 302 c 128,-1,8
 649 256 649 256 649 196 c 0,9,10
 649 95 649 95 581 47.5 c 128,-1,11
 513 0 513 0 361 0 c 2,12,-1
 72 0 l 1,13,-1
 72 723 l 1,0,-1
373 432 m 2,14,15
 414 432 414 432 441 453 c 128,-1,16
 468 474 468 474 468 511 c 0,17,18
 468 550 468 550 439 572 c 128,-1,19
 410 594 410 594 364 594 c 2,20,-1
 242 594 l 1,21,-1
 242 432 l 1,22,-1
 373 432 l 2,14,15
366 130 m 2,23,24
 419 130 419 130 447.5 154 c 128,-1,25
 476 178 476 178 476 216 c 128,-1,26
 476 254 476 254 447.5 276.5 c 128,-1,27
 419 299 419 299 373 299 c 2,28,-1
 242 299 l 1,29,-1
 242 130 l 1,30,-1
 366 130 l 2,23,24
EndSplineSet
EndChar

StartChar: C
Encoding: 67 67 38
Width: 721
GlyphClass: 2
Flags: W
AnchorPoint: "Anchor-5" 0 0 basechar 0
AnchorPoint: "Anchor-4" 377 0 basechar 0
AnchorPoint: "Anchor-3" 377 723 basechar 0
AnchorPoint: "Anchor-2" 0 0 basechar 0
LayerCount: 2
Fore
SplineSet
525.5 700.5 m 128,-1,1
 592 668 592 668 632.5 610.5 c 128,-1,2
 673 553 673 553 681 479 c 1,3,-1
 503 478 l 1,4,5
 494 533 494 533 460 564 c 128,-1,6
 426 595 426 595 370 595 c 0,7,8
 226 595 226 595 226 367 c 0,9,10
 226 245 226 245 264 186.5 c 128,-1,11
 302 128 302 128 371 128 c 0,12,13
 423 128 423 128 458 164.5 c 128,-1,14
 493 201 493 201 502 257 c 1,15,-1
 680 255 l 1,16,17
 665 134 665 134 595.5 62 c 128,-1,18
 526 -10 526 -10 377 -10 c 0,19,20
 276 -10 276 -10 199.5 38 c 128,-1,21
 123 86 123 86 81.5 172 c 128,-1,22
 40 258 40 258 40 369 c 128,-1,23
 40 480 40 480 81 562 c 128,-1,24
 122 644 122 644 197.5 688.5 c 128,-1,25
 273 733 273 733 376 733 c 0,26,0
 459 733 459 733 525.5 700.5 c 128,-1,1
EndSplineSet
EndChar

StartChar: D
Encoding: 68 68 39
Width: 724
GlyphClass: 2
Flags: W
AnchorPoint: "Anchor-5" 0 0 basechar 0
AnchorPoint: "Anchor-4" 0 0 basechar 0
AnchorPoint: "Anchor-3" 362 723 basechar 0
AnchorPoint: "Anchor-2" 0 0 basechar 0
LayerCount: 2
Fore
SplineSet
174 723 m 2,0,1
 279 723 279 723 310 722 c 0,2,3
 500 716 500 716 592 622 c 128,-1,4
 684 528 684 528 684 364 c 0,5,6
 684 195 684 195 589 97.5 c 128,-1,7
 494 0 494 0 307 0 c 2,8,-1
 72 0 l 1,9,-1
 72 723 l 1,10,-1
 174 723 l 2,0,1
243 136 m 1,11,-1
 311 136 l 2,12,13
 394 136 394 136 450 192 c 128,-1,14
 506 248 506 248 506 366 c 0,15,16
 506 477 506 477 454.5 532.5 c 128,-1,17
 403 588 403 588 312 588 c 2,18,-1
 243 588 l 1,19,-1
 243 136 l 1,11,-1
EndSplineSet
EndChar

StartChar: E
Encoding: 69 69 40
Width: 643
GlyphClass: 2
Flags: W
AnchorPoint: "Anchor-5" 0 0 basechar 0
AnchorPoint: "Anchor-4" 335 0 basechar 0
AnchorPoint: "Anchor-3" 332 723 basechar 0
AnchorPoint: "Anchor-2" 588 10 basechar 0
LayerCount: 2
Fore
SplineSet
72 723 m 1,0,-1
 587 723 l 1,1,-1
 586 581 l 1,2,-1
 243 581 l 1,3,-1
 243 433 l 1,4,-1
 536 433 l 1,5,-1
 536 294 l 1,6,-1
 242 294 l 1,7,-1
 242 143 l 1,8,-1
 590 143 l 1,9,-1
 590 0 l 1,10,-1
 72 0 l 1,11,-1
 72 723 l 1,0,-1
EndSplineSet
EndChar

StartChar: F
Encoding: 70 70 41
Width: 612
GlyphClass: 2
Flags: W
LayerCount: 2
Fore
SplineSet
583 723 m 1,0,-1
 582 583 l 1,1,-1
 243 583 l 1,2,-1
 243 427 l 1,3,-1
 532 427 l 1,4,-1
 532 289 l 1,5,-1
 243 289 l 1,6,-1
 243 0 l 1,7,-1
 72 0 l 1,8,-1
 72 723 l 1,9,-1
 583 723 l 1,0,-1
EndSplineSet
EndChar

StartChar: G
Encoding: 71 71 42
Width: 762
GlyphClass: 2
Flags: W
AnchorPoint: "Anchor-5" 0 0 basechar 0
AnchorPoint: "Anchor-4" 376 0 basechar 0
AnchorPoint: "Anchor-3" 375 723 basechar 0
AnchorPoint: "Anchor-2" 0 0 basechar 0
LayerCount: 2
Fore
SplineSet
197.5 36 m 128,-1,1
 122 82 122 82 81 166 c 128,-1,2
 40 250 40 250 40 359 c 0,3,4
 40 471 40 471 83.5 556 c 128,-1,5
 127 641 127 641 205 687 c 128,-1,6
 283 733 283 733 384 733 c 0,7,8
 472 733 472 733 541 697.5 c 128,-1,9
 610 662 610 662 648.5 603.5 c 128,-1,10
 687 545 687 545 689 479 c 1,11,-1
 511 478 l 1,12,13
 500 529 500 529 466 560 c 128,-1,14
 432 591 432 591 379 591 c 0,15,16
 310 591 310 591 267.5 536 c 128,-1,17
 225 481 225 481 225 365 c 0,18,19
 225 240 225 240 271 189.5 c 128,-1,20
 317 139 317 139 386 139 c 0,21,22
 436 139 436 139 469 167 c 128,-1,23
 502 195 502 195 510 230 c 2,24,-1
 517 266 l 1,25,-1
 379 266 l 1,26,-1
 379 382 l 1,27,-1
 696 380 l 1,28,-1
 696 0 l 1,29,-1
 582 0 l 1,30,-1
 582 87 l 1,31,32
 546 44 546 44 499 17 c 128,-1,33
 452 -10 452 -10 373 -10 c 0,34,0
 273 -10 273 -10 197.5 36 c 128,-1,1
EndSplineSet
EndChar

StartChar: H
Encoding: 72 72 43
Width: 732
GlyphClass: 2
Flags: W
AnchorPoint: "Anchor-5" 0 0 basechar 0
AnchorPoint: "Anchor-4" 362 0 basechar 0
AnchorPoint: "Anchor-3" 364 723 basechar 0
AnchorPoint: "Anchor-2" 0 0 basechar 0
LayerCount: 2
Fore
SplineSet
242 300 m 1,0,-1
 242 0 l 1,1,-1
 72 0 l 1,2,-1
 72 723 l 1,3,-1
 242 723 l 1,4,-1
 242 441 l 1,5,-1
 489 441 l 1,6,-1
 489 723 l 1,7,-1
 660 723 l 1,8,-1
 660 0 l 1,9,-1
 489 0 l 1,10,-1
 489 300 l 1,11,-1
 242 300 l 1,0,-1
EndSplineSet
EndChar

StartChar: I
Encoding: 73 73 44
Width: 314
GlyphClass: 2
Flags: W
AnchorPoint: "Anchor-5" 0 0 basechar 0
AnchorPoint: "Anchor-4" 166 0 basechar 0
AnchorPoint: "Anchor-3" 158 723 basechar 0
AnchorPoint: "Anchor-2" 221 4 basechar 0
LayerCount: 2
Fore
SplineSet
242 723 m 1,0,-1
 242 0 l 1,1,-1
 72 0 l 1,2,-1
 72 723 l 1,3,-1
 242 723 l 1,0,-1
EndSplineSet
EndChar

StartChar: J
Encoding: 74 74 45
Width: 421
GlyphClass: 2
Flags: W
AnchorPoint: "Anchor-5" 0 0 basechar 0
AnchorPoint: "Anchor-4" 0 0 basechar 0
AnchorPoint: "Anchor-3" 222 723 basechar 0
AnchorPoint: "Anchor-2" 0 0 basechar 0
LayerCount: 2
Fore
SplineSet
332.5 87.5 m 128,-1,1
 316 39 316 39 272.5 14.5 c 128,-1,2
 229 -10 229 -10 149 -10 c 0,3,4
 119 -10 119 -10 81 -6 c 128,-1,5
 43 -2 43 -2 21 3 c 1,6,-1
 23 157 l 1,7,8
 30 156 30 156 51.5 152 c 128,-1,9
 73 148 73 148 92 148 c 0,10,11
 141 148 141 148 159.5 173.5 c 128,-1,12
 178 199 178 199 178 259 c 2,13,-1
 178 723 l 1,14,-1
 349 723 l 1,15,-1
 349 215 l 2,16,0
 349 136 349 136 332.5 87.5 c 128,-1,1
EndSplineSet
EndChar

StartChar: K
Encoding: 75 75 46
Width: 728
GlyphClass: 2
Flags: W
AnchorPoint: "Anchor-5" 0 0 basechar 0
AnchorPoint: "Anchor-4" 353 0 basechar 0
AnchorPoint: "Anchor-3" 357 723 basechar 0
AnchorPoint: "Anchor-2" 0 0 basechar 0
LayerCount: 2
Fore
SplineSet
523 0 m 1,0,-1
 347 321 l 1,1,-1
 249 198 l 1,2,-1
 249 0 l 1,3,-1
 72 0 l 1,4,-1
 72 723 l 1,5,-1
 249 723 l 1,6,-1
 249 411 l 1,7,-1
 485 723 l 1,8,-1
 678 723 l 1,9,-1
 469 446 l 1,10,-1
 708 0 l 1,11,-1
 523 0 l 1,0,-1
EndSplineSet
EndChar

StartChar: L
Encoding: 76 76 47
Width: 568
GlyphClass: 2
Flags: W
AnchorPoint: "Anchor-5" 474 723 basechar 0
AnchorPoint: "Anchor-4" 305 0 basechar 0
AnchorPoint: "Anchor-3" 149 723 basechar 0
AnchorPoint: "Anchor-2" 0 0 basechar 0
LayerCount: 2
Fore
SplineSet
243 723 m 1,0,-1
 243 142 l 1,1,-1
 544 142 l 1,2,-1
 544 0 l 1,3,-1
 72 0 l 1,4,-1
 72 723 l 1,5,-1
 243 723 l 1,0,-1
EndSplineSet
EndChar

StartChar: M
Encoding: 77 77 48
Width: 927
GlyphClass: 2
Flags: W
LayerCount: 2
Fore
SplineSet
72 723 m 1,0,-1
 322 723 l 1,1,-1
 464 245 l 1,2,-1
 606 723 l 1,3,-1
 856 723 l 1,4,-1
 856 0 l 1,5,-1
 685 0 l 1,6,-1
 685 538 l 1,7,-1
 527 0 l 1,8,-1
 400 0 l 1,9,-1
 243 537 l 1,10,-1
 243 0 l 1,11,-1
 72 0 l 1,12,-1
 72 723 l 1,0,-1
EndSplineSet
EndChar

StartChar: N
Encoding: 78 78 49
Width: 790
GlyphClass: 2
Flags: W
AnchorPoint: "Anchor-5" 0 0 basechar 0
AnchorPoint: "Anchor-4" 391 0 basechar 0
AnchorPoint: "Anchor-3" 397 723 basechar 0
AnchorPoint: "Anchor-2" 0 0 basechar 0
LayerCount: 2
Fore
SplineSet
719 723 m 1,0,-1
 719 0 l 1,1,-1
 565 0 l 1,2,-1
 242 464 l 1,3,-1
 242 0 l 1,4,-1
 72 0 l 1,5,-1
 72 723 l 1,6,-1
 242 723 l 1,7,-1
 548 282 l 1,8,-1
 548 723 l 1,9,-1
 719 723 l 1,0,-1
EndSplineSet
EndChar

StartChar: O
Encoding: 79 79 50
Width: 762
GlyphClass: 2
Flags: W
AnchorPoint: "Anchor-5" 0 0 basechar 0
AnchorPoint: "Anchor-4" 383 0 basechar 0
AnchorPoint: "Anchor-3" 381 723 basechar 0
AnchorPoint: "Anchor-2" 469 10 basechar 0
LayerCount: 2
Fore
SplineSet
200.5 35 m 128,-1,1
 123 80 123 80 81.5 163.5 c 128,-1,2
 40 247 40 247 40 360 c 128,-1,3
 40 473 40 473 82 557.5 c 128,-1,4
 124 642 124 642 201.5 687.5 c 128,-1,5
 279 733 279 733 382 733 c 0,6,7
 484 733 484 733 561 687.5 c 128,-1,8
 638 642 638 642 680 557.5 c 128,-1,9
 722 473 722 473 722 360 c 128,-1,10
 722 247 722 247 680.5 163.5 c 128,-1,11
 639 80 639 80 562 35 c 128,-1,12
 485 -10 485 -10 382 -10 c 0,13,0
 278 -10 278 -10 200.5 35 c 128,-1,1
537 357 m 0,14,15
 537 480 537 480 496 537.5 c 128,-1,16
 455 595 455 595 382 595 c 128,-1,17
 309 595 309 595 267.5 537.5 c 128,-1,18
 226 480 226 480 226 357 c 0,19,20
 226 238 226 238 267 183 c 128,-1,21
 308 128 308 128 382 128 c 0,22,23
 537 128 537 128 537 357 c 0,14,15
EndSplineSet
Substitution2: "Single Substitution lookup 30 subtable" ordmasculine
Substitution2: "'aalt' Access All Alternates in Latin lookup 0 subtable" ordmasculine
EndChar

StartChar: P
Encoding: 80 80 51
Width: 655
GlyphClass: 2
Flags: W
LayerCount: 2
Fore
SplineSet
72 723 m 1,0,-1
 348 723 l 2,1,2
 429 723 429 723 492 695.5 c 128,-1,3
 555 668 555 668 591.5 614 c 128,-1,4
 628 560 628 560 628 485 c 0,5,6
 628 379 628 379 558.5 319.5 c 128,-1,7
 489 260 489 260 370 260 c 2,8,-1
 243 260 l 1,9,-1
 243 0 l 1,10,-1
 72 0 l 1,11,-1
 72 723 l 1,0,-1
365 389 m 2,12,13
 410 389 410 389 440 419.5 c 128,-1,14
 470 450 470 450 470 494 c 0,15,16
 470 539 470 539 439 567 c 128,-1,17
 408 595 408 595 364 595 c 2,18,-1
 241 595 l 1,19,-1
 241 389 l 1,20,-1
 365 389 l 2,12,13
EndSplineSet
EndChar

StartChar: Q
Encoding: 81 81 52
Width: 768
GlyphClass: 2
Flags: W
LayerCount: 2
Fore
SplineSet
73 557.5 m 128,-1,1
 115 642 115 642 192.5 687.5 c 128,-1,2
 270 733 270 733 373 733 c 128,-1,3
 476 733 476 733 553 687.5 c 128,-1,4
 630 642 630 642 672 557.5 c 128,-1,5
 714 473 714 473 714 360 c 0,6,7
 714 175 714 175 603 70 c 1,8,9
 612 45 612 45 643 28 c 128,-1,10
 674 11 674 11 713 10 c 1,11,-1
 713 -124 l 1,12,13
 653 -124 653 -124 612 -115.5 c 128,-1,14
 571 -107 571 -107 532 -81.5 c 128,-1,15
 493 -56 493 -56 454 -4 c 1,16,17
 413 -10 413 -10 373 -10 c 0,18,19
 269 -10 269 -10 192 35 c 128,-1,20
 115 80 115 80 73 163.5 c 128,-1,21
 31 247 31 247 31 360 c 128,-1,0
 31 473 31 473 73 557.5 c 128,-1,1
257.5 182.5 m 128,-1,23
 297 128 297 128 373 128 c 128,-1,24
 449 128 449 128 489 182.5 c 128,-1,25
 529 237 529 237 529 358 c 0,26,27
 529 595 529 595 373 595 c 0,28,29
 218 595 218 595 218 358 c 0,30,22
 218 237 218 237 257.5 182.5 c 128,-1,23
EndSplineSet
EndChar

StartChar: R
Encoding: 82 82 53
Width: 701
GlyphClass: 2
Flags: W
AnchorPoint: "Anchor-5" 0 0 basechar 0
AnchorPoint: "Anchor-4" 352 0 basechar 0
AnchorPoint: "Anchor-3" 342 723 basechar 0
AnchorPoint: "Anchor-2" 0 0 basechar 0
LayerCount: 2
Fore
SplineSet
478 0 m 1,0,-1
 366 264 l 1,1,-1
 242 264 l 1,2,-1
 242 0 l 1,3,-1
 72 0 l 1,4,-1
 72 723 l 1,5,-1
 388 723 l 2,6,7
 518 723 518 723 580.5 662 c 128,-1,8
 643 601 643 601 643 498 c 0,9,10
 643 420 643 420 611 371.5 c 128,-1,11
 579 323 579 323 522 291 c 1,12,-1
 653 0 l 1,13,-1
 478 0 l 1,0,-1
441 422.5 m 128,-1,15
 471 452 471 452 471 496 c 0,16,17
 471 539 471 539 441.5 567 c 128,-1,18
 412 595 412 595 370 595 c 2,19,-1
 242 595 l 1,20,-1
 242 393 l 1,21,-1
 364 393 l 2,22,14
 411 393 411 393 441 422.5 c 128,-1,15
EndSplineSet
EndChar

StartChar: S
Encoding: 83 83 54
Width: 705
GlyphClass: 2
Flags: W
AnchorPoint: "Anchor-5" 0 0 basechar 0
AnchorPoint: "Anchor-4" 353 0 basechar 0
AnchorPoint: "Anchor-3" 354 723 basechar 0
AnchorPoint: "Anchor-2" 0 0 basechar 0
LayerCount: 2
Fore
SplineSet
210 14.5 m 128,-1,1
 140 39 140 39 93.5 89 c 128,-1,2
 47 139 47 139 40 212 c 1,3,-1
 217 213 l 1,4,5
 226 170 226 170 263.5 146 c 128,-1,6
 301 122 301 122 357 122 c 0,7,8
 415 122 415 122 453 141 c 128,-1,9
 491 160 491 160 491 200 c 0,10,11
 491 233 491 233 459 250 c 128,-1,12
 427 267 427 267 368 278 c 2,13,-1
 247 300 l 2,14,15
 160 315 160 315 110.5 368.5 c 128,-1,16
 61 422 61 422 61 509 c 0,17,18
 61 577 61 577 100 627.5 c 128,-1,19
 139 678 139 678 206 705 c 128,-1,20
 273 732 273 732 355 732 c 0,21,22
 439 732 439 732 506 701.5 c 128,-1,23
 573 671 573 671 612.5 620 c 128,-1,24
 652 569 652 569 659 510 c 1,25,-1
 486 508 l 1,26,27
 475 599 475 599 358 599 c 0,28,29
 302 599 302 599 272.5 578 c 128,-1,30
 243 557 243 557 243 526 c 0,31,32
 243 497 243 497 263 479.5 c 128,-1,33
 283 462 283 462 334 452 c 2,34,-1
 453 430 l 2,35,36
 582 407 582 407 623.5 343.5 c 128,-1,37
 665 280 665 280 665 201 c 0,38,39
 665 142 665 142 625.5 93.5 c 128,-1,40
 586 45 586 45 516 17.5 c 128,-1,41
 446 -10 446 -10 358 -10 c 0,42,0
 280 -10 280 -10 210 14.5 c 128,-1,1
EndSplineSet
EndChar

StartChar: T
Encoding: 84 84 55
Width: 618
GlyphClass: 2
Flags: W
AnchorPoint: "Anchor-5" 0 0 basechar 0
AnchorPoint: "Anchor-4" 318 0 basechar 0
AnchorPoint: "Anchor-3" 318 723 basechar 0
AnchorPoint: "Anchor-2" 0 0 basechar 0
LayerCount: 2
Fore
SplineSet
12 723 m 1,0,-1
 605 723 l 1,1,-1
 605 572 l 1,2,-1
 395 572 l 1,3,-1
 395 0 l 1,4,-1
 224 0 l 1,5,-1
 224 572 l 1,6,-1
 12 572 l 1,7,-1
 12 723 l 1,0,-1
EndSplineSet
EndChar

StartChar: U
Encoding: 85 85 56
Width: 745
GlyphClass: 2
Flags: W
AnchorPoint: "Anchor-5" 0 0 basechar 0
AnchorPoint: "Anchor-4" 0 0 basechar 0
AnchorPoint: "Anchor-3" 358 723 basechar 0
AnchorPoint: "Anchor-2" 450 12 basechar 0
LayerCount: 2
Fore
SplineSet
602 67.5 m 128,-1,1
 531 -10 531 -10 372 -10 c 128,-1,2
 213 -10 213 -10 142.5 68 c 128,-1,3
 72 146 72 146 72 290 c 2,4,-1
 72 723 l 1,5,-1
 245 723 l 1,6,-1
 245 280 l 2,7,8
 245 206 245 206 280 169.5 c 128,-1,9
 315 133 315 133 372 133 c 0,10,11
 430 133 430 133 465.5 169.5 c 128,-1,12
 501 206 501 206 501 280 c 2,13,-1
 501 723 l 1,14,-1
 673 723 l 1,15,-1
 673 287 l 2,16,0
 673 145 673 145 602 67.5 c 128,-1,1
EndSplineSet
EndChar

StartChar: V
Encoding: 86 86 57
Width: 699
GlyphClass: 2
Flags: W
LayerCount: 2
Fore
SplineSet
444 0 m 1,0,-1
 254 0 l 1,1,-1
 8 723 l 1,2,-1
 169 723 l 1,3,-1
 349 199 l 1,4,-1
 529 723 l 1,5,-1
 691 723 l 1,6,-1
 444 0 l 1,0,-1
EndSplineSet
EndChar

StartChar: W
Encoding: 87 87 58
Width: 971
GlyphClass: 2
Flags: W
AnchorPoint: "Anchor-5" 0 0 basechar 0
AnchorPoint: "Anchor-4" 0 0 basechar 0
AnchorPoint: "Anchor-3" 486 723 basechar 0
AnchorPoint: "Anchor-2" 0 0 basechar 0
LayerCount: 2
Fore
SplineSet
741 0 m 1,0,-1
 610 0 l 1,1,-1
 485 433 l 1,2,-1
 359 0 l 1,3,-1
 230 0 l 1,4,-1
 15 723 l 1,5,-1
 180 723 l 1,6,-1
 304 290 l 1,7,-1
 425 723 l 1,8,-1
 546 723 l 1,9,-1
 670 290 l 1,10,-1
 791 723 l 1,11,-1
 956 723 l 1,12,-1
 741 0 l 1,0,-1
EndSplineSet
EndChar

StartChar: X
Encoding: 88 88 59
Width: 717
GlyphClass: 2
Flags: W
LayerCount: 2
Fore
SplineSet
490 0 m 1,0,-1
 342 243 l 1,1,-1
 197 0 l 1,2,-1
 15 0 l 1,3,-1
 253 366 l 1,4,-1
 21 723 l 1,5,-1
 233 723 l 1,6,-1
 361 508 l 1,7,-1
 488 723 l 1,8,-1
 668 723 l 1,9,-1
 448 390 l 1,10,-1
 703 0 l 1,11,-1
 490 0 l 1,0,-1
EndSplineSet
EndChar

StartChar: Y
Encoding: 89 89 60
Width: 683
GlyphClass: 2
Flags: W
AnchorPoint: "Anchor-5" 0 0 basechar 0
AnchorPoint: "Anchor-4" 0 0 basechar 0
AnchorPoint: "Anchor-3" 361 723 basechar 0
AnchorPoint: "Anchor-2" 0 0 basechar 0
LayerCount: 2
Fore
SplineSet
426 303 m 1,0,-1
 426 0 l 1,1,-1
 255 0 l 1,2,-1
 255 303 l 1,3,-1
 2 723 l 1,4,-1
 186 723 l 1,5,-1
 341 448 l 1,6,-1
 494 723 l 1,7,-1
 680 723 l 1,8,-1
 426 303 l 1,0,-1
EndSplineSet
EndChar

StartChar: Z
Encoding: 90 90 61
Width: 681
GlyphClass: 2
Flags: W
AnchorPoint: "Anchor-5" 0 0 basechar 0
AnchorPoint: "Anchor-4" 347 0 basechar 0
AnchorPoint: "Anchor-3" 365 723 basechar 0
AnchorPoint: "Anchor-2" 0 0 basechar 0
LayerCount: 2
Fore
SplineSet
43 80 m 1,0,-1
 397 582 l 1,1,-1
 72 582 l 1,2,-1
 72 723 l 1,3,-1
 642 723 l 1,4,-1
 642 647 l 1,5,-1
 281 143 l 1,6,-1
 637 143 l 1,7,-1
 637 0 l 1,8,-1
 43 0 l 1,9,-1
 43 80 l 1,0,-1
EndSplineSet
EndChar

StartChar: bracketleft
Encoding: 91 91 62
Width: 343
GlyphClass: 2
Flags: W
LayerCount: 2
Fore
SplineSet
312 723 m 1,0,-1
 312 630 l 1,1,-1
 201 630 l 1,2,-1
 200 -68 l 1,3,-1
 312 -68 l 1,4,-1
 312 -161 l 1,5,-1
 63 -161 l 1,6,-1
 63 723 l 1,7,-1
 312 723 l 1,0,-1
EndSplineSet
EndChar

StartChar: backslash
Encoding: 92 92 63
Width: 388
GlyphClass: 2
Flags: W
LayerCount: 2
Fore
SplineSet
3 723 m 1,0,-1
 118 723 l 1,1,-1
 372 -9 l 1,2,-1
 257 -9 l 1,3,-1
 3 723 l 1,0,-1
EndSplineSet
EndChar

StartChar: bracketright
Encoding: 93 93 64
Width: 346
GlyphClass: 2
Flags: W
LayerCount: 2
Fore
SplineSet
14 723 m 1,0,-1
 14 630 l 1,1,-1
 125 630 l 1,2,-1
 126 -68 l 1,3,-1
 14 -68 l 1,4,-1
 14 -161 l 1,5,-1
 263 -161 l 1,6,-1
 263 723 l 1,7,-1
 14 723 l 1,0,-1
EndSplineSet
EndChar

StartChar: asciicircum
Encoding: 94 94 65
Width: 483
GlyphClass: 2
Flags: W
LayerCount: 2
Fore
SplineSet
236 358 m 1,0,-1
 138 120 l 1,1,-1
 27 120 l 1,2,-1
 186 491 l 2,3,4
 193 508 193 508 207 517 c 128,-1,5
 221 526 221 526 237 526 c 128,-1,6
 253 526 253 526 266.5 517.5 c 128,-1,7
 280 509 280 509 287 492 c 2,8,-1
 444 120 l 1,9,-1
 334 120 l 1,10,-1
 236 358 l 1,0,-1
EndSplineSet
EndChar

StartChar: underscore
Encoding: 95 95 66
Width: 563
GlyphClass: 2
Flags: W
LayerCount: 2
Fore
SplineSet
504 -147 m 1,0,-1
 52 -147 l 1,1,-1
 52 -26 l 1,2,-1
 504 -26 l 1,3,-1
 504 -147 l 1,0,-1
EndSplineSet
EndChar

StartChar: grave
Encoding: 96 96 67
Width: 324
GlyphClass: 2
Flags: W
LayerCount: 2
Fore
SplineSet
304 630 m 1,0,-1
 281 560 l 1,1,-1
 10 628 l 1,2,-1
 47 734 l 1,3,-1
 304 630 l 1,0,-1
EndSplineSet
EndChar

StartChar: a
Encoding: 97 97 68
Width: 577
GlyphClass: 2
Flags: W
AnchorPoint: "Anchor-5" 0 0 basechar 0
AnchorPoint: "Anchor-4" 0 0 basechar 0
AnchorPoint: "Anchor-3" 289 517 basechar 0
AnchorPoint: "Anchor-2" 491 11 basechar 0
LayerCount: 2
Fore
SplineSet
80 33 m 128,-1,1
 30 76 30 76 30 151 c 0,2,3
 30 324 30 324 300 327 c 1,4,-1
 353 329 l 1,5,-1
 353 354 l 2,6,7
 353 384 353 384 335.5 399.5 c 128,-1,8
 318 415 318 415 285 415 c 0,9,10
 256 415 256 415 229.5 402.5 c 128,-1,11
 203 390 203 390 188 362 c 1,12,-1
 49 365 l 1,13,14
 58 446 58 446 123.5 486.5 c 128,-1,15
 189 527 189 527 290 527 c 0,16,17
 411 527 411 527 463.5 484.5 c 128,-1,18
 516 442 516 442 516 365 c 2,19,-1
 516 0 l 1,20,-1
 374 0 l 1,21,-1
 361 63 l 1,22,23
 341 30 341 30 300 10 c 128,-1,24
 259 -10 259 -10 207 -10 c 0,25,0
 130 -10 130 -10 80 33 c 128,-1,1
326 122.5 m 128,-1,27
 352 145 352 145 353 174 c 2,28,-1
 353 242 l 1,29,-1
 311 241 l 2,30,31
 261 239 261 239 226 223 c 128,-1,32
 191 207 191 207 191 169 c 0,33,34
 191 137 191 137 213 118.5 c 128,-1,35
 235 100 235 100 266 100 c 0,36,26
 300 100 300 100 326 122.5 c 128,-1,27
EndSplineSet
Substitution2: "Single Substitution lookup 30 subtable" ordfeminine
Substitution2: "'aalt' Access All Alternates in Latin lookup 0 subtable" ordfeminine
EndChar

StartChar: b
Encoding: 98 98 69
Width: 612
GlyphClass: 2
Flags: W
LayerCount: 2
Fore
SplineSet
263 13 m 128,-1,1
 219 36 219 36 200 73 c 1,2,-1
 182 0 l 1,3,-1
 61 0 l 1,4,-1
 61 743 l 1,5,-1
 232 743 l 1,6,-1
 232 441 l 1,7,8
 255 481 255 481 295 504 c 128,-1,9
 335 527 335 527 380 527 c 0,10,11
 476 527 476 527 529.5 455.5 c 128,-1,12
 583 384 583 384 583 262 c 0,13,14
 583 137 583 137 524.5 63.5 c 128,-1,15
 466 -10 466 -10 360 -10 c 0,16,0
 307 -10 307 -10 263 13 c 128,-1,1
410 263 m 0,17,18
 410 340 410 340 386 372.5 c 128,-1,19
 362 405 362 405 320 405 c 0,20,21
 282 405 282 405 259 375.5 c 128,-1,22
 236 346 236 346 232 286 c 1,23,-1
 232 250 l 2,24,25
 232 182 232 182 255 146.5 c 128,-1,26
 278 111 278 111 316 111 c 0,27,28
 410 111 410 111 410 263 c 0,17,18
EndSplineSet
EndChar

StartChar: c
Encoding: 99 99 70
Width: 535
GlyphClass: 2
Flags: W
AnchorPoint: "Anchor-5" 0 0 basechar 0
AnchorPoint: "Anchor-4" 284 0 basechar 0
AnchorPoint: "Anchor-3" 285 517 basechar 0
AnchorPoint: "Anchor-2" 0 0 basechar 0
LayerCount: 2
Fore
SplineSet
399 499.5 m 128,-1,1
 447 472 447 472 473.5 425.5 c 128,-1,2
 500 379 500 379 505 323 c 1,3,-1
 367 320 l 1,4,5
 354 357 354 357 337 378.5 c 128,-1,6
 320 400 320 400 286 400 c 0,7,8
 240 400 240 400 213.5 363 c 128,-1,9
 187 326 187 326 187 258 c 0,10,11
 187 189 187 189 215.5 149 c 128,-1,12
 244 109 244 109 290 109 c 0,13,14
 324 109 324 109 342 132.5 c 128,-1,15
 360 156 360 156 370 189 c 1,16,-1
 504 186 l 1,17,18
 500 133 500 133 473 88 c 128,-1,19
 446 43 446 43 397.5 16.5 c 128,-1,20
 349 -10 349 -10 285 -10 c 0,21,22
 212 -10 212 -10 154 23.5 c 128,-1,23
 96 57 96 57 63 117.5 c 128,-1,24
 30 178 30 178 30 256 c 0,25,26
 30 335 30 335 62.5 396.5 c 128,-1,27
 95 458 95 458 153 492.5 c 128,-1,28
 211 527 211 527 285 527 c 0,29,0
 351 527 351 527 399 499.5 c 128,-1,1
EndSplineSet
EndChar

StartChar: d
Encoding: 100 100 71
Width: 611
GlyphClass: 2
Flags: W
AnchorPoint: "Anchor-5" 580 549 basechar 0
AnchorPoint: "Anchor-4" 295 0 basechar 0
AnchorPoint: "Anchor-3" 0 0 basechar 0
AnchorPoint: "Anchor-2" 0 0 basechar 0
LayerCount: 2
Fore
SplineSet
88 62 m 128,-1,1
 30 134 30 134 30 260 c 0,2,3
 30 384 30 384 83.5 455.5 c 128,-1,4
 137 527 137 527 234 527 c 0,5,6
 278 527 278 527 316 511 c 128,-1,7
 354 495 354 495 379 459 c 1,8,-1
 379 743 l 1,9,-1
 550 743 l 1,10,-1
 550 0 l 1,11,-1
 428 0 l 1,12,-1
 415 69 l 1,13,14
 394 37 394 37 351.5 13.5 c 128,-1,15
 309 -10 309 -10 250 -10 c 0,16,0
 146 -10 146 -10 88 62 c 128,-1,1
354 142 m 128,-1,18
 379 173 379 173 379 228 c 2,19,-1
 379 304 l 1,20,21
 374 357 374 357 350.5 381 c 128,-1,22
 327 405 327 405 290 405 c 0,23,24
 195 405 195 405 195 262 c 0,25,26
 195 183 195 183 221 147 c 128,-1,27
 247 111 247 111 290 111 c 0,28,17
 329 111 329 111 354 142 c 128,-1,18
EndSplineSet
EndChar

StartChar: e
Encoding: 101 101 72
Width: 564
GlyphClass: 2
Flags: W
AnchorPoint: "Anchor-5" 0 0 basechar 0
AnchorPoint: "Anchor-4" 288 0 basechar 0
AnchorPoint: "Anchor-3" 287 517 basechar 0
AnchorPoint: "Anchor-2" 410 24 basechar 0
LayerCount: 2
Fore
SplineSet
222.5 139.5 m 128,-1,1
 248 111 248 111 290 111 c 0,2,3
 324 111 324 111 347 124 c 128,-1,4
 370 137 370 137 382 168 c 1,5,-1
 533 165 l 1,6,7
 525 112 525 112 489.5 72.5 c 128,-1,8
 454 33 454 33 402.5 11.5 c 128,-1,9
 351 -10 351 -10 295 -10 c 0,10,11
 217 -10 217 -10 157 22.5 c 128,-1,12
 97 55 97 55 63.5 114.5 c 128,-1,13
 30 174 30 174 30 252 c 0,14,15
 30 329 30 329 60.5 391.5 c 128,-1,16
 91 454 91 454 149 490.5 c 128,-1,17
 207 527 207 527 286 527 c 0,18,19
 405 527 405 527 469 454 c 128,-1,20
 533 381 533 381 533 262 c 2,21,-1
 533 219 l 1,22,-1
 197 219 l 1,23,0
 197 168 197 168 222.5 139.5 c 128,-1,1
376 317 m 1,24,25
 376 357 376 357 352.5 383.5 c 128,-1,26
 329 410 329 410 286 410 c 0,27,28
 247 410 247 410 222 382 c 128,-1,29
 197 354 197 354 197 317 c 1,30,-1
 376 317 l 1,24,25
EndSplineSet
EndChar

StartChar: f
Encoding: 102 102 73
Width: 408
GlyphClass: 2
Flags: W
LayerCount: 2
Fore
SplineSet
380 400 m 1,0,-1
 279 400 l 1,1,-1
 279 0 l 1,2,-1
 108 0 l 1,3,-1
 108 400 l 1,4,-1
 19 400 l 1,5,-1
 19 517 l 1,6,-1
 108 517 l 1,7,-1
 108 589 l 2,8,9
 108 652 108 652 147.5 687.5 c 128,-1,10
 187 723 187 723 256 723 c 2,11,-1
 384 723 l 1,12,-1
 385 611 l 1,13,-1
 321 611 l 2,14,15
 295 611 295 611 285 599 c 128,-1,16
 275 587 275 587 275 557 c 2,17,-1
 275 517 l 1,18,-1
 380 517 l 1,19,-1
 380 400 l 1,0,-1
EndSplineSet
EndChar

StartChar: g
Encoding: 103 103 74
Width: 641
GlyphClass: 2
Flags: W
AnchorPoint: "Anchor-5" 0 0 basechar 0
AnchorPoint: "Anchor-4" 0 0 basechar 0
AnchorPoint: "Anchor-3" 314 517 basechar 0
AnchorPoint: "Anchor-2" 0 0 basechar 0
LayerCount: 2
Fore
SplineSet
96.5 -137 m 128,-1,1
 21 -103 21 -103 21 -48 c 0,2,3
 21 13 21 13 70.5 27.5 c 128,-1,4
 120 42 120 42 123 43 c 1,5,6
 121 44 121 44 102.5 53 c 128,-1,7
 84 62 84 62 69.5 81.5 c 128,-1,8
 55 101 55 101 55 125 c 0,9,10
 55 156 55 156 83.5 179.5 c 128,-1,11
 112 203 112 203 167 212 c 1,12,13
 115 236 115 236 87.5 277 c 128,-1,14
 60 318 60 318 60 363 c 0,15,16
 60 413 60 413 93.5 450 c 128,-1,17
 127 487 127 487 185 506 c 128,-1,18
 243 525 243 525 313 525 c 0,19,20
 363 525 363 525 397 515 c 128,-1,21
 431 505 431 505 465 486 c 1,22,23
 472 489 472 489 483 493.5 c 128,-1,24
 494 498 494 498 509 503 c 2,25,-1
 626 550 l 1,26,-1
 625 425 l 1,27,-1
 536 411 l 1,28,29
 540 400 540 400 542.5 386.5 c 128,-1,30
 545 373 545 373 545 364 c 0,31,32
 545 319 545 319 517 279 c 128,-1,33
 489 239 489 239 434 214.5 c 128,-1,34
 379 190 379 190 302 190 c 2,35,-1
 242 192 l 1,36,37
 210 189 210 189 210 177 c 0,38,39
 210 167 210 167 227 164 c 128,-1,40
 244 161 244 161 296 157 c 2,41,-1
 402 151 l 2,42,43
 500 145 500 145 549.5 103.5 c 128,-1,44
 599 62 599 62 599 0 c 0,45,46
 599 -77 599 -77 525 -124 c 128,-1,47
 451 -171 451 -171 313 -171 c 0,48,0
 172 -171 172 -171 96.5 -137 c 128,-1,1
363.5 302.5 m 128,-1,50
 384 323 384 323 384 358 c 128,-1,51
 384 393 384 393 363 416 c 128,-1,52
 342 439 342 439 307 439 c 128,-1,53
 272 439 272 439 251 416 c 128,-1,54
 230 393 230 393 230 358 c 0,55,56
 230 324 230 324 251 303 c 128,-1,57
 272 282 272 282 307 282 c 0,58,49
 343 282 343 282 363.5 302.5 c 128,-1,50
416 -68 m 128,-1,60
 437 -57 437 -57 437 -34 c 0,61,62
 437 -14 437 -14 418.5 -1.5 c 128,-1,63
 400 11 400 11 366 13 c 2,64,-1
 260 20 l 2,65,66
 225 22 225 22 206 7 c 128,-1,67
 187 -8 187 -8 187 -28 c 0,68,69
 187 -56 187 -56 223.5 -67.5 c 128,-1,70
 260 -79 260 -79 340 -79 c 0,71,59
 395 -79 395 -79 416 -68 c 128,-1,60
EndSplineSet
EndChar

StartChar: h
Encoding: 104 104 75
Width: 616
GlyphClass: 2
Flags: W
AnchorPoint: "Anchor-5" 0 0 basechar 0
AnchorPoint: "Anchor-4" 310 0 basechar 0
AnchorPoint: "Anchor-3" 429 517 basechar 0
AnchorPoint: "Anchor-2" 0 0 basechar 0
LayerCount: 2
Fore
SplineSet
61 743 m 1,0,-1
 229 743 l 1,1,-1
 229 451 l 1,2,3
 256 477 256 477 272 489.5 c 128,-1,4
 288 502 288 502 313.5 510.5 c 128,-1,5
 339 519 339 519 377 519 c 0,6,7
 426 519 426 519 466.5 498 c 128,-1,8
 507 477 507 477 530.5 439 c 128,-1,9
 554 401 554 401 554 352 c 2,10,-1
 554 0 l 1,11,-1
 384 0 l 1,12,-1
 384 330 l 2,13,14
 384 356 384 356 363.5 372.5 c 128,-1,15
 343 389 343 389 314 389 c 0,16,17
 287 389 287 389 264 373.5 c 128,-1,18
 241 358 241 358 232 333 c 1,19,-1
 232 0 l 1,20,-1
 61 0 l 1,21,-1
 61 743 l 1,0,-1
EndSplineSet
EndChar

StartChar: i
Encoding: 105 105 76
Width: 295
GlyphClass: 2
Flags: W
LayerCount: 2
Fore
SplineSet
233 590 m 1,0,-1
 61 590 l 1,1,-1
 61 743 l 1,2,-1
 233 743 l 1,3,-1
 233 590 l 1,0,-1
233 0 m 1,4,-1
 62 0 l 1,5,-1
 62 517 l 1,6,-1
 233 517 l 1,7,-1
 233 0 l 1,4,-1
EndSplineSet
Substitution2: "Single Substitution lookup 28 subtable" dotlessi
Substitution2: "'locl' Localized Forms in Latin lookup 10 subtable" i.loclTRK
Substitution2: "'locl' Localized Forms in Latin lookup 9 subtable" i.loclTRK
Substitution2: "'locl' Localized Forms in Latin lookup 8 subtable" i.loclTRK
Substitution2: "'locl' Localized Forms in Latin lookup 7 subtable" i.loclTRK
Substitution2: "'locl' Localized Forms in Latin lookup 6 subtable" i.loclTRK
AlternateSubs2: "'aalt' Access All Alternates in Latin lookup 1 subtable" dotlessi i.loclTRK
EndChar

StartChar: j
Encoding: 106 106 77
Width: 302
GlyphClass: 2
Flags: W
LayerCount: 2
Fore
SplineSet
238 590 m 1,0,-1
 66 590 l 1,1,-1
 66 743 l 1,2,-1
 238 743 l 1,3,-1
 238 590 l 1,0,-1
191.5 -121 m 128,-1,5
 145 -166 145 -166 48 -166 c 0,6,7
 24 -166 24 -166 9.5 -162.5 c 128,-1,8
 -5 -159 -5 -159 -11 -155 c 128,-1,9
 -17 -151 -17 -151 -18 -150 c 2,10,-1
 -19 -37 l 1,11,-1
 16 -32 l 2,12,13
 45 -27 45 -27 56 -16 c 128,-1,14
 67 -5 67 -5 67 17 c 2,15,-1
 67 517 l 1,16,-1
 238 517 l 1,17,-1
 238 16 l 2,18,4
 238 -76 238 -76 191.5 -121 c 128,-1,5
EndSplineSet
Substitution2: "Single Substitution lookup 28 subtable" uni0237
Substitution2: "'aalt' Access All Alternates in Latin lookup 0 subtable" uni0237
EndChar

StartChar: k
Encoding: 107 107 78
Width: 601
GlyphClass: 2
Flags: W
AnchorPoint: "Anchor-5" 0 0 basechar 0
AnchorPoint: "Anchor-4" 302 0 basechar 0
AnchorPoint: "Anchor-3" 0 0 basechar 0
AnchorPoint: "Anchor-2" 0 0 basechar 0
LayerCount: 2
Fore
SplineSet
414 0 m 1,0,-1
 285 207 l 1,1,-1
 232 148 l 1,2,-1
 232 0 l 1,3,-1
 61 0 l 1,4,-1
 61 743 l 1,5,-1
 232 743 l 1,6,-1
 232 314 l 1,7,-1
 407 517 l 1,8,-1
 578 517 l 1,9,-1
 390 307 l 1,10,-1
 582 0 l 1,11,-1
 414 0 l 1,0,-1
EndSplineSet
EndChar

StartChar: l
Encoding: 108 108 79
Width: 334
GlyphClass: 2
Flags: W
AnchorPoint: "Anchor-5" 373 758 basechar 0
AnchorPoint: "Anchor-4" 134 0 basechar 0
AnchorPoint: "Anchor-3" 146 765 basechar 0
AnchorPoint: "Anchor-2" 0 0 basechar 0
LayerCount: 2
Fore
SplineSet
123 13.5 m 128,-1,1
 83 36 83 36 72 69.5 c 128,-1,2
 61 103 61 103 61 151 c 2,3,-1
 61 743 l 1,4,-1
 229 743 l 1,5,-1
 229 173 l 2,6,7
 229 146 229 146 241 130.5 c 128,-1,8
 253 115 253 115 287 111 c 2,9,-1
 309 109 l 1,10,-1
 309 5 l 1,11,12
 272 -9 272 -9 243 -9 c 0,13,0
 163 -9 163 -9 123 13.5 c 128,-1,1
EndSplineSet
Substitution2: "'ss01' Style Set 1 in Latin lookup 27 subtable" l.ss01
Substitution2: "'salt' Stylistic Alternatives in Latin lookup 26 subtable" l.ss01
Substitution2: "'aalt' Access All Alternates in Latin lookup 0 subtable" l.ss01
EndChar

StartChar: m
Encoding: 109 109 80
Width: 932
GlyphClass: 2
Flags: W
LayerCount: 2
Fore
SplineSet
61 517 m 1,0,-1
 229 517 l 1,1,-1
 229 453 l 1,2,3
 266 485 266 485 304 506 c 128,-1,4
 342 527 342 527 395 527 c 0,5,6
 440 527 440 527 479.5 509 c 128,-1,7
 519 491 519 491 542 453 c 1,8,9
 568 487 568 487 611.5 507 c 128,-1,10
 655 527 655 527 700 527 c 0,11,12
 742 527 742 527 781.5 508 c 128,-1,13
 821 489 821 489 846 451 c 128,-1,14
 871 413 871 413 871 359 c 2,15,-1
 871 0 l 1,16,-1
 700 0 l 1,17,-1
 700 340 l 2,18,19
 700 372 700 372 679 388.5 c 128,-1,20
 658 405 658 405 628 405 c 0,21,22
 586 405 586 405 568 383.5 c 128,-1,23
 550 362 550 362 550 318 c 2,24,-1
 550 0 l 1,25,-1
 381 0 l 1,26,-1
 381 346 l 2,27,28
 381 373 381 373 359 389 c 128,-1,29
 337 405 337 405 307 405 c 0,30,31
 279 405 279 405 255.5 388.5 c 128,-1,32
 232 372 232 372 232 344 c 2,33,-1
 232 0 l 1,34,-1
 61 0 l 1,35,-1
 61 517 l 1,0,-1
EndSplineSet
EndChar

StartChar: n
Encoding: 110 110 81
Width: 617
GlyphClass: 2
Flags: W
AnchorPoint: "Anchor-5" 0 0 basechar 0
AnchorPoint: "Anchor-4" 308 0 basechar 0
AnchorPoint: "Anchor-3" 310 517 basechar 0
AnchorPoint: "Anchor-2" 0 0 basechar 0
LayerCount: 2
Fore
SplineSet
61 517 m 1,0,-1
 230 517 l 1,1,-1
 230 453 l 1,2,3
 259 486 259 486 289 503 c 128,-1,4
 319 520 319 520 374 520 c 0,5,6
 421 520 421 520 462.5 498 c 128,-1,7
 504 476 504 476 529.5 436 c 128,-1,8
 555 396 555 396 555 347 c 2,9,-1
 555 0 l 1,10,-1
 385 0 l 1,11,-1
 385 325 l 2,12,13
 385 354 385 354 363.5 371.5 c 128,-1,14
 342 389 342 389 312 389 c 0,15,16
 281 389 281 389 256.5 372.5 c 128,-1,17
 232 356 232 356 232 329 c 2,18,-1
 232 0 l 1,19,-1
 61 0 l 1,20,-1
 61 517 l 1,0,-1
EndSplineSet
EndChar

StartChar: o
Encoding: 111 111 82
Width: 572
GlyphClass: 2
Flags: W
AnchorPoint: "Anchor-5" 0 0 basechar 0
AnchorPoint: "Anchor-4" 284 0 basechar 0
AnchorPoint: "Anchor-3" 287 517 basechar 0
AnchorPoint: "Anchor-2" 360 10 basechar 0
LayerCount: 2
Fore
SplineSet
150 23.5 m 128,-1,1
 92 57 92 57 61 117.5 c 128,-1,2
 30 178 30 178 30 255 c 0,3,4
 30 335 30 335 62.5 397 c 128,-1,5
 95 459 95 459 153 493 c 128,-1,6
 211 527 211 527 287 527 c 0,7,8
 364 527 364 527 422 492 c 128,-1,9
 480 457 480 457 511 395.5 c 128,-1,10
 542 334 542 334 542 255 c 0,11,12
 542 178 542 178 511 118 c 128,-1,13
 480 58 480 58 422 24 c 128,-1,14
 364 -10 364 -10 286 -10 c 128,-1,0
 208 -10 208 -10 150 23.5 c 128,-1,1
355.5 157.5 m 128,-1,16
 376 200 376 200 376 261 c 128,-1,17
 376 322 376 322 355.5 363 c 128,-1,18
 335 404 335 404 287 404 c 0,19,20
 238 404 238 404 217 363 c 128,-1,21
 196 322 196 322 196 261 c 128,-1,22
 196 200 196 200 217 157.5 c 128,-1,23
 238 115 238 115 287 115 c 0,24,15
 335 115 335 115 355.5 157.5 c 128,-1,16
EndSplineSet
Substitution2: "Single Substitution lookup 30 subtable" ordmasculine
Substitution2: "'aalt' Access All Alternates in Latin lookup 0 subtable" ordmasculine
EndChar

StartChar: p
Encoding: 112 112 83
Width: 612
GlyphClass: 2
Flags: W
LayerCount: 2
Fore
SplineSet
61 517 m 1,0,-1
 232 517 l 1,1,-1
 232 454 l 1,2,3
 259 490 259 490 296.5 508.5 c 128,-1,4
 334 527 334 527 379 527 c 0,5,6
 436 527 436 527 482 497.5 c 128,-1,7
 528 468 528 468 555 408.5 c 128,-1,8
 582 349 582 349 582 261 c 0,9,10
 582 169 582 169 551.5 108.5 c 128,-1,11
 521 48 521 48 470.5 19 c 128,-1,12
 420 -10 420 -10 359 -10 c 0,13,14
 272 -10 272 -10 232 57 c 1,15,-1
 232 -161 l 1,16,-1
 61 -161 l 1,17,-1
 61 517 l 1,0,-1
395.5 149.5 m 128,-1,19
 424 188 424 188 424 261 c 0,20,21
 424 329 424 329 395.5 367 c 128,-1,22
 367 405 367 405 326 405 c 0,23,24
 301 405 301 405 279.5 390.5 c 128,-1,25
 258 376 258 376 245 353.5 c 128,-1,26
 232 331 232 331 232 308 c 2,27,-1
 232 202 l 1,28,29
 237 163 237 163 264 137 c 128,-1,30
 291 111 291 111 325 111 c 0,31,18
 367 111 367 111 395.5 149.5 c 128,-1,19
EndSplineSet
EndChar

StartChar: q
Encoding: 113 113 84
Width: 613
GlyphClass: 2
Flags: W
LayerCount: 2
Fore
SplineSet
381 -161 m 1,0,-1
 381 48 l 1,1,2
 346 16 346 16 311.5 3 c 128,-1,3
 277 -10 277 -10 240 -10 c 0,4,5
 148 -10 148 -10 89 57.5 c 128,-1,6
 30 125 30 125 30 261 c 0,7,8
 30 349 30 349 57 408.5 c 128,-1,9
 84 468 84 468 130.5 497.5 c 128,-1,10
 177 527 177 527 234 527 c 0,11,12
 275 527 275 527 313 511.5 c 128,-1,13
 351 496 351 496 380 471 c 1,14,-1
 380 517 l 1,15,-1
 552 517 l 1,16,-1
 552 -161 l 1,17,-1
 381 -161 l 1,0,-1
353.5 138 m 128,-1,19
 375 174 375 174 381 239 c 1,20,-1
 381 278 l 2,21,22
 381 344 381 344 358.5 379 c 128,-1,23
 336 414 336 414 296 414 c 0,24,25
 254 414 254 414 228 376 c 128,-1,26
 202 338 202 338 202 264 c 0,27,28
 202 189 202 189 229 145.5 c 128,-1,29
 256 102 256 102 298 102 c 0,30,18
 332 102 332 102 353.5 138 c 128,-1,19
EndSplineSet
EndChar

StartChar: r
Encoding: 114 114 85
Width: 435
GlyphClass: 2
Flags: W
AnchorPoint: "Anchor-5" 0 0 basechar 0
AnchorPoint: "Anchor-4" 156 0 basechar 0
AnchorPoint: "Anchor-3" 235 517 basechar 0
AnchorPoint: "Anchor-2" 0 0 basechar 0
LayerCount: 2
Fore
SplineSet
61 517 m 1,0,-1
 226 517 l 1,1,-1
 226 382 l 1,2,3
 247 446 247 446 292.5 486.5 c 128,-1,4
 338 527 338 527 403 527 c 1,5,-1
 404 366 l 1,6,7
 378 368 378 368 368 368 c 0,8,9
 295 368 295 368 263.5 338 c 128,-1,10
 232 308 232 308 232 263 c 2,11,-1
 232 0 l 1,12,-1
 61 0 l 1,13,-1
 61 517 l 1,0,-1
EndSplineSet
EndChar

StartChar: s
Encoding: 115 115 86
Width: 522
GlyphClass: 2
Flags: W
AnchorPoint: "Anchor-5" 0 0 basechar 0
AnchorPoint: "Anchor-4" 267 0 basechar 0
AnchorPoint: "Anchor-3" 266 517 basechar 0
AnchorPoint: "Anchor-2" 0 0 basechar 0
LayerCount: 2
Fore
SplineSet
109 31 m 128,-1,1
 42 72 42 72 27 158 c 1,2,-1
 168 160 l 1,3,4
 179 128 179 128 205 116.5 c 128,-1,5
 231 105 231 105 269 105 c 0,6,7
 308 105 308 105 329.5 116.5 c 128,-1,8
 351 128 351 128 351 147 c 0,9,10
 351 165 351 165 335 175.5 c 128,-1,11
 319 186 319 186 286 192 c 2,12,-1
 202 207 l 2,13,14
 43 236 43 236 43 361 c 0,15,16
 43 409 43 409 70 446.5 c 128,-1,17
 97 484 97 484 148 505.5 c 128,-1,18
 199 527 199 527 269 527 c 0,19,20
 337 527 337 527 388 506.5 c 128,-1,21
 439 486 439 486 465.5 448.5 c 128,-1,22
 492 411 492 411 491 361 c 1,23,-1
 352 360 l 1,24,25
 346 390 346 390 322 403.5 c 128,-1,26
 298 417 298 417 264 417 c 0,27,28
 191 417 191 417 191 373 c 0,29,30
 191 357 191 357 209 346.5 c 128,-1,31
 227 336 227 336 271 328 c 2,32,-1
 346 313 l 2,33,34
 429 293 429 293 462 247.5 c 128,-1,35
 495 202 495 202 495 156 c 0,36,37
 495 79 495 79 430.5 34.5 c 128,-1,38
 366 -10 366 -10 266 -10 c 0,39,0
 176 -10 176 -10 109 31 c 128,-1,1
EndSplineSet
EndChar

StartChar: t
Encoding: 116 116 87
Width: 437
GlyphClass: 2
Flags: W
AnchorPoint: "Anchor-5" 420 786 basechar 0
AnchorPoint: "Anchor-4" 264 0 basechar 0
AnchorPoint: "Anchor-3" 0 0 basechar 0
AnchorPoint: "Anchor-2" 0 0 basechar 0
LayerCount: 2
Fore
SplineSet
279 400 m 1,0,-1
 280 146 l 2,1,2
 280 125 280 125 289.5 117 c 128,-1,3
 299 109 299 109 316 109 c 2,4,-1
 394 109 l 1,5,-1
 394 8 l 1,6,7
 366 -7 366 -7 298 -7 c 0,8,9
 193 -7 193 -7 151.5 31 c 128,-1,10
 110 69 110 69 110 138 c 2,11,-1
 110 400 l 1,12,-1
 26 400 l 1,13,-1
 26 517 l 1,14,-1
 116 517 l 1,15,-1
 140 680 l 1,16,-1
 279 680 l 1,17,-1
 279 518 l 1,18,-1
 393 518 l 1,19,-1
 393 400 l 1,20,-1
 279 400 l 1,0,-1
EndSplineSet
EndChar

StartChar: u
Encoding: 117 117 88
Width: 617
GlyphClass: 2
Flags: W
AnchorPoint: "Anchor-5" 0 0 basechar 0
AnchorPoint: "Anchor-4" 308 0 basechar 0
AnchorPoint: "Anchor-3" 306 517 basechar 0
AnchorPoint: "Anchor-2" 528 10 basechar 0
LayerCount: 2
Fore
SplineSet
164.5 9.5 m 128,-1,1
 120 29 120 29 90.5 67 c 128,-1,2
 61 105 61 105 61 156 c 2,3,-1
 61 517 l 1,4,-1
 232 517 l 1,5,-1
 232 179 l 2,6,7
 232 148 232 148 252.5 130 c 128,-1,8
 273 112 273 112 306 112 c 0,9,10
 341 112 341 112 362 130.5 c 128,-1,11
 383 149 383 149 383 180 c 2,12,-1
 383 517 l 1,13,-1
 555 517 l 1,14,-1
 552 0 l 1,15,-1
 425 0 l 1,16,-1
 413 71 l 1,17,18
 391 32 391 32 344.5 11 c 128,-1,19
 298 -10 298 -10 253 -10 c 0,20,0
 209 -10 209 -10 164.5 9.5 c 128,-1,1
EndSplineSet
EndChar

StartChar: v
Encoding: 118 118 89
Width: 561
GlyphClass: 2
Flags: W
LayerCount: 2
Fore
SplineSet
337 0 m 1,0,-1
 225 0 l 1,1,-1
 14 517 l 1,2,-1
 167 517 l 1,3,-1
 281 221 l 1,4,-1
 393 517 l 1,5,-1
 548 517 l 1,6,-1
 337 0 l 1,0,-1
EndSplineSet
EndChar

StartChar: w
Encoding: 119 119 90
Width: 803
GlyphClass: 2
Flags: W
AnchorPoint: "Anchor-5" 0 0 basechar 0
AnchorPoint: "Anchor-4" 0 0 basechar 0
AnchorPoint: "Anchor-3" 406 517 basechar 0
AnchorPoint: "Anchor-2" 0 0 basechar 0
LayerCount: 2
Fore
SplineSet
612 0 m 1,0,-1
 486 0 l 1,1,-1
 398 282 l 1,2,-1
 308 0 l 1,3,-1
 187 0 l 1,4,-1
 15 517 l 1,5,-1
 164 517 l 1,6,-1
 255 231 l 1,7,-1
 342 517 l 1,8,-1
 461 517 l 1,9,-1
 547 231 l 1,10,-1
 636 517 l 1,11,-1
 789 517 l 1,12,-1
 612 0 l 1,0,-1
EndSplineSet
EndChar

StartChar: x
Encoding: 120 120 91
Width: 604
GlyphClass: 2
Flags: W
LayerCount: 2
Fore
SplineSet
414 0 m 1,0,-1
 302 153 l 1,1,-1
 190 0 l 1,2,-1
 14 0 l 1,3,-1
 212 270 l 1,4,-1
 32 517 l 1,5,-1
 208 517 l 1,6,-1
 303 388 l 1,7,-1
 398 517 l 1,8,-1
 574 517 l 1,9,-1
 392 270 l 1,10,-1
 590 0 l 1,11,-1
 414 0 l 1,0,-1
EndSplineSet
EndChar

StartChar: y
Encoding: 121 121 92
Width: 586
GlyphClass: 2
Flags: W
AnchorPoint: "Anchor-5" 0 0 basechar 0
AnchorPoint: "Anchor-4" 0 0 basechar 0
AnchorPoint: "Anchor-3" 314 517 basechar 0
AnchorPoint: "Anchor-2" 0 0 basechar 0
LayerCount: 2
Fore
SplineSet
99.5 -160.5 m 128,-1,1
 76 -156 76 -156 64.5 -151.5 c 128,-1,2
 53 -147 53 -147 51 -145 c 2,3,-1
 51 -37 l 1,4,-1
 102 -40 l 2,5,6
 145 -43 145 -43 168 -34.5 c 128,-1,7
 191 -26 191 -26 198 -16 c 128,-1,8
 205 -6 205 -6 210 7 c 2,9,-1
 215 26 l 1,10,-1
 14 517 l 1,11,-1
 182 517 l 1,12,-1
 293 208 l 1,13,-1
 407 517 l 1,14,-1
 573 517 l 1,15,-1
 367 14 l 2,16,17
 338 -57 338 -57 306 -96.5 c 128,-1,18
 274 -136 274 -136 238 -150.5 c 128,-1,19
 202 -165 202 -165 156 -165 c 0,20,0
 123 -165 123 -165 99.5 -160.5 c 128,-1,1
EndSplineSet
EndChar

StartChar: z
Encoding: 122 122 93
Width: 521
GlyphClass: 2
Flags: W
AnchorPoint: "Anchor-5" 0 0 basechar 0
AnchorPoint: "Anchor-4" 0 0 basechar 0
AnchorPoint: "Anchor-3" 271 517 basechar 0
AnchorPoint: "Anchor-2" 0 0 basechar 0
LayerCount: 2
Fore
SplineSet
25 84 m 1,0,-1
 280 411 l 1,1,-1
 47 411 l 1,2,-1
 47 517 l 1,3,-1
 494 517 l 1,4,-1
 494 436 l 1,5,-1
 238 107 l 1,6,-1
 496 107 l 1,7,-1
 496 0 l 1,8,-1
 25 0 l 1,9,-1
 25 84 l 1,0,-1
EndSplineSet
EndChar

StartChar: braceleft
Encoding: 123 123 94
Width: 401
GlyphClass: 2
Flags: W
LayerCount: 2
Fore
SplineSet
146 666.5 m 128,-1,1
 170 695 170 695 208 709 c 128,-1,2
 246 723 246 723 286 723 c 2,3,-1
 369 723 l 1,4,-1
 369 630 l 1,5,-1
 322 630 l 2,6,7
 282 630 282 630 271 617 c 128,-1,8
 260 604 260 604 260 578 c 2,9,-1
 260 386 l 2,10,11
 258 340 258 340 226 317 c 128,-1,12
 194 294 194 294 152 289 c 0,13,14
 146 288 146 288 145.5 286 c 128,-1,15
 145 284 145 284 152 283 c 0,16,17
 256 274 256 274 260 178 c 1,18,-1
 260 -15 l 2,19,20
 260 -44 260 -44 273.5 -56 c 128,-1,21
 287 -68 287 -68 322 -68 c 2,22,-1
 369 -68 l 1,23,-1
 369 -161 l 1,24,-1
 289 -161 l 2,25,26
 247 -161 247 -161 208.5 -147 c 128,-1,27
 170 -133 170 -133 146 -104.5 c 128,-1,28
 122 -76 122 -76 122 -35 c 2,29,-1
 122 163 l 2,30,31
 122 200 122 200 94 222.5 c 128,-1,32
 66 245 66 245 9 245 c 1,33,-1
 9 327 l 1,34,35
 69 327 69 327 95.5 348 c 128,-1,36
 122 369 122 369 122 413 c 2,37,-1
 122 598 l 2,38,0
 122 638 122 638 146 666.5 c 128,-1,1
EndSplineSet
EndChar

StartChar: bar
Encoding: 124 124 95
Width: 266
GlyphClass: 2
Flags: W
LayerCount: 2
Fore
SplineSet
72 -161 m 1,0,-1
 72 826 l 1,1,-1
 194 826 l 1,2,-1
 194 -161 l 1,3,-1
 72 -161 l 1,0,-1
EndSplineSet
EndChar

StartChar: braceright
Encoding: 125 125 96
Width: 403
GlyphClass: 2
Flags: W
LayerCount: 2
Fore
SplineSet
240 666.5 m 128,-1,1
 216 695 216 695 178 709 c 128,-1,2
 140 723 140 723 100 723 c 2,3,-1
 17 723 l 1,4,-1
 17 630 l 1,5,-1
 64 630 l 2,6,7
 104 630 104 630 115 617 c 128,-1,8
 126 604 126 604 126 578 c 2,9,-1
 126 386 l 2,10,11
 128 340 128 340 160 317 c 128,-1,12
 192 294 192 294 234 289 c 0,13,14
 240 288 240 288 240.5 286 c 128,-1,15
 241 284 241 284 234 283 c 0,16,17
 130 274 130 274 126 178 c 1,18,-1
 126 -15 l 2,19,20
 126 -44 126 -44 112.5 -56 c 128,-1,21
 99 -68 99 -68 64 -68 c 2,22,-1
 17 -68 l 1,23,-1
 17 -161 l 1,24,-1
 97 -161 l 2,25,26
 139 -161 139 -161 177.5 -147 c 128,-1,27
 216 -133 216 -133 240 -104.5 c 128,-1,28
 264 -76 264 -76 264 -35 c 2,29,-1
 264 163 l 2,30,31
 264 200 264 200 292 222.5 c 128,-1,32
 320 245 320 245 377 245 c 1,33,-1
 377 327 l 1,34,35
 317 327 317 327 290.5 348 c 128,-1,36
 264 369 264 369 264 413 c 2,37,-1
 264 598 l 2,38,0
 264 638 264 638 240 666.5 c 128,-1,1
EndSplineSet
EndChar

StartChar: asciitilde
Encoding: 126 126 97
Width: 626
GlyphClass: 2
Flags: W
LayerCount: 2
Fore
SplineSet
495.5 304 m 128,-1,1
 454 278 454 278 409 278 c 0,2,3
 381 278 381 278 358 287 c 128,-1,4
 335 296 335 296 305 313 c 0,5,6
 277 329 277 329 258.5 336.5 c 128,-1,7
 240 344 240 344 219 344 c 0,8,9
 185 344 185 344 160.5 325 c 128,-1,10
 136 306 136 306 101 266 c 1,11,-1
 53 349 l 1,12,13
 100 399 100 399 137.5 423.5 c 128,-1,14
 175 448 175 448 221 448 c 0,15,16
 251 448 251 448 273.5 439 c 128,-1,17
 296 430 296 430 328 412 c 0,18,19
 354 397 354 397 370.5 390 c 128,-1,20
 387 383 387 383 406 383 c 0,21,22
 439 383 439 383 467 404.5 c 128,-1,23
 495 426 495 426 515 460 c 1,24,-1
 565 379 l 1,25,0
 537 330 537 330 495.5 304 c 128,-1,1
EndSplineSet
EndChar

StartChar: exclamdown
Encoding: 161 161 99
Width: 288
GlyphClass: 2
Flags: W
LayerCount: 2
Fore
SplineSet
49 343 m 1,0,-1
 49 517 l 1,1,-1
 232 517 l 1,2,-1
 232 343 l 1,3,-1
 49 343 l 1,0,-1
42 -161 m 1,4,-1
 89 275 l 1,5,-1
 194 275 l 1,6,-1
 240 -161 l 1,7,-1
 42 -161 l 1,4,-1
EndSplineSet
EndChar

StartChar: cent
Encoding: 162 162 100
Width: 561
GlyphClass: 2
Flags: W
AnchorPoint: "Anchor-1" 294 628 basechar 0
AnchorPoint: "Anchor-0" 293 111 basechar 0
LayerCount: 2
Fore
SplineSet
351 243.5 m 128,-1,1
 369 267 369 267 379 300 c 1,2,-1
 513 297 l 1,3,4
 508 230 508 230 466.5 178 c 128,-1,5
 425 126 425 126 356 108 c 1,6,-1
 356 0 l 1,7,-1
 247 0 l 1,8,-1
 247 105 l 1,9,10
 186 115 186 115 139 150.5 c 128,-1,11
 92 186 92 186 65.5 242 c 128,-1,12
 39 298 39 298 39 367 c 0,13,14
 39 473 39 473 96 545.5 c 128,-1,15
 153 618 153 618 247 634 c 1,16,-1
 247 723 l 1,17,-1
 356 723 l 1,18,-1
 356 631 l 1,19,20
 426 614 426 614 467 560 c 128,-1,21
 508 506 508 506 514 434 c 1,22,-1
 376 431 l 1,23,24
 363 468 363 468 346 489.5 c 128,-1,25
 329 511 329 511 295 511 c 0,26,27
 249 511 249 511 222.5 474 c 128,-1,28
 196 437 196 437 196 369 c 0,29,30
 196 300 196 300 224.5 260 c 128,-1,31
 253 220 253 220 299 220 c 0,32,0
 333 220 333 220 351 243.5 c 128,-1,1
EndSplineSet
EndChar

StartChar: sterling
Encoding: 163 163 101
Width: 657
GlyphClass: 2
Flags: W
LayerCount: 2
Fore
SplineSet
18 140 m 1,0,-1
 50 140 l 2,1,2
 134 140 134 140 134 228 c 0,3,4
 134 250 134 250 131.5 275.5 c 128,-1,5
 129 301 129 301 124 336 c 1,6,-1
 22 336 l 1,7,-1
 22 427 l 1,8,-1
 105 427 l 1,9,-1
 97 521 l 2,10,11
 96 529 96 529 96 544 c 0,12,13
 96 604 96 604 128.5 646.5 c 128,-1,14
 161 689 161 689 215 711 c 128,-1,15
 269 733 269 733 332 733 c 0,16,17
 418 733 418 733 482.5 693 c 128,-1,18
 547 653 547 653 579 578 c 1,19,-1
 431 535 l 1,20,21
 416 570 416 570 400 585 c 128,-1,22
 384 600 384 600 358 600 c 0,23,24
 329 600 329 600 311.5 581 c 128,-1,25
 294 562 294 562 294 528 c 128,-1,26
 294 494 294 494 307 428 c 1,27,-1
 447 428 l 1,28,-1
 447 337 l 1,29,-1
 319 337 l 1,30,31
 321 305 321 305 321 294 c 0,32,33
 321 262 321 262 313 235 c 0,34,35
 307 204 307 204 294.5 184.5 c 128,-1,36
 282 165 282 165 255 141 c 1,37,-1
 372 141 l 2,38,39
 418 141 418 141 440 158 c 128,-1,40
 462 175 462 175 478 220 c 1,41,-1
 621 191 l 1,42,43
 572 0 572 0 386 0 c 2,44,-1
 18 0 l 1,45,-1
 18 140 l 1,0,-1
EndSplineSet
EndChar

StartChar: currency
Encoding: 164 164 102
Width: 591
GlyphClass: 2
Flags: W
LayerCount: 2
Fore
SplineSet
177 167 m 0,0,1
 171 169 171 169 169 169 c 0,2,3
 164 169 164 169 160 165 c 2,4,-1
 98 103 l 1,5,-1
 30 174 l 1,6,-1
 99 242 l 1,7,8
 80 271 80 271 71.5 299.5 c 128,-1,9
 63 328 63 328 63 363 c 0,10,11
 63 427 63 427 93 477 c 0,12,13
 96 482 96 482 96 485 c 128,-1,14
 96 488 96 488 91 493 c 2,15,-1
 30 555 l 1,16,-1
 98 626 l 1,17,-1
 168 555 l 1,18,19
 229 593 229 593 290 593 c 0,20,21
 353 593 353 593 410 559 c 0,22,23
 417 556 417 556 421 560 c 2,24,-1
 477 618 l 1,25,-1
 546 547 l 1,26,-1
 483 486 l 1,27,28
 520 429 520 429 520 364 c 0,29,30
 520 295 520 295 486 246 c 0,31,32
 484 241 484 241 486 239 c 2,33,-1
 546 181 l 1,34,-1
 477 111 l 1,35,-1
 416 173 l 1,36,37
 357 135 357 135 294 135 c 0,38,39
 229 135 229 135 177 167 c 0,0,1
377.5 279.5 m 128,-1,41
 412 315 412 315 412 364 c 0,42,43
 412 395 412 395 396.5 423 c 128,-1,44
 381 451 381 451 353.5 467.5 c 128,-1,45
 326 484 326 484 292 484 c 128,-1,46
 258 484 258 484 230.5 467.5 c 128,-1,47
 203 451 203 451 187 423 c 128,-1,48
 171 395 171 395 171 364 c 0,49,50
 171 332 171 332 187 304.5 c 128,-1,51
 203 277 203 277 230.5 260.5 c 128,-1,52
 258 244 258 244 292 244 c 0,53,40
 343 244 343 244 377.5 279.5 c 128,-1,41
EndSplineSet
EndChar

StartChar: yen
Encoding: 165 165 103
Width: 675
GlyphClass: 2
Flags: W
LayerCount: 2
Fore
SplineSet
458 353 m 1,0,-1
 585 353 l 1,1,-1
 585 263 l 1,2,-1
 437 263 l 1,3,-1
 437 191 l 1,4,-1
 585 191 l 1,5,-1
 585 103 l 1,6,-1
 437 103 l 1,7,-1
 437 0 l 1,8,-1
 243 0 l 1,9,-1
 243 103 l 1,10,-1
 96 103 l 1,11,-1
 96 191 l 1,12,-1
 243 191 l 1,13,-1
 243 263 l 1,14,-1
 96 263 l 1,15,-1
 96 352 l 1,16,-1
 212 352 l 1,17,-1
 -14 723 l 1,18,-1
 207 723 l 1,19,-1
 359 452 l 1,20,-1
 509 723 l 1,21,-1
 687 723 l 1,22,-1
 458 353 l 1,0,-1
EndSplineSet
EndChar

StartChar: brokenbar
Encoding: 166 166 104
Width: 266
GlyphClass: 2
Flags: W
LayerCount: 2
Fore
SplineSet
72 415 m 1,0,-1
 72 826 l 1,1,-1
 194 826 l 1,2,-1
 194 415 l 1,3,-1
 72 415 l 1,0,-1
72 -161 m 1,4,-1
 72 250 l 1,5,-1
 194 250 l 1,6,-1
 194 -161 l 1,7,-1
 72 -161 l 1,4,-1
EndSplineSet
EndChar

StartChar: section
Encoding: 167 167 105
Width: 517
GlyphClass: 2
Flags: W
LayerCount: 2
Fore
SplineSet
107 -46.5 m 128,-1,1
 44 -13 44 -13 21 36 c 1,2,-1
 124 87 l 1,3,4
 148 56 148 56 178 38 c 128,-1,5
 208 20 208 20 254 20 c 0,6,7
 291 20 291 20 312.5 32 c 128,-1,8
 334 44 334 44 334 67 c 0,9,10
 334 85 334 85 318.5 99.5 c 128,-1,11
 303 114 303 114 264 128 c 2,12,-1
 192 155 l 2,13,14
 106 187 106 187 68.5 224.5 c 128,-1,15
 31 262 31 262 31 321 c 0,16,17
 31 366 31 366 53 399.5 c 128,-1,18
 75 433 75 433 114 453 c 1,19,20
 74 478 74 478 56.5 507 c 128,-1,21
 39 536 39 536 39 572 c 0,22,23
 39 618 39 618 64.5 654.5 c 128,-1,24
 90 691 90 691 137.5 712 c 128,-1,25
 185 733 185 733 248 733 c 0,26,27
 324 733 324 733 383 700 c 128,-1,28
 442 667 442 667 465 620 c 1,29,-1
 362 570 l 1,30,31
 334 600 334 600 309.5 616 c 128,-1,32
 285 632 285 632 252 632 c 0,33,34
 223 632 223 632 206 620.5 c 128,-1,35
 189 609 189 609 189 589 c 0,36,37
 189 563 189 563 236 545 c 2,38,-1
 311 517 l 2,39,40
 400 483 400 483 438 445 c 128,-1,41
 476 407 476 407 476 347 c 0,42,43
 476 263 476 263 398 216 c 1,44,45
 443 191 443 191 463 161.5 c 128,-1,46
 483 132 483 132 483 90 c 0,47,48
 483 13 483 13 424.5 -33.5 c 128,-1,49
 366 -80 366 -80 258 -80 c 0,50,0
 170 -80 170 -80 107 -46.5 c 128,-1,1
324 278.5 m 128,-1,52
 339 293 339 293 339 316 c 0,53,54
 339 338 339 338 322.5 354.5 c 128,-1,55
 306 371 306 371 267 386 c 2,56,-1
 227 401 l 1,57,58
 198 399 198 399 182.5 383.5 c 128,-1,59
 167 368 167 368 167 346 c 0,60,61
 167 326 167 326 181 314 c 128,-1,62
 195 302 195 302 240 285 c 2,63,-1
 285 267 l 1,64,51
 309 264 309 264 324 278.5 c 128,-1,52
EndSplineSet
EndChar

StartChar: dieresis
Encoding: 168 168 106
Width: 402
GlyphClass: 2
Flags: W
LayerCount: 2
Fore
SplineSet
163 591 m 1,0,-1
 16 591 l 1,1,-1
 16 723 l 1,2,-1
 163 723 l 1,3,-1
 163 591 l 1,0,-1
378 591 m 1,4,-1
 230 591 l 1,5,-1
 230 723 l 1,6,-1
 378 723 l 1,7,-1
 378 591 l 1,4,-1
EndSplineSet
EndChar

StartChar: copyright
Encoding: 169 169 107
Width: 829
GlyphClass: 2
Flags: W
LayerCount: 2
Fore
SplineSet
224 40 m 128,-1,1
 139 90 139 90 89 175 c 128,-1,2
 39 260 39 260 39 362 c 0,3,4
 39 462 39 462 89 547.5 c 128,-1,5
 139 633 139 633 224 683 c 128,-1,6
 309 733 309 733 410 733 c 128,-1,7
 511 733 511 733 596.5 683 c 128,-1,8
 682 633 682 633 732 547.5 c 128,-1,9
 782 462 782 462 782 362 c 0,10,11
 782 260 782 260 732 175 c 128,-1,12
 682 90 682 90 596.5 40 c 128,-1,13
 511 -10 511 -10 410 -10 c 128,-1,0
 309 -10 309 -10 224 40 c 128,-1,1
552 114.5 m 128,-1,15
 614 149 614 149 648.5 213 c 128,-1,16
 683 277 683 277 683 362 c 0,17,18
 683 446 683 446 648.5 510 c 128,-1,19
 614 574 614 574 552 609.5 c 128,-1,20
 490 645 490 645 410 645 c 0,21,22
 329 645 329 645 267.5 609.5 c 128,-1,23
 206 574 206 574 172 510 c 128,-1,24
 138 446 138 446 138 362 c 0,25,26
 138 277 138 277 172 213 c 128,-1,27
 206 149 206 149 267.5 114.5 c 128,-1,28
 329 80 329 80 410 80 c 0,29,14
 490 80 490 80 552 114.5 c 128,-1,15
531.5 528.5 m 128,-1,31
 578 487 578 487 592 432 c 1,32,-1
 476 423 l 1,33,34
 468 451 468 451 455 468 c 128,-1,35
 442 485 442 485 417 485 c 0,36,37
 383 485 383 485 363.5 455 c 128,-1,38
 344 425 344 425 344 364 c 0,39,40
 344 242 344 242 424 242 c 0,41,42
 455 242 455 242 473.5 259 c 128,-1,43
 492 276 492 276 509 309 c 1,44,-1
 591 291 l 1,45,46
 584 263 584 263 563 232.5 c 128,-1,47
 542 202 542 202 504 179.5 c 128,-1,48
 466 157 466 157 413 157 c 0,49,50
 355 157 355 157 308.5 183 c 128,-1,51
 262 209 262 209 236 255.5 c 128,-1,52
 210 302 210 302 210 362 c 0,53,54
 210 423 210 423 236 470.5 c 128,-1,55
 262 518 262 518 308.5 544 c 128,-1,56
 355 570 355 570 413 570 c 0,57,30
 485 570 485 570 531.5 528.5 c 128,-1,31
EndSplineSet
EndChar

StartChar: ordfeminine
Encoding: 170 170 108
Width: 410
GlyphClass: 2
Flags: W
LayerCount: 2
Fore
SplineSet
58 423 m 128,-1,1
 30 448 30 448 30 490 c 0,2,3
 30 539 30 539 77 570.5 c 128,-1,4
 124 602 124 602 204 603 c 2,5,-1
 235 604 l 1,6,-1
 235 625 l 2,7,8
 235 648 235 648 222 657 c 128,-1,9
 209 666 209 666 191 666 c 0,10,11
 148 666 148 666 132 626 c 1,12,-1
 38 645 l 1,13,14
 59 690 59 690 93.5 711.5 c 128,-1,15
 128 733 128 733 194 733 c 0,16,17
 272 732 272 732 305 706.5 c 128,-1,18
 338 681 338 681 338 631 c 2,19,-1
 338 502 l 2,20,21
 338 447 338 447 342 430 c 2,22,-1
 349 404 l 1,23,-1
 242 404 l 1,24,-1
 235 435 l 1,25,26
 207 415 207 415 186 406.5 c 128,-1,27
 165 398 165 398 137 398 c 0,28,0
 86 398 86 398 58 423 c 128,-1,1
222 478 m 0,29,30
 235 489 235 489 235 502 c 2,31,-1
 235 548 l 1,32,-1
 209 548 l 2,33,34
 176 546 176 546 156 532.5 c 128,-1,35
 136 519 136 519 136 497 c 0,36,37
 136 482 136 482 147.5 472.5 c 128,-1,38
 159 463 159 463 180 463 c 0,39,40
 205 463 205 463 222 478 c 0,29,30
EndSplineSet
EndChar

StartChar: guillemotleft
Encoding: 171 171 109
Width: 510
GlyphClass: 2
Flags: W
LayerCount: 2
Fore
SplineSet
252 62 m 1,0,-1
 163 62 l 1,1,-1
 50 251 l 1,2,-1
 162 448 l 1,3,-1
 252 448 l 1,4,-1
 179 251 l 1,5,-1
 252 62 l 1,0,-1
448 62 m 1,6,-1
 360 62 l 1,7,-1
 246 251 l 1,8,-1
 359 448 l 1,9,-1
 449 448 l 1,10,-1
 376 251 l 1,11,-1
 448 62 l 1,6,-1
EndSplineSet
EndChar

StartChar: logicalnot
Encoding: 172 172 110
Width: 595
GlyphClass: 2
Flags: W
LayerCount: 2
Fore
SplineSet
540 425 m 1,0,-1
 540 148 l 1,1,-1
 403 148 l 1,2,-1
 403 303 l 1,3,-1
 49 303 l 1,4,-1
 49 425 l 1,5,-1
 540 425 l 1,0,-1
EndSplineSet
EndChar

StartChar: uni00AD
Encoding: 173 173 111
Width: 393
GlyphClass: 2
Flags: W
LayerCount: 2
Fore
SplineSet
351 196 m 1,0,-1
 70 196 l 1,1,-1
 70 318 l 1,2,-1
 351 318 l 1,3,-1
 351 196 l 1,0,-1
EndSplineSet
EndChar

StartChar: registered
Encoding: 174 174 112
Width: 551
GlyphClass: 2
Flags: W
LayerCount: 2
Fore
SplineSet
154.5 299 m 128,-1,1
 101 330 101 330 70 383 c 128,-1,2
 39 436 39 436 39 500 c 128,-1,3
 39 564 39 564 70 617 c 128,-1,4
 101 670 101 670 154.5 701.5 c 128,-1,5
 208 733 208 733 272 733 c 0,6,7
 335 733 335 733 388.5 701.5 c 128,-1,8
 442 670 442 670 473 616.5 c 128,-1,9
 504 563 504 563 504 500 c 128,-1,10
 504 437 504 437 473 383.5 c 128,-1,11
 442 330 442 330 388.5 299 c 128,-1,12
 335 268 335 268 272 268 c 0,13,0
 208 268 208 268 154.5 299 c 128,-1,1
390 378 m 128,-1,15
 434 424 434 424 434 500 c 0,16,17
 434 577 434 577 389.5 623 c 128,-1,18
 345 669 345 669 272 669 c 0,19,20
 197 669 197 669 153 623 c 128,-1,21
 109 577 109 577 109 500 c 128,-1,22
 109 423 109 423 153 377.5 c 128,-1,23
 197 332 197 332 272 332 c 0,24,14
 346 332 346 332 390 378 c 128,-1,15
176 614 m 1,25,-1
 286 614 l 2,26,27
 329 614 329 614 353 597.5 c 128,-1,28
 377 581 377 581 377 551 c 0,29,30
 377 530 377 530 364.5 514 c 128,-1,31
 352 498 352 498 332 489 c 1,32,-1
 377 384 l 1,33,-1
 308 384 l 1,34,-1
 274 482 l 1,35,-1
 240 482 l 1,36,-1
 240 384 l 1,37,-1
 176 384 l 1,38,-1
 176 614 l 1,25,-1
284 525 m 2,39,40
 296 525 296 525 303.5 531.5 c 128,-1,41
 311 538 311 538 311 548 c 0,42,43
 311 559 311 559 303 565 c 128,-1,44
 295 571 295 571 281 571 c 2,45,-1
 240 571 l 1,46,-1
 240 525 l 1,47,-1
 284 525 l 2,39,40
EndSplineSet
EndChar

StartChar: macron
Encoding: 175 175 113
Width: 416
GlyphClass: 2
Flags: W
LayerCount: 2
Fore
SplineSet
392 614 m 1,0,-1
 16 614 l 1,1,-1
 16 720 l 1,2,-1
 392 720 l 1,3,-1
 392 614 l 1,0,-1
EndSplineSet
EndChar

StartChar: degree
Encoding: 176 176 114
Width: 472
GlyphClass: 2
Flags: W
LayerCount: 2
Fore
SplineSet
381.5 574 m 128,-1,1
 359 535 359 535 320 513 c 128,-1,2
 281 491 281 491 232 491 c 128,-1,3
 183 491 183 491 144 513 c 128,-1,4
 105 535 105 535 82.5 574 c 128,-1,5
 60 613 60 613 60 663 c 0,6,7
 60 712 60 712 82.5 751.5 c 128,-1,8
 105 791 105 791 144 813.5 c 128,-1,9
 183 836 183 836 232 836 c 0,10,11
 280 836 280 836 319.5 813.5 c 128,-1,12
 359 791 359 791 381.5 751.5 c 128,-1,13
 404 712 404 712 404 663 c 0,14,0
 404 613 404 613 381.5 574 c 128,-1,1
285.5 718.5 m 128,-1,16
 265 740 265 740 230 740 c 0,17,18
 196 740 196 740 175.5 719 c 128,-1,19
 155 698 155 698 155 664 c 0,20,21
 155 628 155 628 175.5 605.5 c 128,-1,22
 196 583 196 583 231 583 c 0,23,24
 265 583 265 583 285.5 605 c 128,-1,25
 306 627 306 627 306 662 c 128,-1,15
 306 697 306 697 285.5 718.5 c 128,-1,16
EndSplineSet
EndChar

StartChar: plusminus
Encoding: 177 177 115
Width: 595
GlyphClass: 2
Flags: W
LayerCount: 2
Fore
SplineSet
540 514 m 1,0,-1
 540 392 l 1,1,-1
 356 392 l 1,2,-1
 356 208 l 1,3,-1
 234 208 l 1,4,-1
 234 392 l 1,5,-1
 49 392 l 1,6,-1
 49 514 l 1,7,-1
 234 514 l 1,8,-1
 234 699 l 1,9,-1
 356 699 l 1,10,-1
 356 514 l 1,11,-1
 540 514 l 1,0,-1
49 147 m 1,12,-1
 540 147 l 1,13,-1
 540 25 l 1,14,-1
 49 25 l 1,15,-1
 49 147 l 1,12,-1
EndSplineSet
EndChar

StartChar: uni00B2
Encoding: 178 178 116
Width: 389
GlyphClass: 2
Flags: W
LayerCount: 2
Fore
SplineSet
11 461 m 1,0,-1
 152 583 l 2,1,2
 195 620 195 620 214.5 639 c 128,-1,3
 234 658 234 658 241.5 672 c 128,-1,4
 249 686 249 686 249 703 c 0,5,6
 249 728 249 728 231.5 743 c 128,-1,7
 214 758 214 758 187 758 c 0,8,9
 158 758 158 758 136 741.5 c 128,-1,10
 114 725 114 725 105 690 c 1,11,-1
 5 693 l 1,12,13
 10 762 10 762 57 803.5 c 128,-1,14
 104 845 104 845 189 845 c 0,15,16
 268 845 268 845 314 806.5 c 128,-1,17
 360 768 360 768 360 704 c 0,18,19
 360 669 360 669 343 641.5 c 128,-1,20
 326 614 326 614 281 572 c 2,21,-1
 175 473 l 1,22,-1
 365 473 l 1,23,-1
 365 384 l 1,24,-1
 11 384 l 1,25,-1
 11 461 l 1,0,-1
EndSplineSet
EndChar

StartChar: uni00B3
Encoding: 179 179 117
Width: 404
GlyphClass: 2
Flags: W
LayerCount: 2
Fore
SplineSet
77 813 m 128,-1,1
 133 845 133 845 216 845 c 0,2,3
 292 845 292 845 343.5 811.5 c 128,-1,4
 395 778 395 778 395 725 c 0,5,6
 395 656 395 656 313 627 c 1,7,8
 353 617 353 617 381 589 c 128,-1,9
 409 561 409 561 409 517 c 0,10,11
 409 474 409 474 380.5 442.5 c 128,-1,12
 352 411 352 411 307 394.5 c 128,-1,13
 262 378 262 378 215 378 c 0,14,15
 122 378 122 378 71 409 c 128,-1,16
 20 440 20 440 15 519 c 1,17,-1
 116 522 l 1,18,19
 125 490 125 490 150.5 476.5 c 128,-1,20
 176 463 176 463 207 463 c 0,21,22
 244 463 244 463 267 478.5 c 128,-1,23
 290 494 290 494 290 517 c 0,24,25
 290 541 290 541 269 557.5 c 128,-1,26
 248 574 248 574 216 575 c 2,27,-1
 154 575 l 1,28,-1
 154 659 l 1,29,-1
 208 661 l 2,30,31
 240 662 240 662 260.5 678 c 128,-1,32
 281 694 281 694 281 716 c 0,33,34
 281 736 281 736 260 749.5 c 128,-1,35
 239 763 239 763 213 763 c 0,36,37
 175 763 175 763 150 751 c 128,-1,38
 125 739 125 739 118 704 c 1,39,-1
 18 707 l 1,40,0
 21 781 21 781 77 813 c 128,-1,1
EndSplineSet
EndChar

StartChar: acute
Encoding: 180 180 118
Width: 324
GlyphClass: 2
Flags: W
LayerCount: 2
Fore
SplineSet
307 628 m 1,0,-1
 36 560 l 1,1,-1
 12 630 l 1,2,-1
 270 734 l 1,3,-1
 307 628 l 1,0,-1
EndSplineSet
EndChar

StartChar: paragraph
Encoding: 182 182 119
Width: 623
GlyphClass: 2
Flags: W
LayerCount: 2
Fore
SplineSet
499 629 m 1,0,-1
 499 -83 l 1,1,-1
 397 -83 l 1,2,-1
 397 629 l 1,3,-1
 335 629 l 1,4,-1
 335 -83 l 1,5,-1
 233 -83 l 1,6,-1
 233 299 l 1,7,8
 145 308 145 308 87.5 362 c 128,-1,9
 30 416 30 416 30 510 c 0,10,11
 30 570 30 570 57.5 618.5 c 128,-1,12
 85 667 85 667 138 695 c 128,-1,13
 191 723 191 723 264 723 c 2,14,-1
 562 723 l 1,15,-1
 562 629 l 1,16,-1
 499 629 l 1,0,-1
EndSplineSet
EndChar

StartChar: periodcentered
Encoding: 183 183 120
Width: 280
GlyphClass: 2
Flags: W
LayerCount: 2
Fore
SplineSet
217 285 m 1,0,-1
 52 285 l 1,1,-1
 52 444 l 1,2,-1
 217 444 l 1,3,-1
 217 285 l 1,0,-1
EndSplineSet
EndChar

StartChar: cedilla
Encoding: 184 184 121
Width: 286
GlyphClass: 2
Flags: W
LayerCount: 2
Fore
SplineSet
225.5 -193 m 128,-1,1
 189 -216 189 -216 137 -216 c 0,2,3
 59 -216 59 -216 13 -188 c 1,4,-1
 35 -134 l 1,5,6
 79 -159 79 -159 116 -159 c 0,7,8
 138 -159 138 -159 151 -151.5 c 128,-1,9
 164 -144 164 -144 164 -131 c 0,10,11
 164 -111 164 -111 144 -101 c 128,-1,12
 124 -91 124 -91 77 -91 c 0,13,14
 70 -91 70 -91 67.5 -89 c 128,-1,15
 65 -87 65 -87 68 -80 c 2,16,-1
 105 5 l 1,17,-1
 177 5 l 1,18,-1
 155 -53 l 1,19,20
 209 -54 209 -54 235.5 -78 c 128,-1,21
 262 -102 262 -102 262 -133 c 0,22,0
 262 -170 262 -170 225.5 -193 c 128,-1,1
EndSplineSet
EndChar

StartChar: uni00B9
Encoding: 185 185 122
Width: 306
GlyphClass: 2
Flags: W
LayerCount: 2
Fore
SplineSet
70 717 m 1,0,-1
 -8 697 l 1,1,-1
 -8 769 l 1,2,-1
 124 835 l 1,3,-1
 179 835 l 1,4,-1
 179 380 l 1,5,-1
 70 380 l 1,6,-1
 70 717 l 1,0,-1
EndSplineSet
EndChar

StartChar: ordmasculine
Encoding: 186 186 123
Width: 394
GlyphClass: 2
Flags: W
LayerCount: 2
Fore
SplineSet
317.5 685.5 m 128,-1,1
 364 638 364 638 364 564 c 0,2,3
 364 491 364 491 317.5 444.5 c 128,-1,4
 271 398 271 398 196 398 c 0,5,6
 122 398 122 398 76 444.5 c 128,-1,7
 30 491 30 491 30 564 c 0,8,9
 30 614 30 614 51.5 652 c 128,-1,10
 73 690 73 690 111 711.5 c 128,-1,11
 149 733 149 733 196 733 c 0,12,0
 271 733 271 733 317.5 685.5 c 128,-1,1
153.5 639 m 128,-1,14
 140 615 140 615 140 566 c 128,-1,15
 140 517 140 517 153.5 493 c 128,-1,16
 167 469 167 469 196 469 c 0,17,18
 254 469 254 469 254 566 c 128,-1,19
 254 663 254 663 196 663 c 0,20,13
 167 663 167 663 153.5 639 c 128,-1,14
EndSplineSet
EndChar

StartChar: guillemotright
Encoding: 187 187 124
Width: 510
GlyphClass: 2
Flags: W
LayerCount: 2
Fore
SplineSet
54 448 m 1,0,-1
 144 448 l 1,1,-1
 256 251 l 1,2,-1
 143 62 l 1,3,-1
 54 62 l 1,4,-1
 127 251 l 1,5,-1
 54 448 l 1,0,-1
250 448 m 1,6,-1
 340 448 l 1,7,-1
 452 251 l 1,8,-1
 340 62 l 1,9,-1
 250 62 l 1,10,-1
 324 251 l 1,11,-1
 250 448 l 1,6,-1
EndSplineSet
EndChar

StartChar: onequarter
Encoding: 188 188 125
Width: 980
GlyphClass: 2
Flags: W
LayerCount: 2
Fore
SplineSet
70 613 m 1,0,-1
 -8 593 l 1,1,-1
 -8 665 l 1,2,-1
 124 731 l 1,3,-1
 179 731 l 1,4,-1
 179 276 l 1,5,-1
 70 276 l 1,6,-1
 70 613 l 1,0,-1
231 -4 m 1,7,-1
 135 -2 l 1,8,-1
 623 731 l 1,9,-1
 717 731 l 1,10,-1
 231 -4 l 1,7,-1
876 455 m 1,11,-1
 876 185 l 1,12,-1
 943 185 l 1,13,-1
 943 94 l 1,14,-1
 876 94 l 1,15,-1
 876 0 l 1,16,-1
 768 0 l 1,17,-1
 769 94 l 1,18,-1
 567 94 l 1,19,-1
 567 182 l 1,20,-1
 770 455 l 1,21,-1
 876 455 l 1,11,-1
770 185 m 1,22,-1
 770 308 l 1,23,-1
 679 185 l 1,24,-1
 770 185 l 1,22,-1
EndSplineSet
EndChar

StartChar: onehalf
Encoding: 189 189 126
Width: 949
GlyphClass: 2
Flags: W
LayerCount: 2
Fore
SplineSet
70 613 m 1,0,-1
 -8 593 l 1,1,-1
 -8 665 l 1,2,-1
 124 731 l 1,3,-1
 179 731 l 1,4,-1
 179 276 l 1,5,-1
 70 276 l 1,6,-1
 70 613 l 1,0,-1
231 -4 m 1,7,-1
 135 -2 l 1,8,-1
 623 731 l 1,9,-1
 717 731 l 1,10,-1
 231 -4 l 1,7,-1
571 77 m 1,11,-1
 712 199 l 2,12,13
 755 235 755 235 774.5 254.5 c 128,-1,14
 794 274 794 274 801.5 288 c 128,-1,15
 809 302 809 302 809 319 c 0,16,17
 809 344 809 344 791.5 359 c 128,-1,18
 774 374 774 374 747 374 c 0,19,20
 718 374 718 374 696 358 c 128,-1,21
 674 342 674 342 665 306 c 1,22,-1
 565 309 l 1,23,24
 569 378 569 378 616 419.5 c 128,-1,25
 663 461 663 461 749 461 c 0,26,27
 802 461 802 461 840.5 443.5 c 128,-1,28
 879 426 879 426 899.5 394 c 128,-1,29
 920 362 920 362 920 320 c 0,30,31
 920 285 920 285 903 258 c 128,-1,32
 886 231 886 231 841 188 c 2,33,-1
 735 89 l 1,34,-1
 925 89 l 1,35,-1
 925 0 l 1,36,-1
 571 0 l 1,37,-1
 571 77 l 1,11,-1
EndSplineSet
EndChar

StartChar: threequarters
Encoding: 190 190 127
Width: 1078
GlyphClass: 2
Flags: W
LayerCount: 2
Fore
SplineSet
77 708 m 128,-1,1
 133 740 133 740 216 740 c 0,2,3
 292 740 292 740 343.5 706.5 c 128,-1,4
 395 673 395 673 395 620 c 0,5,6
 395 551 395 551 313 522 c 1,7,8
 353 512 353 512 381 484 c 128,-1,9
 409 456 409 456 409 412 c 0,10,11
 409 369 409 369 380.5 337.5 c 128,-1,12
 352 306 352 306 307 289.5 c 128,-1,13
 262 273 262 273 215 273 c 0,14,15
 122 273 122 273 71 304 c 128,-1,16
 20 335 20 335 15 414 c 1,17,-1
 116 417 l 1,18,19
 125 385 125 385 150.5 371.5 c 128,-1,20
 176 358 176 358 207 358 c 0,21,22
 244 358 244 358 267 373.5 c 128,-1,23
 290 389 290 389 290 412 c 0,24,25
 290 436 290 436 269 452.5 c 128,-1,26
 248 469 248 469 216 470 c 2,27,-1
 154 470 l 1,28,-1
 154 554 l 1,29,-1
 208 556 l 2,30,31
 240 557 240 557 260.5 573 c 128,-1,32
 281 589 281 589 281 611 c 0,33,34
 281 631 281 631 260 644.5 c 128,-1,35
 239 658 239 658 213 658 c 0,36,37
 175 658 175 658 150 646 c 128,-1,38
 125 634 125 634 118 599 c 1,39,-1
 18 602 l 1,40,0
 21 676 21 676 77 708 c 128,-1,1
329 -4 m 1,41,-1
 233 -2 l 1,42,-1
 721 731 l 1,43,-1
 815 731 l 1,44,-1
 329 -4 l 1,41,-1
974 455 m 1,45,-1
 974 185 l 1,46,-1
 1041 185 l 1,47,-1
 1041 94 l 1,48,-1
 974 94 l 1,49,-1
 974 0 l 1,50,-1
 866 0 l 1,51,-1
 867 94 l 1,52,-1
 665 94 l 1,53,-1
 665 182 l 1,54,-1
 868 455 l 1,55,-1
 974 455 l 1,45,-1
868 185 m 1,56,-1
 868 308 l 1,57,-1
 777 185 l 1,58,-1
 868 185 l 1,56,-1
EndSplineSet
EndChar

StartChar: questiondown
Encoding: 191 191 128
Width: 550
GlyphClass: 2
Flags: W
LayerCount: 2
Fore
SplineSet
197 517 m 1,0,-1
 380 517 l 1,1,-1
 380 343 l 1,2,-1
 197 343 l 1,3,-1
 197 517 l 1,0,-1
439 -126 m 128,-1,5
 372 -171 372 -171 276 -171 c 0,6,7
 197 -171 197 -171 141.5 -148 c 128,-1,8
 86 -125 86 -125 58.5 -86.5 c 128,-1,9
 31 -48 31 -48 31 -1 c 0,10,11
 31 39 31 39 45.5 68 c 128,-1,12
 60 97 60 97 80.5 116.5 c 128,-1,13
 101 136 101 136 135 161 c 0,14,15
 179 194 179 194 199.5 218.5 c 128,-1,16
 220 243 220 243 220 281 c 1,17,-1
 355 281 l 1,18,19
 355 239 355 239 341.5 207 c 128,-1,20
 328 175 328 175 309 153 c 128,-1,21
 290 131 290 131 260 103 c 0,22,23
 228 74 228 74 213 54 c 128,-1,24
 198 34 198 34 198 8 c 0,25,26
 198 -19 198 -19 221 -36 c 128,-1,27
 244 -53 244 -53 277 -53 c 0,28,29
 314 -53 314 -53 346.5 -29 c 128,-1,30
 379 -5 379 -5 395 35 c 1,31,-1
 538 3 l 1,32,4
 506 -81 506 -81 439 -126 c 128,-1,5
EndSplineSet
EndChar

StartChar: Agrave
Encoding: 192 192 129
Width: 718
GlyphClass: 2
Flags: W
AnchorPoint: "Anchor-5" 0 0 basechar 0
AnchorPoint: "Anchor-4" 0 0 basechar 0
AnchorPoint: "Anchor-3" 372 723 basechar 0
AnchorPoint: "Anchor-2" 705 9 basechar 0
LayerCount: 2
Fore
SplineSet
271 723 m 1,0,-1
 448 723 l 1,1,-1
 705 0 l 1,2,-1
 536 0 l 1,3,-1
 483 154 l 1,4,-1
 239 154 l 1,5,-1
 184 0 l 1,6,-1
 14 0 l 1,7,-1
 271 723 l 1,0,-1
443 301 m 1,8,-1
 360 560 l 1,9,-1
 275 301 l 1,10,-1
 443 301 l 1,8,-1
515 836 m 1,11,-1
 492 766 l 1,12,-1
 221 834 l 1,13,-1
 258 940 l 1,14,-1
 515 836 l 1,11,-1
EndSplineSet
EndChar

StartChar: Aacute
Encoding: 193 193 130
Width: 718
GlyphClass: 2
Flags: W
AnchorPoint: "Anchor-5" 0 0 basechar 0
AnchorPoint: "Anchor-4" 0 0 basechar 0
AnchorPoint: "Anchor-3" 372 723 basechar 0
AnchorPoint: "Anchor-2" 705 9 basechar 0
LayerCount: 2
Fore
SplineSet
271 723 m 1,0,-1
 448 723 l 1,1,-1
 705 0 l 1,2,-1
 536 0 l 1,3,-1
 483 154 l 1,4,-1
 239 154 l 1,5,-1
 184 0 l 1,6,-1
 14 0 l 1,7,-1
 271 723 l 1,0,-1
443 301 m 1,8,-1
 360 560 l 1,9,-1
 275 301 l 1,10,-1
 443 301 l 1,8,-1
521 834 m 1,11,-1
 250 766 l 1,12,-1
 226 836 l 1,13,-1
 484 940 l 1,14,-1
 521 834 l 1,11,-1
EndSplineSet
EndChar

StartChar: Acircumflex
Encoding: 194 194 131
Width: 718
GlyphClass: 2
Flags: W
AnchorPoint: "Anchor-5" 0 0 basechar 0
AnchorPoint: "Anchor-4" 0 0 basechar 0
AnchorPoint: "Anchor-3" 372 723 basechar 0
AnchorPoint: "Anchor-2" 705 9 basechar 0
LayerCount: 2
Fore
SplineSet
271 723 m 1,0,-1
 448 723 l 1,1,-1
 705 0 l 1,2,-1
 536 0 l 1,3,-1
 483 154 l 1,4,-1
 239 154 l 1,5,-1
 184 0 l 1,6,-1
 14 0 l 1,7,-1
 271 723 l 1,0,-1
443 301 m 1,8,-1
 360 560 l 1,9,-1
 275 301 l 1,10,-1
 443 301 l 1,8,-1
371 872 m 1,11,-1
 299 794 l 1,12,-1
 179 794 l 1,13,-1
 314 937 l 1,14,-1
 430 937 l 1,15,-1
 562 794 l 1,16,-1
 435 794 l 1,17,-1
 371 872 l 1,11,-1
EndSplineSet
EndChar

StartChar: Atilde
Encoding: 195 195 132
Width: 718
GlyphClass: 2
Flags: W
AnchorPoint: "Anchor-5" 0 0 basechar 0
AnchorPoint: "Anchor-4" 0 0 basechar 0
AnchorPoint: "Anchor-3" 372 723 basechar 0
AnchorPoint: "Anchor-2" 705 9 basechar 0
LayerCount: 2
Fore
SplineSet
271 723 m 1,0,-1
 448 723 l 1,1,-1
 705 0 l 1,2,-1
 536 0 l 1,3,-1
 483 154 l 1,4,-1
 239 154 l 1,5,-1
 184 0 l 1,6,-1
 14 0 l 1,7,-1
 271 723 l 1,0,-1
443 301 m 1,8,-1
 360 560 l 1,9,-1
 275 301 l 1,10,-1
 443 301 l 1,8,-1
503 818 m 128,-1,12
 479 810 479 810 451 810 c 0,13,14
 432 810 432 810 416 813.5 c 128,-1,15
 400 817 400 817 373 825 c 0,16,17
 355 830 355 830 336 834.5 c 128,-1,18
 317 839 317 839 300 839 c 0,19,20
 280 839 280 839 265.5 833.5 c 128,-1,21
 251 828 251 828 233 815 c 0,22,23
 226 810 226 810 222 810 c 0,24,25
 216 810 216 810 212 822 c 2,26,-1
 198 869 l 2,27,28
 197 871 197 871 196 873.5 c 128,-1,29
 195 876 195 876 195 880 c 0,30,31
 195 886 195 886 205 896 c 0,32,33
 224 914 224 914 245 923.5 c 128,-1,34
 266 933 266 933 295 933 c 0,35,36
 315 933 315 933 334 929 c 128,-1,37
 353 925 353 925 382 916 c 0,38,39
 400 911 400 911 418 906.5 c 128,-1,40
 436 902 436 902 450 902 c 0,41,42
 486 902 486 902 521 927 c 0,43,44
 527 931 527 931 531 931 c 0,45,46
 540 931 540 931 543 920 c 2,47,-1
 555 863 l 2,48,49
 556 861 556 861 556 856 c 0,50,51
 556 847 556 847 543 837 c 0,52,11
 527 826 527 826 503 818 c 128,-1,12
EndSplineSet
EndChar

StartChar: Adieresis
Encoding: 196 196 133
Width: 718
GlyphClass: 2
Flags: W
AnchorPoint: "Anchor-5" 0 0 basechar 0
AnchorPoint: "Anchor-4" 0 0 basechar 0
AnchorPoint: "Anchor-3" 372 723 basechar 0
AnchorPoint: "Anchor-2" 705 9 basechar 0
LayerCount: 2
Fore
SplineSet
271 723 m 1,0,-1
 448 723 l 1,1,-1
 705 0 l 1,2,-1
 536 0 l 1,3,-1
 483 154 l 1,4,-1
 239 154 l 1,5,-1
 184 0 l 1,6,-1
 14 0 l 1,7,-1
 271 723 l 1,0,-1
443 301 m 1,8,-1
 360 560 l 1,9,-1
 275 301 l 1,10,-1
 443 301 l 1,8,-1
338 797 m 1,11,-1
 191 797 l 1,12,-1
 191 929 l 1,13,-1
 338 929 l 1,14,-1
 338 797 l 1,11,-1
553 797 m 1,15,-1
 405 797 l 1,16,-1
 405 929 l 1,17,-1
 553 929 l 1,18,-1
 553 797 l 1,15,-1
EndSplineSet
EndChar

StartChar: Aring
Encoding: 197 197 134
Width: 718
GlyphClass: 2
Flags: W
AnchorPoint: "Anchor-5" 0 0 basechar 0
AnchorPoint: "Anchor-4" 0 0 basechar 0
AnchorPoint: "Anchor-3" 372 723 basechar 0
AnchorPoint: "Anchor-2" 705 9 basechar 0
LayerCount: 2
Fore
SplineSet
271 723 m 1,0,-1
 448 723 l 1,1,-1
 705 0 l 1,2,-1
 536 0 l 1,3,-1
 483 154 l 1,4,-1
 239 154 l 1,5,-1
 184 0 l 1,6,-1
 14 0 l 1,7,-1
 271 723 l 1,0,-1
443 301 m 1,8,-1
 360 560 l 1,9,-1
 275 301 l 1,10,-1
 443 301 l 1,8,-1
451.5 801.5 m 128,-1,12
 419 769 419 769 372 769 c 0,13,14
 326 769 326 769 293.5 802 c 128,-1,15
 261 835 261 835 261 882 c 0,16,17
 261 927 261 927 293.5 958.5 c 128,-1,18
 326 990 326 990 372 990 c 0,19,20
 419 990 419 990 451.5 958 c 128,-1,21
 484 926 484 926 484 880 c 128,-1,11
 484 834 484 834 451.5 801.5 c 128,-1,12
405 913.5 m 128,-1,23
 391 927 391 927 371 927 c 128,-1,24
 351 927 351 927 336.5 913.5 c 128,-1,25
 322 900 322 900 322 879 c 0,26,27
 322 860 322 860 337 845 c 128,-1,28
 352 830 352 830 371 830 c 0,29,30
 391 830 391 830 405 845 c 128,-1,31
 419 860 419 860 419 879 c 0,32,22
 419 900 419 900 405 913.5 c 128,-1,23
EndSplineSet
EndChar

StartChar: AE
Encoding: 198 198 135
Width: 1089
GlyphClass: 2
Flags: W
AnchorPoint: "Anchor-5" 0 0 basechar 0
AnchorPoint: "Anchor-4" 0 0 basechar 0
AnchorPoint: "Anchor-3" 693 723 basechar 0
AnchorPoint: "Anchor-2" 0 0 basechar 0
LayerCount: 2
Fore
SplineSet
1035 0 m 1,0,-1
 489 0 l 1,1,-1
 489 154 l 1,2,-1
 263 154 l 1,3,-1
 184 0 l 1,4,-1
 14 0 l 1,5,-1
 395 723 l 1,6,-1
 1026 723 l 1,7,-1
 1025 583 l 1,8,-1
 684 583 l 1,9,-1
 684 433 l 1,10,-1
 907 433 l 1,11,-1
 907 295 l 1,12,-1
 684 295 l 1,13,-1
 684 141 l 1,14,-1
 1035 141 l 1,15,-1
 1035 0 l 1,0,-1
489 614 m 1,16,-1
 326 301 l 1,17,-1
 489 301 l 1,18,-1
 489 614 l 1,16,-1
EndSplineSet
EndChar

StartChar: Ccedilla
Encoding: 199 199 136
Width: 721
GlyphClass: 2
Flags: W
AnchorPoint: "Anchor-5" 0 0 basechar 0
AnchorPoint: "Anchor-4" 377 0 basechar 0
AnchorPoint: "Anchor-3" 377 723 basechar 0
AnchorPoint: "Anchor-2" 0 0 basechar 0
LayerCount: 2
Fore
SplineSet
525.5 700.5 m 128,-1,1
 592 668 592 668 632.5 610.5 c 128,-1,2
 673 553 673 553 681 479 c 1,3,-1
 503 478 l 1,4,5
 494 533 494 533 460 564 c 128,-1,6
 426 595 426 595 370 595 c 0,7,8
 226 595 226 595 226 367 c 0,9,10
 226 245 226 245 264 186.5 c 128,-1,11
 302 128 302 128 371 128 c 0,12,13
 423 128 423 128 458 164.5 c 128,-1,14
 493 201 493 201 502 257 c 1,15,-1
 680 255 l 1,16,17
 665 134 665 134 595.5 62 c 128,-1,18
 526 -10 526 -10 377 -10 c 0,19,20
 276 -10 276 -10 199.5 38 c 128,-1,21
 123 86 123 86 81.5 172 c 128,-1,22
 40 258 40 258 40 369 c 128,-1,23
 40 480 40 480 81 562 c 128,-1,24
 122 644 122 644 197.5 688.5 c 128,-1,25
 273 733 273 733 376 733 c 0,26,0
 459 733 459 733 525.5 700.5 c 128,-1,1
465.5 -193 m 128,-1,28
 429 -216 429 -216 377 -216 c 0,29,30
 299 -216 299 -216 253 -188 c 1,31,-1
 275 -134 l 1,32,33
 319 -159 319 -159 356 -159 c 0,34,35
 378 -159 378 -159 391 -151.5 c 128,-1,36
 404 -144 404 -144 404 -131 c 0,37,38
 404 -111 404 -111 384 -101 c 128,-1,39
 364 -91 364 -91 317 -91 c 0,40,41
 310 -91 310 -91 307.5 -89 c 128,-1,42
 305 -87 305 -87 308 -80 c 2,43,-1
 345 5 l 1,44,-1
 417 5 l 1,45,-1
 395 -53 l 1,46,47
 449 -54 449 -54 475.5 -78 c 128,-1,48
 502 -102 502 -102 502 -133 c 0,49,27
 502 -170 502 -170 465.5 -193 c 128,-1,28
EndSplineSet
EndChar

StartChar: Egrave
Encoding: 200 200 137
Width: 643
GlyphClass: 2
Flags: W
AnchorPoint: "Anchor-5" 0 0 basechar 0
AnchorPoint: "Anchor-4" 335 0 basechar 0
AnchorPoint: "Anchor-3" 332 723 basechar 0
AnchorPoint: "Anchor-2" 588 10 basechar 0
LayerCount: 2
Fore
SplineSet
72 723 m 1,0,-1
 587 723 l 1,1,-1
 586 581 l 1,2,-1
 243 581 l 1,3,-1
 243 433 l 1,4,-1
 536 433 l 1,5,-1
 536 294 l 1,6,-1
 242 294 l 1,7,-1
 242 143 l 1,8,-1
 590 143 l 1,9,-1
 590 0 l 1,10,-1
 72 0 l 1,11,-1
 72 723 l 1,0,-1
475 836 m 1,12,-1
 452 766 l 1,13,-1
 181 834 l 1,14,-1
 218 940 l 1,15,-1
 475 836 l 1,12,-1
EndSplineSet
EndChar

StartChar: Eacute
Encoding: 201 201 138
Width: 643
GlyphClass: 2
Flags: W
AnchorPoint: "Anchor-5" 0 0 basechar 0
AnchorPoint: "Anchor-4" 335 0 basechar 0
AnchorPoint: "Anchor-3" 332 723 basechar 0
AnchorPoint: "Anchor-2" 588 10 basechar 0
LayerCount: 2
Fore
SplineSet
72 723 m 1,0,-1
 587 723 l 1,1,-1
 586 581 l 1,2,-1
 243 581 l 1,3,-1
 243 433 l 1,4,-1
 536 433 l 1,5,-1
 536 294 l 1,6,-1
 242 294 l 1,7,-1
 242 143 l 1,8,-1
 590 143 l 1,9,-1
 590 0 l 1,10,-1
 72 0 l 1,11,-1
 72 723 l 1,0,-1
481 834 m 1,12,-1
 210 766 l 1,13,-1
 186 836 l 1,14,-1
 444 940 l 1,15,-1
 481 834 l 1,12,-1
EndSplineSet
EndChar

StartChar: Ecircumflex
Encoding: 202 202 139
Width: 643
GlyphClass: 2
Flags: W
AnchorPoint: "Anchor-5" 0 0 basechar 0
AnchorPoint: "Anchor-4" 335 0 basechar 0
AnchorPoint: "Anchor-3" 332 723 basechar 0
AnchorPoint: "Anchor-2" 588 10 basechar 0
LayerCount: 2
Fore
SplineSet
72 723 m 1,0,-1
 587 723 l 1,1,-1
 586 581 l 1,2,-1
 243 581 l 1,3,-1
 243 433 l 1,4,-1
 536 433 l 1,5,-1
 536 294 l 1,6,-1
 242 294 l 1,7,-1
 242 143 l 1,8,-1
 590 143 l 1,9,-1
 590 0 l 1,10,-1
 72 0 l 1,11,-1
 72 723 l 1,0,-1
331 872 m 1,12,-1
 259 794 l 1,13,-1
 139 794 l 1,14,-1
 274 937 l 1,15,-1
 390 937 l 1,16,-1
 522 794 l 1,17,-1
 395 794 l 1,18,-1
 331 872 l 1,12,-1
EndSplineSet
EndChar

StartChar: Edieresis
Encoding: 203 203 140
Width: 643
GlyphClass: 2
Flags: W
AnchorPoint: "Anchor-5" 0 0 basechar 0
AnchorPoint: "Anchor-4" 335 0 basechar 0
AnchorPoint: "Anchor-3" 332 723 basechar 0
AnchorPoint: "Anchor-2" 588 10 basechar 0
LayerCount: 2
Fore
SplineSet
72 723 m 1,0,-1
 587 723 l 1,1,-1
 586 581 l 1,2,-1
 243 581 l 1,3,-1
 243 433 l 1,4,-1
 536 433 l 1,5,-1
 536 294 l 1,6,-1
 242 294 l 1,7,-1
 242 143 l 1,8,-1
 590 143 l 1,9,-1
 590 0 l 1,10,-1
 72 0 l 1,11,-1
 72 723 l 1,0,-1
298 797 m 1,12,-1
 151 797 l 1,13,-1
 151 929 l 1,14,-1
 298 929 l 1,15,-1
 298 797 l 1,12,-1
513 797 m 1,16,-1
 365 797 l 1,17,-1
 365 929 l 1,18,-1
 513 929 l 1,19,-1
 513 797 l 1,16,-1
EndSplineSet
EndChar

StartChar: Igrave
Encoding: 204 204 141
Width: 314
GlyphClass: 2
Flags: W
AnchorPoint: "Anchor-5" 0 0 basechar 0
AnchorPoint: "Anchor-4" 166 0 basechar 0
AnchorPoint: "Anchor-3" 158 723 basechar 0
AnchorPoint: "Anchor-2" 221 4 basechar 0
LayerCount: 2
Fore
SplineSet
242 723 m 1,0,-1
 242 0 l 1,1,-1
 72 0 l 1,2,-1
 72 723 l 1,3,-1
 242 723 l 1,0,-1
301 836 m 1,4,-1
 278 766 l 1,5,-1
 7 834 l 1,6,-1
 44 940 l 1,7,-1
 301 836 l 1,4,-1
EndSplineSet
EndChar

StartChar: Iacute
Encoding: 205 205 142
Width: 314
GlyphClass: 2
Flags: W
AnchorPoint: "Anchor-5" 0 0 basechar 0
AnchorPoint: "Anchor-4" 166 0 basechar 0
AnchorPoint: "Anchor-3" 158 723 basechar 0
AnchorPoint: "Anchor-2" 221 4 basechar 0
LayerCount: 2
Fore
SplineSet
242 723 m 1,0,-1
 242 0 l 1,1,-1
 72 0 l 1,2,-1
 72 723 l 1,3,-1
 242 723 l 1,0,-1
307 834 m 1,4,-1
 36 766 l 1,5,-1
 12 836 l 1,6,-1
 270 940 l 1,7,-1
 307 834 l 1,4,-1
EndSplineSet
EndChar

StartChar: Icircumflex
Encoding: 206 206 143
Width: 314
GlyphClass: 2
Flags: W
AnchorPoint: "Anchor-5" 0 0 basechar 0
AnchorPoint: "Anchor-4" 166 0 basechar 0
AnchorPoint: "Anchor-3" 158 723 basechar 0
AnchorPoint: "Anchor-2" 221 4 basechar 0
LayerCount: 2
Fore
SplineSet
242 723 m 1,0,-1
 242 0 l 1,1,-1
 72 0 l 1,2,-1
 72 723 l 1,3,-1
 242 723 l 1,0,-1
157 872 m 1,4,-1
 85 794 l 1,5,-1
 -35 794 l 1,6,-1
 100 937 l 1,7,-1
 216 937 l 1,8,-1
 348 794 l 1,9,-1
 221 794 l 1,10,-1
 157 872 l 1,4,-1
EndSplineSet
EndChar

StartChar: Idieresis
Encoding: 207 207 144
Width: 314
GlyphClass: 2
Flags: W
AnchorPoint: "Anchor-5" 0 0 basechar 0
AnchorPoint: "Anchor-4" 166 0 basechar 0
AnchorPoint: "Anchor-3" 158 723 basechar 0
AnchorPoint: "Anchor-2" 221 4 basechar 0
LayerCount: 2
Fore
SplineSet
242 723 m 1,0,-1
 242 0 l 1,1,-1
 72 0 l 1,2,-1
 72 723 l 1,3,-1
 242 723 l 1,0,-1
124 797 m 1,4,-1
 -23 797 l 1,5,-1
 -23 929 l 1,6,-1
 124 929 l 1,7,-1
 124 797 l 1,4,-1
339 797 m 1,8,-1
 191 797 l 1,9,-1
 191 929 l 1,10,-1
 339 929 l 1,11,-1
 339 797 l 1,8,-1
EndSplineSet
EndChar

StartChar: Eth
Encoding: 208 208 145
Width: 752
GlyphClass: 2
Flags: W
AnchorPoint: "Anchor-5" 0 0 basechar 0
AnchorPoint: "Anchor-4" 0 0 basechar 0
AnchorPoint: "Anchor-3" 390 723 basechar 0
AnchorPoint: "Anchor-2" 0 0 basechar 0
LayerCount: 2
Fore
SplineSet
620 622 m 128,-1,1
 712 528 712 528 712 364 c 0,2,3
 712 195 712 195 617 97.5 c 128,-1,4
 522 0 522 0 335 0 c 2,5,-1
 100 0 l 1,6,-1
 100 295 l 1,7,-1
 54 295 l 2,8,9
 41 295 41 295 36 300 c 128,-1,10
 31 305 31 305 31 317 c 2,11,-1
 31 397 l 2,12,13
 31 417 31 417 48 417 c 2,14,-1
 100 417 l 1,15,-1
 100 723 l 1,16,-1
 202 723 l 2,17,18
 307 723 307 723 338 722 c 0,19,0
 528 716 528 716 620 622 c 128,-1,1
478 192 m 128,-1,21
 534 248 534 248 534 366 c 0,22,23
 534 477 534 477 482.5 532.5 c 128,-1,24
 431 588 431 588 340 588 c 2,25,-1
 271 588 l 1,26,-1
 271 417 l 1,27,-1
 397 417 l 2,28,29
 404 417 404 417 408.5 412.5 c 128,-1,30
 413 408 413 408 413 400 c 2,31,-1
 413 320 l 2,32,33
 413 306 413 306 406 300.5 c 128,-1,34
 399 295 399 295 384 295 c 2,35,-1
 271 295 l 1,36,-1
 271 136 l 1,37,-1
 339 136 l 2,38,20
 422 136 422 136 478 192 c 128,-1,21
EndSplineSet
EndChar

StartChar: Ntilde
Encoding: 209 209 146
Width: 790
GlyphClass: 2
Flags: W
AnchorPoint: "Anchor-5" 0 0 basechar 0
AnchorPoint: "Anchor-4" 391 0 basechar 0
AnchorPoint: "Anchor-3" 397 723 basechar 0
AnchorPoint: "Anchor-2" 0 0 basechar 0
LayerCount: 2
Fore
SplineSet
719 723 m 1,0,-1
 719 0 l 1,1,-1
 565 0 l 1,2,-1
 242 464 l 1,3,-1
 242 0 l 1,4,-1
 72 0 l 1,5,-1
 72 723 l 1,6,-1
 242 723 l 1,7,-1
 548 282 l 1,8,-1
 548 723 l 1,9,-1
 719 723 l 1,0,-1
528 818 m 128,-1,11
 504 810 504 810 476 810 c 0,12,13
 457 810 457 810 441 813.5 c 128,-1,14
 425 817 425 817 398 825 c 0,15,16
 380 830 380 830 361 834.5 c 128,-1,17
 342 839 342 839 325 839 c 0,18,19
 305 839 305 839 290.5 833.5 c 128,-1,20
 276 828 276 828 258 815 c 0,21,22
 251 810 251 810 247 810 c 0,23,24
 241 810 241 810 237 822 c 2,25,-1
 223 869 l 2,26,27
 222 871 222 871 221 873.5 c 128,-1,28
 220 876 220 876 220 880 c 0,29,30
 220 886 220 886 230 896 c 0,31,32
 249 914 249 914 270 923.5 c 128,-1,33
 291 933 291 933 320 933 c 0,34,35
 340 933 340 933 359 929 c 128,-1,36
 378 925 378 925 407 916 c 0,37,38
 425 911 425 911 443 906.5 c 128,-1,39
 461 902 461 902 475 902 c 0,40,41
 511 902 511 902 546 927 c 0,42,43
 552 931 552 931 556 931 c 0,44,45
 565 931 565 931 568 920 c 2,46,-1
 580 863 l 2,47,48
 581 861 581 861 581 856 c 0,49,50
 581 847 581 847 568 837 c 0,51,10
 552 826 552 826 528 818 c 128,-1,11
EndSplineSet
EndChar

StartChar: Ograve
Encoding: 210 210 147
Width: 762
GlyphClass: 2
Flags: W
AnchorPoint: "Anchor-5" 0 0 basechar 0
AnchorPoint: "Anchor-4" 383 0 basechar 0
AnchorPoint: "Anchor-3" 381 723 basechar 0
AnchorPoint: "Anchor-2" 469 10 basechar 0
LayerCount: 2
Fore
SplineSet
200.5 35 m 128,-1,1
 123 80 123 80 81.5 163.5 c 128,-1,2
 40 247 40 247 40 360 c 128,-1,3
 40 473 40 473 82 557.5 c 128,-1,4
 124 642 124 642 201.5 687.5 c 128,-1,5
 279 733 279 733 382 733 c 0,6,7
 484 733 484 733 561 687.5 c 128,-1,8
 638 642 638 642 680 557.5 c 128,-1,9
 722 473 722 473 722 360 c 128,-1,10
 722 247 722 247 680.5 163.5 c 128,-1,11
 639 80 639 80 562 35 c 128,-1,12
 485 -10 485 -10 382 -10 c 0,13,0
 278 -10 278 -10 200.5 35 c 128,-1,1
537 357 m 0,14,15
 537 480 537 480 496 537.5 c 128,-1,16
 455 595 455 595 382 595 c 128,-1,17
 309 595 309 595 267.5 537.5 c 128,-1,18
 226 480 226 480 226 357 c 0,19,20
 226 238 226 238 267 183 c 128,-1,21
 308 128 308 128 382 128 c 0,22,23
 537 128 537 128 537 357 c 0,14,15
524 836 m 1,24,-1
 501 766 l 1,25,-1
 230 834 l 1,26,-1
 267 940 l 1,27,-1
 524 836 l 1,24,-1
EndSplineSet
EndChar

StartChar: Oacute
Encoding: 211 211 148
Width: 762
GlyphClass: 2
Flags: W
AnchorPoint: "Anchor-5" 0 0 basechar 0
AnchorPoint: "Anchor-4" 383 0 basechar 0
AnchorPoint: "Anchor-3" 381 723 basechar 0
AnchorPoint: "Anchor-2" 469 10 basechar 0
LayerCount: 2
Fore
SplineSet
200.5 35 m 128,-1,1
 123 80 123 80 81.5 163.5 c 128,-1,2
 40 247 40 247 40 360 c 128,-1,3
 40 473 40 473 82 557.5 c 128,-1,4
 124 642 124 642 201.5 687.5 c 128,-1,5
 279 733 279 733 382 733 c 0,6,7
 484 733 484 733 561 687.5 c 128,-1,8
 638 642 638 642 680 557.5 c 128,-1,9
 722 473 722 473 722 360 c 128,-1,10
 722 247 722 247 680.5 163.5 c 128,-1,11
 639 80 639 80 562 35 c 128,-1,12
 485 -10 485 -10 382 -10 c 0,13,0
 278 -10 278 -10 200.5 35 c 128,-1,1
537 357 m 0,14,15
 537 480 537 480 496 537.5 c 128,-1,16
 455 595 455 595 382 595 c 128,-1,17
 309 595 309 595 267.5 537.5 c 128,-1,18
 226 480 226 480 226 357 c 0,19,20
 226 238 226 238 267 183 c 128,-1,21
 308 128 308 128 382 128 c 0,22,23
 537 128 537 128 537 357 c 0,14,15
530 834 m 1,24,-1
 259 766 l 1,25,-1
 235 836 l 1,26,-1
 493 940 l 1,27,-1
 530 834 l 1,24,-1
EndSplineSet
EndChar

StartChar: Ocircumflex
Encoding: 212 212 149
Width: 762
GlyphClass: 2
Flags: W
AnchorPoint: "Anchor-5" 0 0 basechar 0
AnchorPoint: "Anchor-4" 383 0 basechar 0
AnchorPoint: "Anchor-3" 381 723 basechar 0
AnchorPoint: "Anchor-2" 469 10 basechar 0
LayerCount: 2
Fore
SplineSet
200.5 35 m 128,-1,1
 123 80 123 80 81.5 163.5 c 128,-1,2
 40 247 40 247 40 360 c 128,-1,3
 40 473 40 473 82 557.5 c 128,-1,4
 124 642 124 642 201.5 687.5 c 128,-1,5
 279 733 279 733 382 733 c 0,6,7
 484 733 484 733 561 687.5 c 128,-1,8
 638 642 638 642 680 557.5 c 128,-1,9
 722 473 722 473 722 360 c 128,-1,10
 722 247 722 247 680.5 163.5 c 128,-1,11
 639 80 639 80 562 35 c 128,-1,12
 485 -10 485 -10 382 -10 c 0,13,0
 278 -10 278 -10 200.5 35 c 128,-1,1
537 357 m 0,14,15
 537 480 537 480 496 537.5 c 128,-1,16
 455 595 455 595 382 595 c 128,-1,17
 309 595 309 595 267.5 537.5 c 128,-1,18
 226 480 226 480 226 357 c 0,19,20
 226 238 226 238 267 183 c 128,-1,21
 308 128 308 128 382 128 c 0,22,23
 537 128 537 128 537 357 c 0,14,15
380 872 m 1,24,-1
 308 794 l 1,25,-1
 188 794 l 1,26,-1
 323 937 l 1,27,-1
 439 937 l 1,28,-1
 571 794 l 1,29,-1
 444 794 l 1,30,-1
 380 872 l 1,24,-1
EndSplineSet
EndChar

StartChar: Otilde
Encoding: 213 213 150
Width: 762
GlyphClass: 2
Flags: W
AnchorPoint: "Anchor-5" 0 0 basechar 0
AnchorPoint: "Anchor-4" 383 0 basechar 0
AnchorPoint: "Anchor-3" 381 723 basechar 0
AnchorPoint: "Anchor-2" 469 10 basechar 0
LayerCount: 2
Fore
SplineSet
200.5 35 m 128,-1,1
 123 80 123 80 81.5 163.5 c 128,-1,2
 40 247 40 247 40 360 c 128,-1,3
 40 473 40 473 82 557.5 c 128,-1,4
 124 642 124 642 201.5 687.5 c 128,-1,5
 279 733 279 733 382 733 c 0,6,7
 484 733 484 733 561 687.5 c 128,-1,8
 638 642 638 642 680 557.5 c 128,-1,9
 722 473 722 473 722 360 c 128,-1,10
 722 247 722 247 680.5 163.5 c 128,-1,11
 639 80 639 80 562 35 c 128,-1,12
 485 -10 485 -10 382 -10 c 0,13,0
 278 -10 278 -10 200.5 35 c 128,-1,1
537 357 m 0,14,15
 537 480 537 480 496 537.5 c 128,-1,16
 455 595 455 595 382 595 c 128,-1,17
 309 595 309 595 267.5 537.5 c 128,-1,18
 226 480 226 480 226 357 c 0,19,20
 226 238 226 238 267 183 c 128,-1,21
 308 128 308 128 382 128 c 0,22,23
 537 128 537 128 537 357 c 0,14,15
512 818 m 128,-1,25
 488 810 488 810 460 810 c 0,26,27
 441 810 441 810 425 813.5 c 128,-1,28
 409 817 409 817 382 825 c 0,29,30
 364 830 364 830 345 834.5 c 128,-1,31
 326 839 326 839 309 839 c 0,32,33
 289 839 289 839 274.5 833.5 c 128,-1,34
 260 828 260 828 242 815 c 0,35,36
 235 810 235 810 231 810 c 0,37,38
 225 810 225 810 221 822 c 2,39,-1
 207 869 l 2,40,41
 206 871 206 871 205 873.5 c 128,-1,42
 204 876 204 876 204 880 c 0,43,44
 204 886 204 886 214 896 c 0,45,46
 233 914 233 914 254 923.5 c 128,-1,47
 275 933 275 933 304 933 c 0,48,49
 324 933 324 933 343 929 c 128,-1,50
 362 925 362 925 391 916 c 0,51,52
 409 911 409 911 427 906.5 c 128,-1,53
 445 902 445 902 459 902 c 0,54,55
 495 902 495 902 530 927 c 0,56,57
 536 931 536 931 540 931 c 0,58,59
 549 931 549 931 552 920 c 2,60,-1
 564 863 l 2,61,62
 565 861 565 861 565 856 c 0,63,64
 565 847 565 847 552 837 c 0,65,24
 536 826 536 826 512 818 c 128,-1,25
EndSplineSet
EndChar

StartChar: Odieresis
Encoding: 214 214 151
Width: 762
GlyphClass: 2
Flags: W
AnchorPoint: "Anchor-5" 0 0 basechar 0
AnchorPoint: "Anchor-4" 383 0 basechar 0
AnchorPoint: "Anchor-3" 381 723 basechar 0
AnchorPoint: "Anchor-2" 469 10 basechar 0
LayerCount: 2
Fore
SplineSet
200.5 35 m 128,-1,1
 123 80 123 80 81.5 163.5 c 128,-1,2
 40 247 40 247 40 360 c 128,-1,3
 40 473 40 473 82 557.5 c 128,-1,4
 124 642 124 642 201.5 687.5 c 128,-1,5
 279 733 279 733 382 733 c 0,6,7
 484 733 484 733 561 687.5 c 128,-1,8
 638 642 638 642 680 557.5 c 128,-1,9
 722 473 722 473 722 360 c 128,-1,10
 722 247 722 247 680.5 163.5 c 128,-1,11
 639 80 639 80 562 35 c 128,-1,12
 485 -10 485 -10 382 -10 c 0,13,0
 278 -10 278 -10 200.5 35 c 128,-1,1
537 357 m 0,14,15
 537 480 537 480 496 537.5 c 128,-1,16
 455 595 455 595 382 595 c 128,-1,17
 309 595 309 595 267.5 537.5 c 128,-1,18
 226 480 226 480 226 357 c 0,19,20
 226 238 226 238 267 183 c 128,-1,21
 308 128 308 128 382 128 c 0,22,23
 537 128 537 128 537 357 c 0,14,15
347 797 m 1,24,-1
 200 797 l 1,25,-1
 200 929 l 1,26,-1
 347 929 l 1,27,-1
 347 797 l 1,24,-1
562 797 m 1,28,-1
 414 797 l 1,29,-1
 414 929 l 1,30,-1
 562 929 l 1,31,-1
 562 797 l 1,28,-1
EndSplineSet
EndChar

StartChar: multiply
Encoding: 215 215 152
Width: 592
GlyphClass: 2
Flags: W
LayerCount: 2
Fore
SplineSet
379 364 m 1,0,-1
 532 212 l 1,1,-1
 445 125 l 1,2,-1
 292 278 l 1,3,-1
 139 125 l 1,4,-1
 54 212 l 1,5,-1
 206 364 l 1,6,-1
 53 517 l 1,7,-1
 138 604 l 1,8,-1
 292 450 l 1,9,-1
 446 604 l 1,10,-1
 533 517 l 1,11,-1
 379 364 l 1,0,-1
EndSplineSet
EndChar

StartChar: Oslash
Encoding: 216 216 153
Width: 774
GlyphClass: 2
Flags: W
AnchorPoint: "Anchor-5" 0 0 basechar 0
AnchorPoint: "Anchor-4" 0 0 basechar 0
AnchorPoint: "Anchor-3" 383 723 basechar 0
AnchorPoint: "Anchor-2" 0 0 basechar 0
LayerCount: 2
Fore
SplineSet
754 664 m 0,0,1
 754 658 754 658 747 652 c 2,2,-1
 672 575 l 1,3,4
 724 486 724 486 724 360 c 0,5,6
 724 247 724 247 682.5 163.5 c 128,-1,7
 641 80 641 80 564 35 c 128,-1,8
 487 -10 487 -10 384 -10 c 0,9,10
 317 -10 317 -10 261 9 c 128,-1,11
 205 28 205 28 162 64 c 1,12,-1
 103 5 l 2,13,14
 94 -5 94 -5 85 -5 c 0,15,16
 75 -5 75 -5 65 5 c 2,17,-1
 30 41 l 2,18,19
 19 52 19 52 19 59 c 0,20,21
 19 64 19 64 26 73 c 2,22,-1
 95 142 l 1,23,24
 42 232 42 232 42 360 c 0,25,26
 42 473 42 473 84 557.5 c 128,-1,27
 126 642 126 642 203.5 687.5 c 128,-1,28
 281 733 281 733 384 733 c 0,29,30
 519 733 519 733 608 655 c 1,31,-1
 673 720 l 2,32,33
 681 728 681 728 690 728 c 0,34,35
 696 728 696 728 700 724 c 2,36,-1
 748 675 l 2,37,38
 754 671 754 671 754 664 c 0,0,1
252 295 m 1,39,-1
 490 539 l 1,40,41
 473 570 473 570 447 585 c 128,-1,42
 421 600 421 600 384 600 c 0,43,44
 311 600 311 600 278 542.5 c 128,-1,45
 245 485 245 485 245 357 c 0,46,47
 245 322 245 322 252 295 c 1,39,-1
514 421 m 1,48,-1
 278 178 l 1,49,50
 310 125 310 125 384 125 c 0,51,52
 457 125 457 125 489 179 c 128,-1,53
 521 233 521 233 521 357 c 0,54,55
 521 394 521 394 514 421 c 1,48,-1
EndSplineSet
EndChar

StartChar: Ugrave
Encoding: 217 217 154
Width: 745
GlyphClass: 2
Flags: W
AnchorPoint: "Anchor-5" 0 0 basechar 0
AnchorPoint: "Anchor-4" 0 0 basechar 0
AnchorPoint: "Anchor-3" 358 723 basechar 0
AnchorPoint: "Anchor-2" 450 12 basechar 0
LayerCount: 2
Fore
SplineSet
602 67.5 m 128,-1,1
 531 -10 531 -10 372 -10 c 128,-1,2
 213 -10 213 -10 142.5 68 c 128,-1,3
 72 146 72 146 72 290 c 2,4,-1
 72 723 l 1,5,-1
 245 723 l 1,6,-1
 245 280 l 2,7,8
 245 206 245 206 280 169.5 c 128,-1,9
 315 133 315 133 372 133 c 0,10,11
 430 133 430 133 465.5 169.5 c 128,-1,12
 501 206 501 206 501 280 c 2,13,-1
 501 723 l 1,14,-1
 673 723 l 1,15,-1
 673 287 l 2,16,0
 673 145 673 145 602 67.5 c 128,-1,1
501 836 m 1,17,-1
 478 766 l 1,18,-1
 207 834 l 1,19,-1
 244 940 l 1,20,-1
 501 836 l 1,17,-1
EndSplineSet
EndChar

StartChar: Uacute
Encoding: 218 218 155
Width: 745
GlyphClass: 2
Flags: W
AnchorPoint: "Anchor-5" 0 0 basechar 0
AnchorPoint: "Anchor-4" 0 0 basechar 0
AnchorPoint: "Anchor-3" 358 723 basechar 0
AnchorPoint: "Anchor-2" 450 12 basechar 0
LayerCount: 2
Fore
SplineSet
602 67.5 m 128,-1,1
 531 -10 531 -10 372 -10 c 128,-1,2
 213 -10 213 -10 142.5 68 c 128,-1,3
 72 146 72 146 72 290 c 2,4,-1
 72 723 l 1,5,-1
 245 723 l 1,6,-1
 245 280 l 2,7,8
 245 206 245 206 280 169.5 c 128,-1,9
 315 133 315 133 372 133 c 0,10,11
 430 133 430 133 465.5 169.5 c 128,-1,12
 501 206 501 206 501 280 c 2,13,-1
 501 723 l 1,14,-1
 673 723 l 1,15,-1
 673 287 l 2,16,0
 673 145 673 145 602 67.5 c 128,-1,1
507 834 m 1,17,-1
 236 766 l 1,18,-1
 212 836 l 1,19,-1
 470 940 l 1,20,-1
 507 834 l 1,17,-1
EndSplineSet
EndChar

StartChar: Ucircumflex
Encoding: 219 219 156
Width: 745
GlyphClass: 2
Flags: W
AnchorPoint: "Anchor-5" 0 0 basechar 0
AnchorPoint: "Anchor-4" 0 0 basechar 0
AnchorPoint: "Anchor-3" 358 723 basechar 0
AnchorPoint: "Anchor-2" 450 12 basechar 0
LayerCount: 2
Fore
SplineSet
602 67.5 m 128,-1,1
 531 -10 531 -10 372 -10 c 128,-1,2
 213 -10 213 -10 142.5 68 c 128,-1,3
 72 146 72 146 72 290 c 2,4,-1
 72 723 l 1,5,-1
 245 723 l 1,6,-1
 245 280 l 2,7,8
 245 206 245 206 280 169.5 c 128,-1,9
 315 133 315 133 372 133 c 0,10,11
 430 133 430 133 465.5 169.5 c 128,-1,12
 501 206 501 206 501 280 c 2,13,-1
 501 723 l 1,14,-1
 673 723 l 1,15,-1
 673 287 l 2,16,0
 673 145 673 145 602 67.5 c 128,-1,1
357 872 m 1,17,-1
 285 794 l 1,18,-1
 165 794 l 1,19,-1
 300 937 l 1,20,-1
 416 937 l 1,21,-1
 548 794 l 1,22,-1
 421 794 l 1,23,-1
 357 872 l 1,17,-1
EndSplineSet
EndChar

StartChar: Udieresis
Encoding: 220 220 157
Width: 745
GlyphClass: 2
Flags: W
AnchorPoint: "Anchor-5" 0 0 basechar 0
AnchorPoint: "Anchor-4" 0 0 basechar 0
AnchorPoint: "Anchor-3" 358 723 basechar 0
AnchorPoint: "Anchor-2" 450 12 basechar 0
LayerCount: 2
Fore
SplineSet
602 67.5 m 128,-1,1
 531 -10 531 -10 372 -10 c 128,-1,2
 213 -10 213 -10 142.5 68 c 128,-1,3
 72 146 72 146 72 290 c 2,4,-1
 72 723 l 1,5,-1
 245 723 l 1,6,-1
 245 280 l 2,7,8
 245 206 245 206 280 169.5 c 128,-1,9
 315 133 315 133 372 133 c 0,10,11
 430 133 430 133 465.5 169.5 c 128,-1,12
 501 206 501 206 501 280 c 2,13,-1
 501 723 l 1,14,-1
 673 723 l 1,15,-1
 673 287 l 2,16,0
 673 145 673 145 602 67.5 c 128,-1,1
324 797 m 1,17,-1
 177 797 l 1,18,-1
 177 929 l 1,19,-1
 324 929 l 1,20,-1
 324 797 l 1,17,-1
539 797 m 1,21,-1
 391 797 l 1,22,-1
 391 929 l 1,23,-1
 539 929 l 1,24,-1
 539 797 l 1,21,-1
EndSplineSet
EndChar

StartChar: Yacute
Encoding: 221 221 158
Width: 683
GlyphClass: 2
Flags: W
AnchorPoint: "Anchor-5" 0 0 basechar 0
AnchorPoint: "Anchor-4" 0 0 basechar 0
AnchorPoint: "Anchor-3" 361 723 basechar 0
AnchorPoint: "Anchor-2" 0 0 basechar 0
LayerCount: 2
Fore
SplineSet
426 303 m 1,0,-1
 426 0 l 1,1,-1
 255 0 l 1,2,-1
 255 303 l 1,3,-1
 2 723 l 1,4,-1
 186 723 l 1,5,-1
 341 448 l 1,6,-1
 494 723 l 1,7,-1
 680 723 l 1,8,-1
 426 303 l 1,0,-1
510 834 m 1,9,-1
 239 766 l 1,10,-1
 215 836 l 1,11,-1
 473 940 l 1,12,-1
 510 834 l 1,9,-1
EndSplineSet
EndChar

StartChar: Thorn
Encoding: 222 222 159
Width: 722
GlyphClass: 2
Flags: W
LayerCount: 2
Fore
SplineSet
621.5 203 m 128,-1,1
 549 144 549 144 428 144 c 2,2,-1
 266 144 l 1,3,-1
 266 0 l 1,4,-1
 72 0 l 1,5,-1
 72 723 l 1,6,-1
 266 723 l 1,7,-1
 266 589 l 1,8,-1
 406 589 l 2,9,10
 487 589 487 589 552.5 564 c 128,-1,11
 618 539 618 539 656 488.5 c 128,-1,12
 694 438 694 438 694 366 c 0,13,0
 694 262 694 262 621.5 203 c 128,-1,1
467.5 429 m 128,-1,15
 439 451 439 451 394 451 c 2,16,-1
 266 451 l 1,17,-1
 266 282 l 1,18,-1
 400 282 l 2,19,20
 444 282 444 282 470 305.5 c 128,-1,21
 496 329 496 329 496 368 c 128,-1,14
 496 407 496 407 467.5 429 c 128,-1,15
EndSplineSet
EndChar

StartChar: germandbls
Encoding: 223 223 160
Width: 656
GlyphClass: 2
Flags: W
LayerCount: 2
Fore
SplineSet
498.5 683 m 128,-1,1
 555 643 555 643 555 570 c 0,2,3
 555 519 555 519 523.5 485.5 c 128,-1,4
 492 452 492 452 420 422 c 0,5,6
 411 417 411 417 407 413.5 c 128,-1,7
 403 410 403 410 403 405 c 0,8,9
 403 399 403 399 407 395.5 c 128,-1,10
 411 392 411 392 421 389 c 0,11,12
 491 358 491 358 531 335 c 128,-1,13
 571 312 571 312 599 272 c 128,-1,14
 627 232 627 232 627 172 c 0,15,16
 627 84 627 84 568 37 c 128,-1,17
 509 -10 509 -10 408 -10 c 0,18,19
 330 -10 330 -10 276 23 c 1,20,-1
 324 126 l 1,21,22
 344 112 344 112 361.5 104.5 c 128,-1,23
 379 97 379 97 404 97 c 0,24,25
 436 97 436 97 455.5 111.5 c 128,-1,26
 475 126 475 126 475 154 c 0,27,28
 475 179 475 179 456 193.5 c 128,-1,29
 437 208 437 208 389 227 c 0,30,31
 281 274 281 274 281 363 c 0,32,33
 281 398 281 398 296.5 424.5 c 128,-1,34
 312 451 312 451 339 474 c 0,35,36
 346 480 346 480 364.5 496.5 c 128,-1,37
 383 513 383 513 392 528.5 c 128,-1,38
 401 544 401 544 401 561 c 0,39,40
 401 585 401 585 382.5 600 c 128,-1,41
 364 615 364 615 331 615 c 0,42,43
 289 615 289 615 265.5 589.5 c 128,-1,44
 242 564 242 564 242 522 c 2,45,-1
 242 0 l 1,46,-1
 75 0 l 1,47,-1
 75 372 l 1,48,-1
 18 372 l 1,49,-1
 18 489 l 1,50,-1
 74 489 l 1,51,52
 77 590 77 590 140 656.5 c 128,-1,53
 203 723 203 723 338 723 c 0,54,0
 442 723 442 723 498.5 683 c 128,-1,1
EndSplineSet
EndChar

StartChar: agrave
Encoding: 224 224 161
Width: 577
GlyphClass: 2
Flags: W
AnchorPoint: "Anchor-5" 0 0 basechar 0
AnchorPoint: "Anchor-4" 0 0 basechar 0
AnchorPoint: "Anchor-3" 289 517 basechar 0
AnchorPoint: "Anchor-2" 491 11 basechar 0
LayerCount: 2
Fore
SplineSet
80 33 m 128,-1,1
 30 76 30 76 30 151 c 0,2,3
 30 324 30 324 300 327 c 1,4,-1
 353 329 l 1,5,-1
 353 354 l 2,6,7
 353 384 353 384 335.5 399.5 c 128,-1,8
 318 415 318 415 285 415 c 0,9,10
 256 415 256 415 229.5 402.5 c 128,-1,11
 203 390 203 390 188 362 c 1,12,-1
 49 365 l 1,13,14
 58 446 58 446 123.5 486.5 c 128,-1,15
 189 527 189 527 290 527 c 0,16,17
 411 527 411 527 463.5 484.5 c 128,-1,18
 516 442 516 442 516 365 c 2,19,-1
 516 0 l 1,20,-1
 374 0 l 1,21,-1
 361 63 l 1,22,23
 341 30 341 30 300 10 c 128,-1,24
 259 -10 259 -10 207 -10 c 0,25,0
 130 -10 130 -10 80 33 c 128,-1,1
326 122.5 m 128,-1,27
 352 145 352 145 353 174 c 2,28,-1
 353 242 l 1,29,-1
 311 241 l 2,30,31
 261 239 261 239 226 223 c 128,-1,32
 191 207 191 207 191 169 c 0,33,34
 191 137 191 137 213 118.5 c 128,-1,35
 235 100 235 100 266 100 c 0,36,26
 300 100 300 100 326 122.5 c 128,-1,27
432 630 m 1,37,-1
 409 560 l 1,38,-1
 138 628 l 1,39,-1
 175 734 l 1,40,-1
 432 630 l 1,37,-1
EndSplineSet
EndChar

StartChar: aacute
Encoding: 225 225 162
Width: 577
GlyphClass: 2
Flags: W
AnchorPoint: "Anchor-5" 0 0 basechar 0
AnchorPoint: "Anchor-4" 0 0 basechar 0
AnchorPoint: "Anchor-3" 289 517 basechar 0
AnchorPoint: "Anchor-2" 491 11 basechar 0
LayerCount: 2
Fore
SplineSet
80 33 m 128,-1,1
 30 76 30 76 30 151 c 0,2,3
 30 324 30 324 300 327 c 1,4,-1
 353 329 l 1,5,-1
 353 354 l 2,6,7
 353 384 353 384 335.5 399.5 c 128,-1,8
 318 415 318 415 285 415 c 0,9,10
 256 415 256 415 229.5 402.5 c 128,-1,11
 203 390 203 390 188 362 c 1,12,-1
 49 365 l 1,13,14
 58 446 58 446 123.5 486.5 c 128,-1,15
 189 527 189 527 290 527 c 0,16,17
 411 527 411 527 463.5 484.5 c 128,-1,18
 516 442 516 442 516 365 c 2,19,-1
 516 0 l 1,20,-1
 374 0 l 1,21,-1
 361 63 l 1,22,23
 341 30 341 30 300 10 c 128,-1,24
 259 -10 259 -10 207 -10 c 0,25,0
 130 -10 130 -10 80 33 c 128,-1,1
326 122.5 m 128,-1,27
 352 145 352 145 353 174 c 2,28,-1
 353 242 l 1,29,-1
 311 241 l 2,30,31
 261 239 261 239 226 223 c 128,-1,32
 191 207 191 207 191 169 c 0,33,34
 191 137 191 137 213 118.5 c 128,-1,35
 235 100 235 100 266 100 c 0,36,26
 300 100 300 100 326 122.5 c 128,-1,27
438 628 m 1,37,-1
 167 560 l 1,38,-1
 143 630 l 1,39,-1
 401 734 l 1,40,-1
 438 628 l 1,37,-1
EndSplineSet
EndChar

StartChar: acircumflex
Encoding: 226 226 163
Width: 577
GlyphClass: 2
Flags: W
AnchorPoint: "Anchor-5" 0 0 basechar 0
AnchorPoint: "Anchor-4" 0 0 basechar 0
AnchorPoint: "Anchor-3" 289 517 basechar 0
AnchorPoint: "Anchor-2" 491 11 basechar 0
LayerCount: 2
Fore
SplineSet
80 33 m 128,-1,1
 30 76 30 76 30 151 c 0,2,3
 30 324 30 324 300 327 c 1,4,-1
 353 329 l 1,5,-1
 353 354 l 2,6,7
 353 384 353 384 335.5 399.5 c 128,-1,8
 318 415 318 415 285 415 c 0,9,10
 256 415 256 415 229.5 402.5 c 128,-1,11
 203 390 203 390 188 362 c 1,12,-1
 49 365 l 1,13,14
 58 446 58 446 123.5 486.5 c 128,-1,15
 189 527 189 527 290 527 c 0,16,17
 411 527 411 527 463.5 484.5 c 128,-1,18
 516 442 516 442 516 365 c 2,19,-1
 516 0 l 1,20,-1
 374 0 l 1,21,-1
 361 63 l 1,22,23
 341 30 341 30 300 10 c 128,-1,24
 259 -10 259 -10 207 -10 c 0,25,0
 130 -10 130 -10 80 33 c 128,-1,1
326 122.5 m 128,-1,27
 352 145 352 145 353 174 c 2,28,-1
 353 242 l 1,29,-1
 311 241 l 2,30,31
 261 239 261 239 226 223 c 128,-1,32
 191 207 191 207 191 169 c 0,33,34
 191 137 191 137 213 118.5 c 128,-1,35
 235 100 235 100 266 100 c 0,36,26
 300 100 300 100 326 122.5 c 128,-1,27
288 666 m 1,37,-1
 216 588 l 1,38,-1
 96 588 l 1,39,-1
 231 731 l 1,40,-1
 347 731 l 1,41,-1
 479 588 l 1,42,-1
 352 588 l 1,43,-1
 288 666 l 1,37,-1
EndSplineSet
EndChar

StartChar: atilde
Encoding: 227 227 164
Width: 577
GlyphClass: 2
Flags: W
AnchorPoint: "Anchor-5" 0 0 basechar 0
AnchorPoint: "Anchor-4" 0 0 basechar 0
AnchorPoint: "Anchor-3" 289 517 basechar 0
AnchorPoint: "Anchor-2" 491 11 basechar 0
LayerCount: 2
Fore
SplineSet
80 33 m 128,-1,1
 30 76 30 76 30 151 c 0,2,3
 30 324 30 324 300 327 c 1,4,-1
 353 329 l 1,5,-1
 353 354 l 2,6,7
 353 384 353 384 335.5 399.5 c 128,-1,8
 318 415 318 415 285 415 c 0,9,10
 256 415 256 415 229.5 402.5 c 128,-1,11
 203 390 203 390 188 362 c 1,12,-1
 49 365 l 1,13,14
 58 446 58 446 123.5 486.5 c 128,-1,15
 189 527 189 527 290 527 c 0,16,17
 411 527 411 527 463.5 484.5 c 128,-1,18
 516 442 516 442 516 365 c 2,19,-1
 516 0 l 1,20,-1
 374 0 l 1,21,-1
 361 63 l 1,22,23
 341 30 341 30 300 10 c 128,-1,24
 259 -10 259 -10 207 -10 c 0,25,0
 130 -10 130 -10 80 33 c 128,-1,1
326 122.5 m 128,-1,27
 352 145 352 145 353 174 c 2,28,-1
 353 242 l 1,29,-1
 311 241 l 2,30,31
 261 239 261 239 226 223 c 128,-1,32
 191 207 191 207 191 169 c 0,33,34
 191 137 191 137 213 118.5 c 128,-1,35
 235 100 235 100 266 100 c 0,36,26
 300 100 300 100 326 122.5 c 128,-1,27
420 612 m 128,-1,38
 396 604 396 604 368 604 c 0,39,40
 349 604 349 604 333 607.5 c 128,-1,41
 317 611 317 611 290 619 c 0,42,43
 272 624 272 624 253 628.5 c 128,-1,44
 234 633 234 633 217 633 c 0,45,46
 197 633 197 633 182.5 627.5 c 128,-1,47
 168 622 168 622 150 609 c 0,48,49
 143 604 143 604 139 604 c 0,50,51
 133 604 133 604 129 616 c 2,52,-1
 115 663 l 2,53,54
 114 665 114 665 113 667.5 c 128,-1,55
 112 670 112 670 112 674 c 0,56,57
 112 680 112 680 122 690 c 0,58,59
 141 708 141 708 162 717.5 c 128,-1,60
 183 727 183 727 212 727 c 0,61,62
 232 727 232 727 251 723 c 128,-1,63
 270 719 270 719 299 710 c 0,64,65
 317 705 317 705 335 700.5 c 128,-1,66
 353 696 353 696 367 696 c 0,67,68
 403 696 403 696 438 721 c 0,69,70
 444 725 444 725 448 725 c 0,71,72
 457 725 457 725 460 714 c 2,73,-1
 472 657 l 2,74,75
 473 655 473 655 473 650 c 0,76,77
 473 641 473 641 460 631 c 0,78,37
 444 620 444 620 420 612 c 128,-1,38
EndSplineSet
EndChar

StartChar: adieresis
Encoding: 228 228 165
Width: 577
GlyphClass: 2
Flags: W
AnchorPoint: "Anchor-5" 0 0 basechar 0
AnchorPoint: "Anchor-4" 0 0 basechar 0
AnchorPoint: "Anchor-3" 289 517 basechar 0
AnchorPoint: "Anchor-2" 491 11 basechar 0
LayerCount: 2
Fore
SplineSet
80 33 m 128,-1,1
 30 76 30 76 30 151 c 0,2,3
 30 324 30 324 300 327 c 1,4,-1
 353 329 l 1,5,-1
 353 354 l 2,6,7
 353 384 353 384 335.5 399.5 c 128,-1,8
 318 415 318 415 285 415 c 0,9,10
 256 415 256 415 229.5 402.5 c 128,-1,11
 203 390 203 390 188 362 c 1,12,-1
 49 365 l 1,13,14
 58 446 58 446 123.5 486.5 c 128,-1,15
 189 527 189 527 290 527 c 0,16,17
 411 527 411 527 463.5 484.5 c 128,-1,18
 516 442 516 442 516 365 c 2,19,-1
 516 0 l 1,20,-1
 374 0 l 1,21,-1
 361 63 l 1,22,23
 341 30 341 30 300 10 c 128,-1,24
 259 -10 259 -10 207 -10 c 0,25,0
 130 -10 130 -10 80 33 c 128,-1,1
326 122.5 m 128,-1,27
 352 145 352 145 353 174 c 2,28,-1
 353 242 l 1,29,-1
 311 241 l 2,30,31
 261 239 261 239 226 223 c 128,-1,32
 191 207 191 207 191 169 c 0,33,34
 191 137 191 137 213 118.5 c 128,-1,35
 235 100 235 100 266 100 c 0,36,26
 300 100 300 100 326 122.5 c 128,-1,27
255 591 m 1,37,-1
 108 591 l 1,38,-1
 108 723 l 1,39,-1
 255 723 l 1,40,-1
 255 591 l 1,37,-1
470 591 m 1,41,-1
 322 591 l 1,42,-1
 322 723 l 1,43,-1
 470 723 l 1,44,-1
 470 591 l 1,41,-1
EndSplineSet
EndChar

StartChar: aring
Encoding: 229 229 166
Width: 577
GlyphClass: 2
Flags: W
AnchorPoint: "Anchor-5" 0 0 basechar 0
AnchorPoint: "Anchor-4" 0 0 basechar 0
AnchorPoint: "Anchor-3" 289 517 basechar 0
AnchorPoint: "Anchor-2" 491 11 basechar 0
LayerCount: 2
Fore
SplineSet
80 33 m 128,-1,1
 30 76 30 76 30 151 c 0,2,3
 30 324 30 324 300 327 c 1,4,-1
 353 329 l 1,5,-1
 353 354 l 2,6,7
 353 384 353 384 335.5 399.5 c 128,-1,8
 318 415 318 415 285 415 c 0,9,10
 256 415 256 415 229.5 402.5 c 128,-1,11
 203 390 203 390 188 362 c 1,12,-1
 49 365 l 1,13,14
 58 446 58 446 123.5 486.5 c 128,-1,15
 189 527 189 527 290 527 c 0,16,17
 411 527 411 527 463.5 484.5 c 128,-1,18
 516 442 516 442 516 365 c 2,19,-1
 516 0 l 1,20,-1
 374 0 l 1,21,-1
 361 63 l 1,22,23
 341 30 341 30 300 10 c 128,-1,24
 259 -10 259 -10 207 -10 c 0,25,0
 130 -10 130 -10 80 33 c 128,-1,1
326 122.5 m 128,-1,27
 352 145 352 145 353 174 c 2,28,-1
 353 242 l 1,29,-1
 311 241 l 2,30,31
 261 239 261 239 226 223 c 128,-1,32
 191 207 191 207 191 169 c 0,33,34
 191 137 191 137 213 118.5 c 128,-1,35
 235 100 235 100 266 100 c 0,36,26
 300 100 300 100 326 122.5 c 128,-1,27
368.5 595.5 m 128,-1,38
 336 563 336 563 289 563 c 0,39,40
 243 563 243 563 210.5 596 c 128,-1,41
 178 629 178 629 178 676 c 0,42,43
 178 721 178 721 210.5 752.5 c 128,-1,44
 243 784 243 784 289 784 c 0,45,46
 336 784 336 784 368.5 752 c 128,-1,47
 401 720 401 720 401 674 c 128,-1,37
 401 628 401 628 368.5 595.5 c 128,-1,38
322 707.5 m 128,-1,49
 308 721 308 721 288 721 c 128,-1,50
 268 721 268 721 253.5 707.5 c 128,-1,51
 239 694 239 694 239 673 c 0,52,53
 239 654 239 654 254 639 c 128,-1,54
 269 624 269 624 288 624 c 0,55,56
 308 624 308 624 322 639 c 128,-1,57
 336 654 336 654 336 673 c 0,58,48
 336 694 336 694 322 707.5 c 128,-1,49
EndSplineSet
EndChar

StartChar: ae
Encoding: 230 230 167
Width: 909
GlyphClass: 2
Flags: W
AnchorPoint: "Anchor-5" 0 0 basechar 0
AnchorPoint: "Anchor-4" 0 0 basechar 0
AnchorPoint: "Anchor-3" 452 517 basechar 0
AnchorPoint: "Anchor-2" 0 0 basechar 0
LayerCount: 2
Fore
SplineSet
564 138 m 128,-1,1
 597 105 597 105 646 105 c 0,2,3
 680 105 680 105 708.5 120.5 c 128,-1,4
 737 136 737 136 770 172 c 1,5,-1
 875 128 l 1,6,7
 825 51 825 51 767.5 20.5 c 128,-1,8
 710 -10 710 -10 624 -10 c 0,9,10
 561 -10 561 -10 509.5 13 c 128,-1,11
 458 36 458 36 422 75 c 0,12,13
 416 79 416 79 412 75 c 0,14,15
 368 32 368 32 318 11 c 128,-1,16
 268 -10 268 -10 198 -10 c 0,17,18
 118 -10 118 -10 74 30.5 c 128,-1,19
 30 71 30 71 30 138 c 0,20,21
 30 217 30 217 100 264.5 c 128,-1,22
 170 312 170 312 304 319 c 2,23,-1
 358 323 l 1,24,-1
 358 354 l 2,25,26
 358 387 358 387 340 404.5 c 128,-1,27
 322 422 322 422 286 422 c 0,28,29
 220 422 220 422 190 357 c 1,30,-1
 44 388 l 1,31,32
 75 459 75 459 131 493 c 128,-1,33
 187 527 187 527 291 527 c 0,34,35
 418 526 418 526 471 476 c 1,36,37
 502 501 502 501 540.5 514 c 128,-1,38
 579 527 579 527 621 527 c 0,39,40
 696 527 696 527 755 491.5 c 128,-1,41
 814 456 814 456 847 388 c 128,-1,42
 880 320 880 320 880 227 c 1,43,-1
 531 227 l 1,44,0
 531 171 531 171 564 138 c 128,-1,1
561 396.5 m 128,-1,46
 534 369 534 369 534 319 c 1,47,-1
 714 318 l 1,48,49
 714 356 714 356 691 390 c 128,-1,50
 668 424 668 424 628 424 c 128,-1,45
 588 424 588 424 561 396.5 c 128,-1,46
315 233 m 2,51,52
 269 230 269 230 233 208 c 128,-1,53
 197 186 197 186 197 149 c 0,54,55
 197 124 197 124 214.5 108.5 c 128,-1,56
 232 93 232 93 264 93 c 0,57,58
 302 93 302 93 330 111.5 c 128,-1,59
 358 130 358 130 358 159 c 2,60,-1
 358 236 l 1,61,-1
 315 233 l 2,51,52
EndSplineSet
EndChar

StartChar: ccedilla
Encoding: 231 231 168
Width: 535
GlyphClass: 2
Flags: W
AnchorPoint: "Anchor-5" 0 0 basechar 0
AnchorPoint: "Anchor-4" 284 0 basechar 0
AnchorPoint: "Anchor-3" 285 517 basechar 0
AnchorPoint: "Anchor-2" 0 0 basechar 0
LayerCount: 2
Fore
SplineSet
399 499.5 m 128,-1,1
 447 472 447 472 473.5 425.5 c 128,-1,2
 500 379 500 379 505 323 c 1,3,-1
 367 320 l 1,4,5
 354 357 354 357 337 378.5 c 128,-1,6
 320 400 320 400 286 400 c 0,7,8
 240 400 240 400 213.5 363 c 128,-1,9
 187 326 187 326 187 258 c 0,10,11
 187 189 187 189 215.5 149 c 128,-1,12
 244 109 244 109 290 109 c 0,13,14
 324 109 324 109 342 132.5 c 128,-1,15
 360 156 360 156 370 189 c 1,16,-1
 504 186 l 1,17,18
 500 133 500 133 473 88 c 128,-1,19
 446 43 446 43 397.5 16.5 c 128,-1,20
 349 -10 349 -10 285 -10 c 0,21,22
 212 -10 212 -10 154 23.5 c 128,-1,23
 96 57 96 57 63 117.5 c 128,-1,24
 30 178 30 178 30 256 c 0,25,26
 30 335 30 335 62.5 396.5 c 128,-1,27
 95 458 95 458 153 492.5 c 128,-1,28
 211 527 211 527 285 527 c 0,29,0
 351 527 351 527 399 499.5 c 128,-1,1
372.5 -193 m 128,-1,31
 336 -216 336 -216 284 -216 c 0,32,33
 206 -216 206 -216 160 -188 c 1,34,-1
 182 -134 l 1,35,36
 226 -159 226 -159 263 -159 c 0,37,38
 285 -159 285 -159 298 -151.5 c 128,-1,39
 311 -144 311 -144 311 -131 c 0,40,41
 311 -111 311 -111 291 -101 c 128,-1,42
 271 -91 271 -91 224 -91 c 0,43,44
 217 -91 217 -91 214.5 -89 c 128,-1,45
 212 -87 212 -87 215 -80 c 2,46,-1
 252 5 l 1,47,-1
 324 5 l 1,48,-1
 302 -53 l 1,49,50
 356 -54 356 -54 382.5 -78 c 128,-1,51
 409 -102 409 -102 409 -133 c 0,52,30
 409 -170 409 -170 372.5 -193 c 128,-1,31
EndSplineSet
EndChar

StartChar: egrave
Encoding: 232 232 169
Width: 564
GlyphClass: 2
Flags: W
AnchorPoint: "Anchor-5" 0 0 basechar 0
AnchorPoint: "Anchor-4" 288 0 basechar 0
AnchorPoint: "Anchor-3" 287 517 basechar 0
AnchorPoint: "Anchor-2" 410 24 basechar 0
LayerCount: 2
Fore
SplineSet
222.5 139.5 m 128,-1,1
 248 111 248 111 290 111 c 0,2,3
 324 111 324 111 347 124 c 128,-1,4
 370 137 370 137 382 168 c 1,5,-1
 533 165 l 1,6,7
 525 112 525 112 489.5 72.5 c 128,-1,8
 454 33 454 33 402.5 11.5 c 128,-1,9
 351 -10 351 -10 295 -10 c 0,10,11
 217 -10 217 -10 157 22.5 c 128,-1,12
 97 55 97 55 63.5 114.5 c 128,-1,13
 30 174 30 174 30 252 c 0,14,15
 30 329 30 329 60.5 391.5 c 128,-1,16
 91 454 91 454 149 490.5 c 128,-1,17
 207 527 207 527 286 527 c 0,18,19
 405 527 405 527 469 454 c 128,-1,20
 533 381 533 381 533 262 c 2,21,-1
 533 219 l 1,22,-1
 197 219 l 1,23,0
 197 168 197 168 222.5 139.5 c 128,-1,1
376 317 m 1,24,25
 376 357 376 357 352.5 383.5 c 128,-1,26
 329 410 329 410 286 410 c 0,27,28
 247 410 247 410 222 382 c 128,-1,29
 197 354 197 354 197 317 c 1,30,-1
 376 317 l 1,24,25
430 630 m 1,31,-1
 407 560 l 1,32,-1
 136 628 l 1,33,-1
 173 734 l 1,34,-1
 430 630 l 1,31,-1
EndSplineSet
EndChar

StartChar: eacute
Encoding: 233 233 170
Width: 564
GlyphClass: 2
Flags: W
AnchorPoint: "Anchor-5" 0 0 basechar 0
AnchorPoint: "Anchor-4" 288 0 basechar 0
AnchorPoint: "Anchor-3" 287 517 basechar 0
AnchorPoint: "Anchor-2" 410 24 basechar 0
LayerCount: 2
Fore
SplineSet
222.5 139.5 m 128,-1,1
 248 111 248 111 290 111 c 0,2,3
 324 111 324 111 347 124 c 128,-1,4
 370 137 370 137 382 168 c 1,5,-1
 533 165 l 1,6,7
 525 112 525 112 489.5 72.5 c 128,-1,8
 454 33 454 33 402.5 11.5 c 128,-1,9
 351 -10 351 -10 295 -10 c 0,10,11
 217 -10 217 -10 157 22.5 c 128,-1,12
 97 55 97 55 63.5 114.5 c 128,-1,13
 30 174 30 174 30 252 c 0,14,15
 30 329 30 329 60.5 391.5 c 128,-1,16
 91 454 91 454 149 490.5 c 128,-1,17
 207 527 207 527 286 527 c 0,18,19
 405 527 405 527 469 454 c 128,-1,20
 533 381 533 381 533 262 c 2,21,-1
 533 219 l 1,22,-1
 197 219 l 1,23,0
 197 168 197 168 222.5 139.5 c 128,-1,1
376 317 m 1,24,25
 376 357 376 357 352.5 383.5 c 128,-1,26
 329 410 329 410 286 410 c 0,27,28
 247 410 247 410 222 382 c 128,-1,29
 197 354 197 354 197 317 c 1,30,-1
 376 317 l 1,24,25
436 628 m 1,31,-1
 165 560 l 1,32,-1
 141 630 l 1,33,-1
 399 734 l 1,34,-1
 436 628 l 1,31,-1
EndSplineSet
EndChar

StartChar: ecircumflex
Encoding: 234 234 171
Width: 564
GlyphClass: 2
Flags: W
AnchorPoint: "Anchor-5" 0 0 basechar 0
AnchorPoint: "Anchor-4" 288 0 basechar 0
AnchorPoint: "Anchor-3" 287 517 basechar 0
AnchorPoint: "Anchor-2" 410 24 basechar 0
LayerCount: 2
Fore
SplineSet
222.5 139.5 m 128,-1,1
 248 111 248 111 290 111 c 0,2,3
 324 111 324 111 347 124 c 128,-1,4
 370 137 370 137 382 168 c 1,5,-1
 533 165 l 1,6,7
 525 112 525 112 489.5 72.5 c 128,-1,8
 454 33 454 33 402.5 11.5 c 128,-1,9
 351 -10 351 -10 295 -10 c 0,10,11
 217 -10 217 -10 157 22.5 c 128,-1,12
 97 55 97 55 63.5 114.5 c 128,-1,13
 30 174 30 174 30 252 c 0,14,15
 30 329 30 329 60.5 391.5 c 128,-1,16
 91 454 91 454 149 490.5 c 128,-1,17
 207 527 207 527 286 527 c 0,18,19
 405 527 405 527 469 454 c 128,-1,20
 533 381 533 381 533 262 c 2,21,-1
 533 219 l 1,22,-1
 197 219 l 1,23,0
 197 168 197 168 222.5 139.5 c 128,-1,1
376 317 m 1,24,25
 376 357 376 357 352.5 383.5 c 128,-1,26
 329 410 329 410 286 410 c 0,27,28
 247 410 247 410 222 382 c 128,-1,29
 197 354 197 354 197 317 c 1,30,-1
 376 317 l 1,24,25
286 666 m 1,31,-1
 214 588 l 1,32,-1
 94 588 l 1,33,-1
 229 731 l 1,34,-1
 345 731 l 1,35,-1
 477 588 l 1,36,-1
 350 588 l 1,37,-1
 286 666 l 1,31,-1
EndSplineSet
EndChar

StartChar: edieresis
Encoding: 235 235 172
Width: 564
GlyphClass: 2
Flags: W
AnchorPoint: "Anchor-5" 0 0 basechar 0
AnchorPoint: "Anchor-4" 288 0 basechar 0
AnchorPoint: "Anchor-3" 287 517 basechar 0
AnchorPoint: "Anchor-2" 410 24 basechar 0
LayerCount: 2
Fore
SplineSet
222.5 139.5 m 128,-1,1
 248 111 248 111 290 111 c 0,2,3
 324 111 324 111 347 124 c 128,-1,4
 370 137 370 137 382 168 c 1,5,-1
 533 165 l 1,6,7
 525 112 525 112 489.5 72.5 c 128,-1,8
 454 33 454 33 402.5 11.5 c 128,-1,9
 351 -10 351 -10 295 -10 c 0,10,11
 217 -10 217 -10 157 22.5 c 128,-1,12
 97 55 97 55 63.5 114.5 c 128,-1,13
 30 174 30 174 30 252 c 0,14,15
 30 329 30 329 60.5 391.5 c 128,-1,16
 91 454 91 454 149 490.5 c 128,-1,17
 207 527 207 527 286 527 c 0,18,19
 405 527 405 527 469 454 c 128,-1,20
 533 381 533 381 533 262 c 2,21,-1
 533 219 l 1,22,-1
 197 219 l 1,23,0
 197 168 197 168 222.5 139.5 c 128,-1,1
376 317 m 1,24,25
 376 357 376 357 352.5 383.5 c 128,-1,26
 329 410 329 410 286 410 c 0,27,28
 247 410 247 410 222 382 c 128,-1,29
 197 354 197 354 197 317 c 1,30,-1
 376 317 l 1,24,25
253 591 m 1,31,-1
 106 591 l 1,32,-1
 106 723 l 1,33,-1
 253 723 l 1,34,-1
 253 591 l 1,31,-1
468 591 m 1,35,-1
 320 591 l 1,36,-1
 320 723 l 1,37,-1
 468 723 l 1,38,-1
 468 591 l 1,35,-1
EndSplineSet
EndChar

StartChar: igrave
Encoding: 236 236 173
Width: 293
GlyphClass: 2
Flags: W
AnchorPoint: "Anchor-5" 0 0 basechar 0
AnchorPoint: "Anchor-4" 0 0 basechar 0
AnchorPoint: "Anchor-3" 150 517 basechar 0
AnchorPoint: "Anchor-2" 207 10 basechar 0
LayerCount: 2
Fore
SplineSet
232 0 m 1,0,-1
 61 0 l 1,1,-1
 61 517 l 1,2,-1
 232 517 l 1,3,-1
 232 0 l 1,0,-1
293 630 m 1,4,-1
 270 560 l 1,5,-1
 -1 628 l 1,6,-1
 36 734 l 1,7,-1
 293 630 l 1,4,-1
EndSplineSet
EndChar

StartChar: iacute
Encoding: 237 237 174
Width: 293
GlyphClass: 2
Flags: W
AnchorPoint: "Anchor-5" 0 0 basechar 0
AnchorPoint: "Anchor-4" 0 0 basechar 0
AnchorPoint: "Anchor-3" 150 517 basechar 0
AnchorPoint: "Anchor-2" 207 10 basechar 0
LayerCount: 2
Fore
SplineSet
232 0 m 1,0,-1
 61 0 l 1,1,-1
 61 517 l 1,2,-1
 232 517 l 1,3,-1
 232 0 l 1,0,-1
299 628 m 1,4,-1
 28 560 l 1,5,-1
 4 630 l 1,6,-1
 262 734 l 1,7,-1
 299 628 l 1,4,-1
EndSplineSet
EndChar

StartChar: icircumflex
Encoding: 238 238 175
Width: 293
GlyphClass: 2
Flags: W
AnchorPoint: "Anchor-5" 0 0 basechar 0
AnchorPoint: "Anchor-4" 0 0 basechar 0
AnchorPoint: "Anchor-3" 150 517 basechar 0
AnchorPoint: "Anchor-2" 207 10 basechar 0
LayerCount: 2
Fore
SplineSet
232 0 m 1,0,-1
 61 0 l 1,1,-1
 61 517 l 1,2,-1
 232 517 l 1,3,-1
 232 0 l 1,0,-1
149 666 m 1,4,-1
 77 588 l 1,5,-1
 -43 588 l 1,6,-1
 92 731 l 1,7,-1
 208 731 l 1,8,-1
 340 588 l 1,9,-1
 213 588 l 1,10,-1
 149 666 l 1,4,-1
EndSplineSet
EndChar

StartChar: idieresis
Encoding: 239 239 176
Width: 293
GlyphClass: 2
Flags: W
AnchorPoint: "Anchor-5" 0 0 basechar 0
AnchorPoint: "Anchor-4" 0 0 basechar 0
AnchorPoint: "Anchor-3" 150 517 basechar 0
AnchorPoint: "Anchor-2" 207 10 basechar 0
LayerCount: 2
Fore
SplineSet
232 0 m 1,0,-1
 61 0 l 1,1,-1
 61 517 l 1,2,-1
 232 517 l 1,3,-1
 232 0 l 1,0,-1
116 591 m 1,4,-1
 -31 591 l 1,5,-1
 -31 723 l 1,6,-1
 116 723 l 1,7,-1
 116 591 l 1,4,-1
331 591 m 1,8,-1
 183 591 l 1,9,-1
 183 723 l 1,10,-1
 331 723 l 1,11,-1
 331 591 l 1,8,-1
EndSplineSet
EndChar

StartChar: eth
Encoding: 240 240 177
Width: 592
GlyphClass: 2
Flags: W
LayerCount: 2
Fore
SplineSet
529.5 122.5 m 128,-1,1
 496 59 496 59 435.5 24.5 c 128,-1,2
 375 -10 375 -10 295 -10 c 0,3,4
 218 -10 218 -10 158 23 c 128,-1,5
 98 56 98 56 64 114.5 c 128,-1,6
 30 173 30 173 30 246 c 0,7,8
 30 321 30 321 64.5 380.5 c 128,-1,9
 99 440 99 440 159.5 473.5 c 128,-1,10
 220 507 220 507 295 507 c 0,11,12
 316 507 316 507 323 501 c 1,13,14
 294 547 294 547 243 584 c 1,15,-1
 125 518 l 1,16,-1
 94 568 l 1,17,-1
 187 618 l 1,18,19
 141 642 141 642 90 660 c 1,20,-1
 180 734 l 1,21,22
 254 715 254 715 309 687 c 1,23,-1
 399 737 l 1,24,-1
 427 686 l 1,25,-1
 367 652 l 1,26,27
 461 586 461 586 512 487 c 128,-1,28
 563 388 563 388 563 271 c 0,29,0
 563 186 563 186 529.5 122.5 c 128,-1,1
366.5 139 m 128,-1,31
 390 177 390 177 390 250 c 128,-1,32
 390 323 390 323 366 361 c 128,-1,33
 342 399 342 399 296 399 c 0,34,35
 251 399 251 399 226.5 360.5 c 128,-1,36
 202 322 202 322 202 250 c 128,-1,37
 202 178 202 178 226.5 139.5 c 128,-1,38
 251 101 251 101 296 101 c 0,39,30
 343 101 343 101 366.5 139 c 128,-1,31
EndSplineSet
EndChar

StartChar: ntilde
Encoding: 241 241 178
Width: 617
GlyphClass: 2
Flags: W
AnchorPoint: "Anchor-5" 0 0 basechar 0
AnchorPoint: "Anchor-4" 308 0 basechar 0
AnchorPoint: "Anchor-3" 310 517 basechar 0
AnchorPoint: "Anchor-2" 0 0 basechar 0
LayerCount: 2
Fore
SplineSet
61 517 m 1,0,-1
 230 517 l 1,1,-1
 230 453 l 1,2,3
 259 486 259 486 289 503 c 128,-1,4
 319 520 319 520 374 520 c 0,5,6
 421 520 421 520 462.5 498 c 128,-1,7
 504 476 504 476 529.5 436 c 128,-1,8
 555 396 555 396 555 347 c 2,9,-1
 555 0 l 1,10,-1
 385 0 l 1,11,-1
 385 325 l 2,12,13
 385 354 385 354 363.5 371.5 c 128,-1,14
 342 389 342 389 312 389 c 0,15,16
 281 389 281 389 256.5 372.5 c 128,-1,17
 232 356 232 356 232 329 c 2,18,-1
 232 0 l 1,19,-1
 61 0 l 1,20,-1
 61 517 l 1,0,-1
441 612 m 128,-1,22
 417 604 417 604 389 604 c 0,23,24
 370 604 370 604 354 607.5 c 128,-1,25
 338 611 338 611 311 619 c 0,26,27
 293 624 293 624 274 628.5 c 128,-1,28
 255 633 255 633 238 633 c 0,29,30
 218 633 218 633 203.5 627.5 c 128,-1,31
 189 622 189 622 171 609 c 0,32,33
 164 604 164 604 160 604 c 0,34,35
 154 604 154 604 150 616 c 2,36,-1
 136 663 l 2,37,38
 135 665 135 665 134 667.5 c 128,-1,39
 133 670 133 670 133 674 c 0,40,41
 133 680 133 680 143 690 c 0,42,43
 162 708 162 708 183 717.5 c 128,-1,44
 204 727 204 727 233 727 c 0,45,46
 253 727 253 727 272 723 c 128,-1,47
 291 719 291 719 320 710 c 0,48,49
 338 705 338 705 356 700.5 c 128,-1,50
 374 696 374 696 388 696 c 0,51,52
 424 696 424 696 459 721 c 0,53,54
 465 725 465 725 469 725 c 0,55,56
 478 725 478 725 481 714 c 2,57,-1
 493 657 l 2,58,59
 494 655 494 655 494 650 c 0,60,61
 494 641 494 641 481 631 c 0,62,21
 465 620 465 620 441 612 c 128,-1,22
EndSplineSet
EndChar

StartChar: ograve
Encoding: 242 242 179
Width: 572
GlyphClass: 2
Flags: W
AnchorPoint: "Anchor-5" 0 0 basechar 0
AnchorPoint: "Anchor-4" 284 0 basechar 0
AnchorPoint: "Anchor-3" 287 517 basechar 0
AnchorPoint: "Anchor-2" 360 10 basechar 0
LayerCount: 2
Fore
SplineSet
150 23.5 m 128,-1,1
 92 57 92 57 61 117.5 c 128,-1,2
 30 178 30 178 30 255 c 0,3,4
 30 335 30 335 62.5 397 c 128,-1,5
 95 459 95 459 153 493 c 128,-1,6
 211 527 211 527 287 527 c 0,7,8
 364 527 364 527 422 492 c 128,-1,9
 480 457 480 457 511 395.5 c 128,-1,10
 542 334 542 334 542 255 c 0,11,12
 542 178 542 178 511 118 c 128,-1,13
 480 58 480 58 422 24 c 128,-1,14
 364 -10 364 -10 286 -10 c 128,-1,0
 208 -10 208 -10 150 23.5 c 128,-1,1
355.5 157.5 m 128,-1,16
 376 200 376 200 376 261 c 128,-1,17
 376 322 376 322 355.5 363 c 128,-1,18
 335 404 335 404 287 404 c 0,19,20
 238 404 238 404 217 363 c 128,-1,21
 196 322 196 322 196 261 c 128,-1,22
 196 200 196 200 217 157.5 c 128,-1,23
 238 115 238 115 287 115 c 0,24,15
 335 115 335 115 355.5 157.5 c 128,-1,16
430 630 m 1,25,-1
 407 560 l 1,26,-1
 136 628 l 1,27,-1
 173 734 l 1,28,-1
 430 630 l 1,25,-1
EndSplineSet
EndChar

StartChar: oacute
Encoding: 243 243 180
Width: 572
GlyphClass: 2
Flags: W
AnchorPoint: "Anchor-5" 0 0 basechar 0
AnchorPoint: "Anchor-4" 284 0 basechar 0
AnchorPoint: "Anchor-3" 287 517 basechar 0
AnchorPoint: "Anchor-2" 360 10 basechar 0
LayerCount: 2
Fore
SplineSet
150 23.5 m 128,-1,1
 92 57 92 57 61 117.5 c 128,-1,2
 30 178 30 178 30 255 c 0,3,4
 30 335 30 335 62.5 397 c 128,-1,5
 95 459 95 459 153 493 c 128,-1,6
 211 527 211 527 287 527 c 0,7,8
 364 527 364 527 422 492 c 128,-1,9
 480 457 480 457 511 395.5 c 128,-1,10
 542 334 542 334 542 255 c 0,11,12
 542 178 542 178 511 118 c 128,-1,13
 480 58 480 58 422 24 c 128,-1,14
 364 -10 364 -10 286 -10 c 128,-1,0
 208 -10 208 -10 150 23.5 c 128,-1,1
355.5 157.5 m 128,-1,16
 376 200 376 200 376 261 c 128,-1,17
 376 322 376 322 355.5 363 c 128,-1,18
 335 404 335 404 287 404 c 0,19,20
 238 404 238 404 217 363 c 128,-1,21
 196 322 196 322 196 261 c 128,-1,22
 196 200 196 200 217 157.5 c 128,-1,23
 238 115 238 115 287 115 c 0,24,15
 335 115 335 115 355.5 157.5 c 128,-1,16
436 628 m 1,25,-1
 165 560 l 1,26,-1
 141 630 l 1,27,-1
 399 734 l 1,28,-1
 436 628 l 1,25,-1
EndSplineSet
EndChar

StartChar: ocircumflex
Encoding: 244 244 181
Width: 572
GlyphClass: 2
Flags: W
AnchorPoint: "Anchor-5" 0 0 basechar 0
AnchorPoint: "Anchor-4" 284 0 basechar 0
AnchorPoint: "Anchor-3" 287 517 basechar 0
AnchorPoint: "Anchor-2" 360 10 basechar 0
LayerCount: 2
Fore
SplineSet
150 23.5 m 128,-1,1
 92 57 92 57 61 117.5 c 128,-1,2
 30 178 30 178 30 255 c 0,3,4
 30 335 30 335 62.5 397 c 128,-1,5
 95 459 95 459 153 493 c 128,-1,6
 211 527 211 527 287 527 c 0,7,8
 364 527 364 527 422 492 c 128,-1,9
 480 457 480 457 511 395.5 c 128,-1,10
 542 334 542 334 542 255 c 0,11,12
 542 178 542 178 511 118 c 128,-1,13
 480 58 480 58 422 24 c 128,-1,14
 364 -10 364 -10 286 -10 c 128,-1,0
 208 -10 208 -10 150 23.5 c 128,-1,1
355.5 157.5 m 128,-1,16
 376 200 376 200 376 261 c 128,-1,17
 376 322 376 322 355.5 363 c 128,-1,18
 335 404 335 404 287 404 c 0,19,20
 238 404 238 404 217 363 c 128,-1,21
 196 322 196 322 196 261 c 128,-1,22
 196 200 196 200 217 157.5 c 128,-1,23
 238 115 238 115 287 115 c 0,24,15
 335 115 335 115 355.5 157.5 c 128,-1,16
286 666 m 1,25,-1
 214 588 l 1,26,-1
 94 588 l 1,27,-1
 229 731 l 1,28,-1
 345 731 l 1,29,-1
 477 588 l 1,30,-1
 350 588 l 1,31,-1
 286 666 l 1,25,-1
EndSplineSet
EndChar

StartChar: otilde
Encoding: 245 245 182
Width: 572
GlyphClass: 2
Flags: W
AnchorPoint: "Anchor-5" 0 0 basechar 0
AnchorPoint: "Anchor-4" 284 0 basechar 0
AnchorPoint: "Anchor-3" 287 517 basechar 0
AnchorPoint: "Anchor-2" 360 10 basechar 0
LayerCount: 2
Fore
SplineSet
150 23.5 m 128,-1,1
 92 57 92 57 61 117.5 c 128,-1,2
 30 178 30 178 30 255 c 0,3,4
 30 335 30 335 62.5 397 c 128,-1,5
 95 459 95 459 153 493 c 128,-1,6
 211 527 211 527 287 527 c 0,7,8
 364 527 364 527 422 492 c 128,-1,9
 480 457 480 457 511 395.5 c 128,-1,10
 542 334 542 334 542 255 c 0,11,12
 542 178 542 178 511 118 c 128,-1,13
 480 58 480 58 422 24 c 128,-1,14
 364 -10 364 -10 286 -10 c 128,-1,0
 208 -10 208 -10 150 23.5 c 128,-1,1
355.5 157.5 m 128,-1,16
 376 200 376 200 376 261 c 128,-1,17
 376 322 376 322 355.5 363 c 128,-1,18
 335 404 335 404 287 404 c 0,19,20
 238 404 238 404 217 363 c 128,-1,21
 196 322 196 322 196 261 c 128,-1,22
 196 200 196 200 217 157.5 c 128,-1,23
 238 115 238 115 287 115 c 0,24,15
 335 115 335 115 355.5 157.5 c 128,-1,16
418 612 m 128,-1,26
 394 604 394 604 366 604 c 0,27,28
 347 604 347 604 331 607.5 c 128,-1,29
 315 611 315 611 288 619 c 0,30,31
 270 624 270 624 251 628.5 c 128,-1,32
 232 633 232 633 215 633 c 0,33,34
 195 633 195 633 180.5 627.5 c 128,-1,35
 166 622 166 622 148 609 c 0,36,37
 141 604 141 604 137 604 c 0,38,39
 131 604 131 604 127 616 c 2,40,-1
 113 663 l 2,41,42
 112 665 112 665 111 667.5 c 128,-1,43
 110 670 110 670 110 674 c 0,44,45
 110 680 110 680 120 690 c 0,46,47
 139 708 139 708 160 717.5 c 128,-1,48
 181 727 181 727 210 727 c 0,49,50
 230 727 230 727 249 723 c 128,-1,51
 268 719 268 719 297 710 c 0,52,53
 315 705 315 705 333 700.5 c 128,-1,54
 351 696 351 696 365 696 c 0,55,56
 401 696 401 696 436 721 c 0,57,58
 442 725 442 725 446 725 c 0,59,60
 455 725 455 725 458 714 c 2,61,-1
 470 657 l 2,62,63
 471 655 471 655 471 650 c 0,64,65
 471 641 471 641 458 631 c 0,66,25
 442 620 442 620 418 612 c 128,-1,26
EndSplineSet
EndChar

StartChar: odieresis
Encoding: 246 246 183
Width: 572
GlyphClass: 2
Flags: W
AnchorPoint: "Anchor-5" 0 0 basechar 0
AnchorPoint: "Anchor-4" 284 0 basechar 0
AnchorPoint: "Anchor-3" 287 517 basechar 0
AnchorPoint: "Anchor-2" 360 10 basechar 0
LayerCount: 2
Fore
SplineSet
150 23.5 m 128,-1,1
 92 57 92 57 61 117.5 c 128,-1,2
 30 178 30 178 30 255 c 0,3,4
 30 335 30 335 62.5 397 c 128,-1,5
 95 459 95 459 153 493 c 128,-1,6
 211 527 211 527 287 527 c 0,7,8
 364 527 364 527 422 492 c 128,-1,9
 480 457 480 457 511 395.5 c 128,-1,10
 542 334 542 334 542 255 c 0,11,12
 542 178 542 178 511 118 c 128,-1,13
 480 58 480 58 422 24 c 128,-1,14
 364 -10 364 -10 286 -10 c 128,-1,0
 208 -10 208 -10 150 23.5 c 128,-1,1
355.5 157.5 m 128,-1,16
 376 200 376 200 376 261 c 128,-1,17
 376 322 376 322 355.5 363 c 128,-1,18
 335 404 335 404 287 404 c 0,19,20
 238 404 238 404 217 363 c 128,-1,21
 196 322 196 322 196 261 c 128,-1,22
 196 200 196 200 217 157.5 c 128,-1,23
 238 115 238 115 287 115 c 0,24,15
 335 115 335 115 355.5 157.5 c 128,-1,16
253 591 m 1,25,-1
 106 591 l 1,26,-1
 106 723 l 1,27,-1
 253 723 l 1,28,-1
 253 591 l 1,25,-1
468 591 m 1,29,-1
 320 591 l 1,30,-1
 320 723 l 1,31,-1
 468 723 l 1,32,-1
 468 591 l 1,29,-1
EndSplineSet
EndChar

StartChar: divide
Encoding: 247 247 184
Width: 597
GlyphClass: 2
Flags: W
LayerCount: 2
Fore
SplineSet
380 489 m 1,0,-1
 211 489 l 1,1,-1
 211 652 l 1,2,-1
 380 652 l 1,3,-1
 380 489 l 1,0,-1
540 303 m 1,4,-1
 49 303 l 1,5,-1
 49 425 l 1,6,-1
 540 425 l 1,7,-1
 540 303 l 1,4,-1
380 76 m 1,8,-1
 211 76 l 1,9,-1
 211 239 l 1,10,-1
 380 239 l 1,11,-1
 380 76 l 1,8,-1
EndSplineSet
EndChar

StartChar: oslash
Encoding: 248 248 185
Width: 604
GlyphClass: 2
Flags: W
AnchorPoint: "Anchor-5" 0 0 basechar 0
AnchorPoint: "Anchor-4" 295 0 basechar 0
AnchorPoint: "Anchor-3" 298 517 basechar 0
AnchorPoint: "Anchor-2" 371 10 basechar 0
LayerCount: 2
Fore
SplineSet
515 409 m 1,0,1
 553 344 553 344 553 255 c 0,2,3
 553 178 553 178 522 118 c 128,-1,4
 491 58 491 58 433 24 c 128,-1,5
 375 -10 375 -10 297 -10 c 0,6,7
 198 -10 198 -10 129 46 c 1,8,-1
 71 -8 l 1,9,-1
 18 48 l 1,10,-1
 79 105 l 1,11,12
 41 169 41 169 41 255 c 0,13,14
 41 335 41 335 73.5 397 c 128,-1,15
 106 459 106 459 164 493 c 128,-1,16
 222 527 222 527 298 527 c 0,17,18
 399 527 399 527 466 468 c 1,19,-1
 525 524 l 1,20,-1
 577 467 l 1,21,-1
 515 409 l 1,0,1
209 227 m 1,22,-1
 362 371 l 1,23,24
 339 404 339 404 298 404 c 0,25,26
 249 404 249 404 228 363 c 128,-1,27
 207 322 207 322 207 261 c 0,28,29
 207 249 207 249 209 227 c 1,22,-1
386 288 m 1,30,-1
 235 146 l 1,31,32
 258 115 258 115 298 115 c 0,33,34
 346 115 346 115 366.5 157.5 c 128,-1,35
 387 200 387 200 387 261 c 0,36,37
 387 279 387 279 386 288 c 1,30,-1
EndSplineSet
EndChar

StartChar: ugrave
Encoding: 249 249 186
Width: 617
GlyphClass: 2
Flags: W
AnchorPoint: "Anchor-5" 0 0 basechar 0
AnchorPoint: "Anchor-4" 308 0 basechar 0
AnchorPoint: "Anchor-3" 306 517 basechar 0
AnchorPoint: "Anchor-2" 528 10 basechar 0
LayerCount: 2
Fore
SplineSet
164.5 9.5 m 128,-1,1
 120 29 120 29 90.5 67 c 128,-1,2
 61 105 61 105 61 156 c 2,3,-1
 61 517 l 1,4,-1
 232 517 l 1,5,-1
 232 179 l 2,6,7
 232 148 232 148 252.5 130 c 128,-1,8
 273 112 273 112 306 112 c 0,9,10
 341 112 341 112 362 130.5 c 128,-1,11
 383 149 383 149 383 180 c 2,12,-1
 383 517 l 1,13,-1
 555 517 l 1,14,-1
 552 0 l 1,15,-1
 425 0 l 1,16,-1
 413 71 l 1,17,18
 391 32 391 32 344.5 11 c 128,-1,19
 298 -10 298 -10 253 -10 c 0,20,0
 209 -10 209 -10 164.5 9.5 c 128,-1,1
449 630 m 1,21,-1
 426 560 l 1,22,-1
 155 628 l 1,23,-1
 192 734 l 1,24,-1
 449 630 l 1,21,-1
EndSplineSet
EndChar

StartChar: uacute
Encoding: 250 250 187
Width: 617
GlyphClass: 2
Flags: W
AnchorPoint: "Anchor-5" 0 0 basechar 0
AnchorPoint: "Anchor-4" 308 0 basechar 0
AnchorPoint: "Anchor-3" 306 517 basechar 0
AnchorPoint: "Anchor-2" 528 10 basechar 0
LayerCount: 2
Fore
SplineSet
164.5 9.5 m 128,-1,1
 120 29 120 29 90.5 67 c 128,-1,2
 61 105 61 105 61 156 c 2,3,-1
 61 517 l 1,4,-1
 232 517 l 1,5,-1
 232 179 l 2,6,7
 232 148 232 148 252.5 130 c 128,-1,8
 273 112 273 112 306 112 c 0,9,10
 341 112 341 112 362 130.5 c 128,-1,11
 383 149 383 149 383 180 c 2,12,-1
 383 517 l 1,13,-1
 555 517 l 1,14,-1
 552 0 l 1,15,-1
 425 0 l 1,16,-1
 413 71 l 1,17,18
 391 32 391 32 344.5 11 c 128,-1,19
 298 -10 298 -10 253 -10 c 0,20,0
 209 -10 209 -10 164.5 9.5 c 128,-1,1
455 628 m 1,21,-1
 184 560 l 1,22,-1
 160 630 l 1,23,-1
 418 734 l 1,24,-1
 455 628 l 1,21,-1
EndSplineSet
EndChar

StartChar: ucircumflex
Encoding: 251 251 188
Width: 617
GlyphClass: 2
Flags: W
AnchorPoint: "Anchor-5" 0 0 basechar 0
AnchorPoint: "Anchor-4" 308 0 basechar 0
AnchorPoint: "Anchor-3" 306 517 basechar 0
AnchorPoint: "Anchor-2" 528 10 basechar 0
LayerCount: 2
Fore
SplineSet
164.5 9.5 m 128,-1,1
 120 29 120 29 90.5 67 c 128,-1,2
 61 105 61 105 61 156 c 2,3,-1
 61 517 l 1,4,-1
 232 517 l 1,5,-1
 232 179 l 2,6,7
 232 148 232 148 252.5 130 c 128,-1,8
 273 112 273 112 306 112 c 0,9,10
 341 112 341 112 362 130.5 c 128,-1,11
 383 149 383 149 383 180 c 2,12,-1
 383 517 l 1,13,-1
 555 517 l 1,14,-1
 552 0 l 1,15,-1
 425 0 l 1,16,-1
 413 71 l 1,17,18
 391 32 391 32 344.5 11 c 128,-1,19
 298 -10 298 -10 253 -10 c 0,20,0
 209 -10 209 -10 164.5 9.5 c 128,-1,1
305 666 m 1,21,-1
 233 588 l 1,22,-1
 113 588 l 1,23,-1
 248 731 l 1,24,-1
 364 731 l 1,25,-1
 496 588 l 1,26,-1
 369 588 l 1,27,-1
 305 666 l 1,21,-1
EndSplineSet
EndChar

StartChar: udieresis
Encoding: 252 252 189
Width: 617
GlyphClass: 2
Flags: W
AnchorPoint: "Anchor-5" 0 0 basechar 0
AnchorPoint: "Anchor-4" 308 0 basechar 0
AnchorPoint: "Anchor-3" 306 517 basechar 0
AnchorPoint: "Anchor-2" 528 10 basechar 0
LayerCount: 2
Fore
SplineSet
164.5 9.5 m 128,-1,1
 120 29 120 29 90.5 67 c 128,-1,2
 61 105 61 105 61 156 c 2,3,-1
 61 517 l 1,4,-1
 232 517 l 1,5,-1
 232 179 l 2,6,7
 232 148 232 148 252.5 130 c 128,-1,8
 273 112 273 112 306 112 c 0,9,10
 341 112 341 112 362 130.5 c 128,-1,11
 383 149 383 149 383 180 c 2,12,-1
 383 517 l 1,13,-1
 555 517 l 1,14,-1
 552 0 l 1,15,-1
 425 0 l 1,16,-1
 413 71 l 1,17,18
 391 32 391 32 344.5 11 c 128,-1,19
 298 -10 298 -10 253 -10 c 0,20,0
 209 -10 209 -10 164.5 9.5 c 128,-1,1
272 591 m 1,21,-1
 125 591 l 1,22,-1
 125 723 l 1,23,-1
 272 723 l 1,24,-1
 272 591 l 1,21,-1
487 591 m 1,25,-1
 339 591 l 1,26,-1
 339 723 l 1,27,-1
 487 723 l 1,28,-1
 487 591 l 1,25,-1
EndSplineSet
EndChar

StartChar: yacute
Encoding: 253 253 190
Width: 586
GlyphClass: 2
Flags: W
AnchorPoint: "Anchor-5" 0 0 basechar 0
AnchorPoint: "Anchor-4" 0 0 basechar 0
AnchorPoint: "Anchor-3" 314 517 basechar 0
AnchorPoint: "Anchor-2" 0 0 basechar 0
LayerCount: 2
Fore
SplineSet
99.5 -160.5 m 128,-1,1
 76 -156 76 -156 64.5 -151.5 c 128,-1,2
 53 -147 53 -147 51 -145 c 2,3,-1
 51 -37 l 1,4,-1
 102 -40 l 2,5,6
 145 -43 145 -43 168 -34.5 c 128,-1,7
 191 -26 191 -26 198 -16 c 128,-1,8
 205 -6 205 -6 210 7 c 2,9,-1
 215 26 l 1,10,-1
 14 517 l 1,11,-1
 182 517 l 1,12,-1
 293 208 l 1,13,-1
 407 517 l 1,14,-1
 573 517 l 1,15,-1
 367 14 l 2,16,17
 338 -57 338 -57 306 -96.5 c 128,-1,18
 274 -136 274 -136 238 -150.5 c 128,-1,19
 202 -165 202 -165 156 -165 c 0,20,0
 123 -165 123 -165 99.5 -160.5 c 128,-1,1
463 628 m 1,21,-1
 192 560 l 1,22,-1
 168 630 l 1,23,-1
 426 734 l 1,24,-1
 463 628 l 1,21,-1
EndSplineSet
EndChar

StartChar: thorn
Encoding: 254 254 191
Width: 612
GlyphClass: 2
Flags: W
LayerCount: 2
Fore
SplineSet
232 454 m 1,0,1
 266 489 266 489 300.5 508 c 128,-1,2
 335 527 335 527 386 527 c 0,3,4
 474 527 474 527 528 459.5 c 128,-1,5
 582 392 582 392 582 261 c 0,6,7
 582 124 582 124 526 57 c 128,-1,8
 470 -10 470 -10 379 -10 c 0,9,10
 341 -10 341 -10 310 1.5 c 128,-1,11
 279 13 279 13 251 40 c 0,12,13
 241 49 241 49 237 49 c 0,14,15
 232 49 232 49 232 35 c 2,16,-1
 232 -161 l 1,17,-1
 61 -161 l 1,18,-1
 61 723 l 1,19,-1
 232 723 l 1,20,-1
 232 454 l 1,0,1
314 95 m 128,-1,22
 361 95 361 95 385.5 134.5 c 128,-1,23
 410 174 410 174 410 266 c 0,24,25
 410 351 410 351 385.5 386.5 c 128,-1,26
 361 422 361 422 315 422 c 0,27,28
 280 422 280 422 256 401.5 c 128,-1,29
 232 381 232 381 232 354 c 2,30,-1
 232 140 l 1,31,21
 267 95 267 95 314 95 c 128,-1,22
EndSplineSet
EndChar

StartChar: ydieresis
Encoding: 255 255 192
Width: 586
GlyphClass: 2
Flags: W
AnchorPoint: "Anchor-5" 0 0 basechar 0
AnchorPoint: "Anchor-4" 0 0 basechar 0
AnchorPoint: "Anchor-3" 314 517 basechar 0
AnchorPoint: "Anchor-2" 0 0 basechar 0
LayerCount: 2
Fore
SplineSet
99.5 -160.5 m 128,-1,1
 76 -156 76 -156 64.5 -151.5 c 128,-1,2
 53 -147 53 -147 51 -145 c 2,3,-1
 51 -37 l 1,4,-1
 102 -40 l 2,5,6
 145 -43 145 -43 168 -34.5 c 128,-1,7
 191 -26 191 -26 198 -16 c 128,-1,8
 205 -6 205 -6 210 7 c 2,9,-1
 215 26 l 1,10,-1
 14 517 l 1,11,-1
 182 517 l 1,12,-1
 293 208 l 1,13,-1
 407 517 l 1,14,-1
 573 517 l 1,15,-1
 367 14 l 2,16,17
 338 -57 338 -57 306 -96.5 c 128,-1,18
 274 -136 274 -136 238 -150.5 c 128,-1,19
 202 -165 202 -165 156 -165 c 0,20,0
 123 -165 123 -165 99.5 -160.5 c 128,-1,1
280 591 m 1,21,-1
 133 591 l 1,22,-1
 133 723 l 1,23,-1
 280 723 l 1,24,-1
 280 591 l 1,21,-1
495 591 m 1,25,-1
 347 591 l 1,26,-1
 347 723 l 1,27,-1
 495 723 l 1,28,-1
 495 591 l 1,25,-1
EndSplineSet
EndChar

StartChar: Amacron
Encoding: 256 256 193
Width: 718
GlyphClass: 2
Flags: W
AnchorPoint: "Anchor-5" 0 0 basechar 0
AnchorPoint: "Anchor-4" 0 0 basechar 0
AnchorPoint: "Anchor-3" 372 723 basechar 0
AnchorPoint: "Anchor-2" 705 9 basechar 0
LayerCount: 2
Fore
SplineSet
271 723 m 1,0,-1
 448 723 l 1,1,-1
 705 0 l 1,2,-1
 536 0 l 1,3,-1
 483 154 l 1,4,-1
 239 154 l 1,5,-1
 184 0 l 1,6,-1
 14 0 l 1,7,-1
 271 723 l 1,0,-1
443 301 m 1,8,-1
 360 560 l 1,9,-1
 275 301 l 1,10,-1
 443 301 l 1,8,-1
560 820 m 1,11,-1
 184 820 l 1,12,-1
 184 926 l 1,13,-1
 560 926 l 1,14,-1
 560 820 l 1,11,-1
EndSplineSet
EndChar

StartChar: amacron
Encoding: 257 257 194
Width: 577
GlyphClass: 2
Flags: W
AnchorPoint: "Anchor-5" 0 0 basechar 0
AnchorPoint: "Anchor-4" 0 0 basechar 0
AnchorPoint: "Anchor-3" 289 517 basechar 0
AnchorPoint: "Anchor-2" 491 11 basechar 0
LayerCount: 2
Fore
SplineSet
80 33 m 128,-1,1
 30 76 30 76 30 151 c 0,2,3
 30 324 30 324 300 327 c 1,4,-1
 353 329 l 1,5,-1
 353 354 l 2,6,7
 353 384 353 384 335.5 399.5 c 128,-1,8
 318 415 318 415 285 415 c 0,9,10
 256 415 256 415 229.5 402.5 c 128,-1,11
 203 390 203 390 188 362 c 1,12,-1
 49 365 l 1,13,14
 58 446 58 446 123.5 486.5 c 128,-1,15
 189 527 189 527 290 527 c 0,16,17
 411 527 411 527 463.5 484.5 c 128,-1,18
 516 442 516 442 516 365 c 2,19,-1
 516 0 l 1,20,-1
 374 0 l 1,21,-1
 361 63 l 1,22,23
 341 30 341 30 300 10 c 128,-1,24
 259 -10 259 -10 207 -10 c 0,25,0
 130 -10 130 -10 80 33 c 128,-1,1
326 122.5 m 128,-1,27
 352 145 352 145 353 174 c 2,28,-1
 353 242 l 1,29,-1
 311 241 l 2,30,31
 261 239 261 239 226 223 c 128,-1,32
 191 207 191 207 191 169 c 0,33,34
 191 137 191 137 213 118.5 c 128,-1,35
 235 100 235 100 266 100 c 0,36,26
 300 100 300 100 326 122.5 c 128,-1,27
477 614 m 1,37,-1
 101 614 l 1,38,-1
 101 720 l 1,39,-1
 477 720 l 1,40,-1
 477 614 l 1,37,-1
EndSplineSet
EndChar

StartChar: Abreve
Encoding: 258 258 195
Width: 718
GlyphClass: 2
Flags: W
AnchorPoint: "Anchor-5" 0 0 basechar 0
AnchorPoint: "Anchor-4" 0 0 basechar 0
AnchorPoint: "Anchor-3" 372 723 basechar 0
AnchorPoint: "Anchor-2" 705 9 basechar 0
LayerCount: 2
Fore
SplineSet
271 723 m 1,0,-1
 448 723 l 1,1,-1
 705 0 l 1,2,-1
 536 0 l 1,3,-1
 483 154 l 1,4,-1
 239 154 l 1,5,-1
 184 0 l 1,6,-1
 14 0 l 1,7,-1
 271 723 l 1,0,-1
443 301 m 1,8,-1
 360 560 l 1,9,-1
 275 301 l 1,10,-1
 443 301 l 1,8,-1
489 828.5 m 128,-1,12
 439 793 439 793 373 793 c 0,13,14
 306 793 306 793 255.5 828 c 128,-1,15
 205 863 205 863 186 929 c 1,16,-1
 282 929 l 1,17,18
 295 904 295 904 319.5 888 c 128,-1,19
 344 872 344 872 373 872 c 0,20,21
 398 872 398 872 423 888.5 c 128,-1,22
 448 905 448 905 461 929 c 1,23,-1
 558 929 l 1,24,11
 539 864 539 864 489 828.5 c 128,-1,12
EndSplineSet
EndChar

StartChar: abreve
Encoding: 259 259 196
Width: 577
GlyphClass: 2
Flags: W
AnchorPoint: "Anchor-5" 0 0 basechar 0
AnchorPoint: "Anchor-4" 0 0 basechar 0
AnchorPoint: "Anchor-3" 289 517 basechar 0
AnchorPoint: "Anchor-2" 491 11 basechar 0
LayerCount: 2
Fore
SplineSet
80 33 m 128,-1,1
 30 76 30 76 30 151 c 0,2,3
 30 324 30 324 300 327 c 1,4,-1
 353 329 l 1,5,-1
 353 354 l 2,6,7
 353 384 353 384 335.5 399.5 c 128,-1,8
 318 415 318 415 285 415 c 0,9,10
 256 415 256 415 229.5 402.5 c 128,-1,11
 203 390 203 390 188 362 c 1,12,-1
 49 365 l 1,13,14
 58 446 58 446 123.5 486.5 c 128,-1,15
 189 527 189 527 290 527 c 0,16,17
 411 527 411 527 463.5 484.5 c 128,-1,18
 516 442 516 442 516 365 c 2,19,-1
 516 0 l 1,20,-1
 374 0 l 1,21,-1
 361 63 l 1,22,23
 341 30 341 30 300 10 c 128,-1,24
 259 -10 259 -10 207 -10 c 0,25,0
 130 -10 130 -10 80 33 c 128,-1,1
326 122.5 m 128,-1,27
 352 145 352 145 353 174 c 2,28,-1
 353 242 l 1,29,-1
 311 241 l 2,30,31
 261 239 261 239 226 223 c 128,-1,32
 191 207 191 207 191 169 c 0,33,34
 191 137 191 137 213 118.5 c 128,-1,35
 235 100 235 100 266 100 c 0,36,26
 300 100 300 100 326 122.5 c 128,-1,27
406 622.5 m 128,-1,38
 356 587 356 587 290 587 c 0,39,40
 223 587 223 587 172.5 622 c 128,-1,41
 122 657 122 657 103 723 c 1,42,-1
 199 723 l 1,43,44
 212 698 212 698 236.5 682 c 128,-1,45
 261 666 261 666 290 666 c 0,46,47
 315 666 315 666 340 682.5 c 128,-1,48
 365 699 365 699 378 723 c 1,49,-1
 475 723 l 1,50,37
 456 658 456 658 406 622.5 c 128,-1,38
EndSplineSet
EndChar

StartChar: Aogonek
Encoding: 260 260 197
Width: 718
GlyphClass: 2
Flags: W
AnchorPoint: "Anchor-5" 0 0 basechar 0
AnchorPoint: "Anchor-4" 0 0 basechar 0
AnchorPoint: "Anchor-3" 372 723 basechar 0
AnchorPoint: "Anchor-2" 705 9 basechar 0
LayerCount: 2
Fore
SplineSet
271 723 m 1,0,-1
 448 723 l 1,1,-1
 705 0 l 1,2,-1
 536 0 l 1,3,-1
 483 154 l 1,4,-1
 239 154 l 1,5,-1
 184 0 l 1,6,-1
 14 0 l 1,7,-1
 271 723 l 1,0,-1
443 301 m 1,8,-1
 360 560 l 1,9,-1
 275 301 l 1,10,-1
 443 301 l 1,8,-1
533 -35 m 128,-1,12
 553 -13 553 -13 607 6 c 1,13,-1
 724 4 l 1,14,15
 672 -14 672 -14 652.5 -29.5 c 128,-1,16
 633 -45 633 -45 633 -64 c 0,17,18
 633 -94 633 -94 664 -94 c 0,19,20
 689 -94 689 -94 721 -79 c 0,21,22
 727 -76 727 -76 730 -76 c 0,23,24
 737 -76 737 -76 737 -88 c 2,25,-1
 737 -134 l 2,26,27
 737 -144 737 -144 728 -150 c 0,28,29
 713 -158 713 -158 685 -164 c 128,-1,30
 657 -170 657 -170 626 -170 c 0,31,32
 573 -170 573 -170 543 -148.5 c 128,-1,33
 513 -127 513 -127 513 -86 c 0,34,11
 513 -57 513 -57 533 -35 c 128,-1,12
EndSplineSet
EndChar

StartChar: aogonek
Encoding: 261 261 198
Width: 577
GlyphClass: 2
Flags: W
AnchorPoint: "Anchor-5" 0 0 basechar 0
AnchorPoint: "Anchor-4" 0 0 basechar 0
AnchorPoint: "Anchor-3" 289 517 basechar 0
AnchorPoint: "Anchor-2" 491 11 basechar 0
LayerCount: 2
Fore
SplineSet
80 33 m 128,-1,1
 30 76 30 76 30 151 c 0,2,3
 30 324 30 324 300 327 c 1,4,-1
 353 329 l 1,5,-1
 353 354 l 2,6,7
 353 384 353 384 335.5 399.5 c 128,-1,8
 318 415 318 415 285 415 c 0,9,10
 256 415 256 415 229.5 402.5 c 128,-1,11
 203 390 203 390 188 362 c 1,12,-1
 49 365 l 1,13,14
 58 446 58 446 123.5 486.5 c 128,-1,15
 189 527 189 527 290 527 c 0,16,17
 411 527 411 527 463.5 484.5 c 128,-1,18
 516 442 516 442 516 365 c 2,19,-1
 516 0 l 1,20,-1
 374 0 l 1,21,-1
 361 63 l 1,22,23
 341 30 341 30 300 10 c 128,-1,24
 259 -10 259 -10 207 -10 c 0,25,0
 130 -10 130 -10 80 33 c 128,-1,1
326 122.5 m 128,-1,27
 352 145 352 145 353 174 c 2,28,-1
 353 242 l 1,29,-1
 311 241 l 2,30,31
 261 239 261 239 226 223 c 128,-1,32
 191 207 191 207 191 169 c 0,33,34
 191 137 191 137 213 118.5 c 128,-1,35
 235 100 235 100 266 100 c 0,36,26
 300 100 300 100 326 122.5 c 128,-1,27
319 -33 m 128,-1,38
 339 -11 339 -11 393 8 c 1,39,-1
 510 6 l 1,40,41
 458 -12 458 -12 438.5 -27.5 c 128,-1,42
 419 -43 419 -43 419 -62 c 0,43,44
 419 -92 419 -92 450 -92 c 0,45,46
 475 -92 475 -92 507 -77 c 0,47,48
 513 -74 513 -74 516 -74 c 0,49,50
 523 -74 523 -74 523 -86 c 2,51,-1
 523 -132 l 2,52,53
 523 -142 523 -142 514 -148 c 0,54,55
 499 -156 499 -156 471 -162 c 128,-1,56
 443 -168 443 -168 412 -168 c 0,57,58
 359 -168 359 -168 329 -146.5 c 128,-1,59
 299 -125 299 -125 299 -84 c 0,60,37
 299 -55 299 -55 319 -33 c 128,-1,38
EndSplineSet
EndChar

StartChar: Cacute
Encoding: 262 262 199
Width: 721
GlyphClass: 2
Flags: W
AnchorPoint: "Anchor-5" 0 0 basechar 0
AnchorPoint: "Anchor-4" 377 0 basechar 0
AnchorPoint: "Anchor-3" 377 723 basechar 0
AnchorPoint: "Anchor-2" 0 0 basechar 0
LayerCount: 2
Fore
SplineSet
525.5 700.5 m 128,-1,1
 592 668 592 668 632.5 610.5 c 128,-1,2
 673 553 673 553 681 479 c 1,3,-1
 503 478 l 1,4,5
 494 533 494 533 460 564 c 128,-1,6
 426 595 426 595 370 595 c 0,7,8
 226 595 226 595 226 367 c 0,9,10
 226 245 226 245 264 186.5 c 128,-1,11
 302 128 302 128 371 128 c 0,12,13
 423 128 423 128 458 164.5 c 128,-1,14
 493 201 493 201 502 257 c 1,15,-1
 680 255 l 1,16,17
 665 134 665 134 595.5 62 c 128,-1,18
 526 -10 526 -10 377 -10 c 0,19,20
 276 -10 276 -10 199.5 38 c 128,-1,21
 123 86 123 86 81.5 172 c 128,-1,22
 40 258 40 258 40 369 c 128,-1,23
 40 480 40 480 81 562 c 128,-1,24
 122 644 122 644 197.5 688.5 c 128,-1,25
 273 733 273 733 376 733 c 0,26,0
 459 733 459 733 525.5 700.5 c 128,-1,1
526 834 m 1,27,-1
 255 766 l 1,28,-1
 231 836 l 1,29,-1
 489 940 l 1,30,-1
 526 834 l 1,27,-1
EndSplineSet
EndChar

StartChar: cacute
Encoding: 263 263 200
Width: 535
GlyphClass: 2
Flags: W
AnchorPoint: "Anchor-5" 0 0 basechar 0
AnchorPoint: "Anchor-4" 284 0 basechar 0
AnchorPoint: "Anchor-3" 285 517 basechar 0
AnchorPoint: "Anchor-2" 0 0 basechar 0
LayerCount: 2
Fore
SplineSet
399 499.5 m 128,-1,1
 447 472 447 472 473.5 425.5 c 128,-1,2
 500 379 500 379 505 323 c 1,3,-1
 367 320 l 1,4,5
 354 357 354 357 337 378.5 c 128,-1,6
 320 400 320 400 286 400 c 0,7,8
 240 400 240 400 213.5 363 c 128,-1,9
 187 326 187 326 187 258 c 0,10,11
 187 189 187 189 215.5 149 c 128,-1,12
 244 109 244 109 290 109 c 0,13,14
 324 109 324 109 342 132.5 c 128,-1,15
 360 156 360 156 370 189 c 1,16,-1
 504 186 l 1,17,18
 500 133 500 133 473 88 c 128,-1,19
 446 43 446 43 397.5 16.5 c 128,-1,20
 349 -10 349 -10 285 -10 c 0,21,22
 212 -10 212 -10 154 23.5 c 128,-1,23
 96 57 96 57 63 117.5 c 128,-1,24
 30 178 30 178 30 256 c 0,25,26
 30 335 30 335 62.5 396.5 c 128,-1,27
 95 458 95 458 153 492.5 c 128,-1,28
 211 527 211 527 285 527 c 0,29,0
 351 527 351 527 399 499.5 c 128,-1,1
434 628 m 1,30,-1
 163 560 l 1,31,-1
 139 630 l 1,32,-1
 397 734 l 1,33,-1
 434 628 l 1,30,-1
EndSplineSet
EndChar

StartChar: Ccircumflex
Encoding: 264 264 201
Width: 721
GlyphClass: 2
Flags: W
AnchorPoint: "Anchor-5" 0 0 basechar 0
AnchorPoint: "Anchor-4" 377 0 basechar 0
AnchorPoint: "Anchor-3" 377 723 basechar 0
AnchorPoint: "Anchor-2" 0 0 basechar 0
LayerCount: 2
Fore
SplineSet
525.5 700.5 m 128,-1,1
 592 668 592 668 632.5 610.5 c 128,-1,2
 673 553 673 553 681 479 c 1,3,-1
 503 478 l 1,4,5
 494 533 494 533 460 564 c 128,-1,6
 426 595 426 595 370 595 c 0,7,8
 226 595 226 595 226 367 c 0,9,10
 226 245 226 245 264 186.5 c 128,-1,11
 302 128 302 128 371 128 c 0,12,13
 423 128 423 128 458 164.5 c 128,-1,14
 493 201 493 201 502 257 c 1,15,-1
 680 255 l 1,16,17
 665 134 665 134 595.5 62 c 128,-1,18
 526 -10 526 -10 377 -10 c 0,19,20
 276 -10 276 -10 199.5 38 c 128,-1,21
 123 86 123 86 81.5 172 c 128,-1,22
 40 258 40 258 40 369 c 128,-1,23
 40 480 40 480 81 562 c 128,-1,24
 122 644 122 644 197.5 688.5 c 128,-1,25
 273 733 273 733 376 733 c 0,26,0
 459 733 459 733 525.5 700.5 c 128,-1,1
376 872 m 1,27,-1
 304 794 l 1,28,-1
 184 794 l 1,29,-1
 319 937 l 1,30,-1
 435 937 l 1,31,-1
 567 794 l 1,32,-1
 440 794 l 1,33,-1
 376 872 l 1,27,-1
EndSplineSet
EndChar

StartChar: ccircumflex
Encoding: 265 265 202
Width: 535
GlyphClass: 2
Flags: W
AnchorPoint: "Anchor-5" 0 0 basechar 0
AnchorPoint: "Anchor-4" 284 0 basechar 0
AnchorPoint: "Anchor-3" 285 517 basechar 0
AnchorPoint: "Anchor-2" 0 0 basechar 0
LayerCount: 2
Fore
SplineSet
399 499.5 m 128,-1,1
 447 472 447 472 473.5 425.5 c 128,-1,2
 500 379 500 379 505 323 c 1,3,-1
 367 320 l 1,4,5
 354 357 354 357 337 378.5 c 128,-1,6
 320 400 320 400 286 400 c 0,7,8
 240 400 240 400 213.5 363 c 128,-1,9
 187 326 187 326 187 258 c 0,10,11
 187 189 187 189 215.5 149 c 128,-1,12
 244 109 244 109 290 109 c 0,13,14
 324 109 324 109 342 132.5 c 128,-1,15
 360 156 360 156 370 189 c 1,16,-1
 504 186 l 1,17,18
 500 133 500 133 473 88 c 128,-1,19
 446 43 446 43 397.5 16.5 c 128,-1,20
 349 -10 349 -10 285 -10 c 0,21,22
 212 -10 212 -10 154 23.5 c 128,-1,23
 96 57 96 57 63 117.5 c 128,-1,24
 30 178 30 178 30 256 c 0,25,26
 30 335 30 335 62.5 396.5 c 128,-1,27
 95 458 95 458 153 492.5 c 128,-1,28
 211 527 211 527 285 527 c 0,29,0
 351 527 351 527 399 499.5 c 128,-1,1
284 666 m 1,30,-1
 212 588 l 1,31,-1
 92 588 l 1,32,-1
 227 731 l 1,33,-1
 343 731 l 1,34,-1
 475 588 l 1,35,-1
 348 588 l 1,36,-1
 284 666 l 1,30,-1
EndSplineSet
EndChar

StartChar: Cdotaccent
Encoding: 266 266 203
Width: 721
GlyphClass: 2
Flags: W
AnchorPoint: "Anchor-5" 0 0 basechar 0
AnchorPoint: "Anchor-4" 377 0 basechar 0
AnchorPoint: "Anchor-3" 377 723 basechar 0
AnchorPoint: "Anchor-2" 0 0 basechar 0
LayerCount: 2
Fore
SplineSet
525.5 700.5 m 128,-1,1
 592 668 592 668 632.5 610.5 c 128,-1,2
 673 553 673 553 681 479 c 1,3,-1
 503 478 l 1,4,5
 494 533 494 533 460 564 c 128,-1,6
 426 595 426 595 370 595 c 0,7,8
 226 595 226 595 226 367 c 0,9,10
 226 245 226 245 264 186.5 c 128,-1,11
 302 128 302 128 371 128 c 0,12,13
 423 128 423 128 458 164.5 c 128,-1,14
 493 201 493 201 502 257 c 1,15,-1
 680 255 l 1,16,17
 665 134 665 134 595.5 62 c 128,-1,18
 526 -10 526 -10 377 -10 c 0,19,20
 276 -10 276 -10 199.5 38 c 128,-1,21
 123 86 123 86 81.5 172 c 128,-1,22
 40 258 40 258 40 369 c 128,-1,23
 40 480 40 480 81 562 c 128,-1,24
 122 644 122 644 197.5 688.5 c 128,-1,25
 273 733 273 733 376 733 c 0,26,0
 459 733 459 733 525.5 700.5 c 128,-1,1
464 777 m 1,27,-1
 292 777 l 1,28,-1
 292 929 l 1,29,-1
 464 929 l 1,30,-1
 464 777 l 1,27,-1
EndSplineSet
EndChar

StartChar: cdotaccent
Encoding: 267 267 204
Width: 535
GlyphClass: 2
Flags: W
AnchorPoint: "Anchor-5" 0 0 basechar 0
AnchorPoint: "Anchor-4" 284 0 basechar 0
AnchorPoint: "Anchor-3" 285 517 basechar 0
AnchorPoint: "Anchor-2" 0 0 basechar 0
LayerCount: 2
Fore
SplineSet
399 499.5 m 128,-1,1
 447 472 447 472 473.5 425.5 c 128,-1,2
 500 379 500 379 505 323 c 1,3,-1
 367 320 l 1,4,5
 354 357 354 357 337 378.5 c 128,-1,6
 320 400 320 400 286 400 c 0,7,8
 240 400 240 400 213.5 363 c 128,-1,9
 187 326 187 326 187 258 c 0,10,11
 187 189 187 189 215.5 149 c 128,-1,12
 244 109 244 109 290 109 c 0,13,14
 324 109 324 109 342 132.5 c 128,-1,15
 360 156 360 156 370 189 c 1,16,-1
 504 186 l 1,17,18
 500 133 500 133 473 88 c 128,-1,19
 446 43 446 43 397.5 16.5 c 128,-1,20
 349 -10 349 -10 285 -10 c 0,21,22
 212 -10 212 -10 154 23.5 c 128,-1,23
 96 57 96 57 63 117.5 c 128,-1,24
 30 178 30 178 30 256 c 0,25,26
 30 335 30 335 62.5 396.5 c 128,-1,27
 95 458 95 458 153 492.5 c 128,-1,28
 211 527 211 527 285 527 c 0,29,0
 351 527 351 527 399 499.5 c 128,-1,1
372 571 m 1,30,-1
 200 571 l 1,31,-1
 200 723 l 1,32,-1
 372 723 l 1,33,-1
 372 571 l 1,30,-1
EndSplineSet
EndChar

StartChar: Ccaron
Encoding: 268 268 205
Width: 721
GlyphClass: 2
Flags: W
AnchorPoint: "Anchor-5" 0 0 basechar 0
AnchorPoint: "Anchor-4" 377 0 basechar 0
AnchorPoint: "Anchor-3" 377 723 basechar 0
AnchorPoint: "Anchor-2" 0 0 basechar 0
LayerCount: 2
Fore
SplineSet
525.5 700.5 m 128,-1,1
 592 668 592 668 632.5 610.5 c 128,-1,2
 673 553 673 553 681 479 c 1,3,-1
 503 478 l 1,4,5
 494 533 494 533 460 564 c 128,-1,6
 426 595 426 595 370 595 c 0,7,8
 226 595 226 595 226 367 c 0,9,10
 226 245 226 245 264 186.5 c 128,-1,11
 302 128 302 128 371 128 c 0,12,13
 423 128 423 128 458 164.5 c 128,-1,14
 493 201 493 201 502 257 c 1,15,-1
 680 255 l 1,16,17
 665 134 665 134 595.5 62 c 128,-1,18
 526 -10 526 -10 377 -10 c 0,19,20
 276 -10 276 -10 199.5 38 c 128,-1,21
 123 86 123 86 81.5 172 c 128,-1,22
 40 258 40 258 40 369 c 128,-1,23
 40 480 40 480 81 562 c 128,-1,24
 122 644 122 644 197.5 688.5 c 128,-1,25
 273 733 273 733 376 733 c 0,26,0
 459 733 459 733 525.5 700.5 c 128,-1,1
567 930 m 1,27,-1
 435 785 l 1,28,-1
 318 785 l 1,29,-1
 184 930 l 1,30,-1
 304 930 l 1,31,-1
 376 851 l 1,32,-1
 440 930 l 1,33,-1
 567 930 l 1,27,-1
EndSplineSet
EndChar

StartChar: ccaron
Encoding: 269 269 206
Width: 535
GlyphClass: 2
Flags: W
AnchorPoint: "Anchor-5" 0 0 basechar 0
AnchorPoint: "Anchor-4" 284 0 basechar 0
AnchorPoint: "Anchor-3" 285 517 basechar 0
AnchorPoint: "Anchor-2" 0 0 basechar 0
LayerCount: 2
Fore
SplineSet
399 499.5 m 128,-1,1
 447 472 447 472 473.5 425.5 c 128,-1,2
 500 379 500 379 505 323 c 1,3,-1
 367 320 l 1,4,5
 354 357 354 357 337 378.5 c 128,-1,6
 320 400 320 400 286 400 c 0,7,8
 240 400 240 400 213.5 363 c 128,-1,9
 187 326 187 326 187 258 c 0,10,11
 187 189 187 189 215.5 149 c 128,-1,12
 244 109 244 109 290 109 c 0,13,14
 324 109 324 109 342 132.5 c 128,-1,15
 360 156 360 156 370 189 c 1,16,-1
 504 186 l 1,17,18
 500 133 500 133 473 88 c 128,-1,19
 446 43 446 43 397.5 16.5 c 128,-1,20
 349 -10 349 -10 285 -10 c 0,21,22
 212 -10 212 -10 154 23.5 c 128,-1,23
 96 57 96 57 63 117.5 c 128,-1,24
 30 178 30 178 30 256 c 0,25,26
 30 335 30 335 62.5 396.5 c 128,-1,27
 95 458 95 458 153 492.5 c 128,-1,28
 211 527 211 527 285 527 c 0,29,0
 351 527 351 527 399 499.5 c 128,-1,1
475 724 m 1,30,-1
 343 579 l 1,31,-1
 226 579 l 1,32,-1
 92 724 l 1,33,-1
 212 724 l 1,34,-1
 284 645 l 1,35,-1
 348 724 l 1,36,-1
 475 724 l 1,30,-1
EndSplineSet
EndChar

StartChar: Dcaron
Encoding: 270 270 207
Width: 724
GlyphClass: 2
Flags: W
AnchorPoint: "Anchor-5" 0 0 basechar 0
AnchorPoint: "Anchor-4" 0 0 basechar 0
AnchorPoint: "Anchor-3" 362 723 basechar 0
AnchorPoint: "Anchor-2" 0 0 basechar 0
LayerCount: 2
Fore
SplineSet
174 723 m 2,0,1
 279 723 279 723 310 722 c 0,2,3
 500 716 500 716 592 622 c 128,-1,4
 684 528 684 528 684 364 c 0,5,6
 684 195 684 195 589 97.5 c 128,-1,7
 494 0 494 0 307 0 c 2,8,-1
 72 0 l 1,9,-1
 72 723 l 1,10,-1
 174 723 l 2,0,1
243 136 m 1,11,-1
 311 136 l 2,12,13
 394 136 394 136 450 192 c 128,-1,14
 506 248 506 248 506 366 c 0,15,16
 506 477 506 477 454.5 532.5 c 128,-1,17
 403 588 403 588 312 588 c 2,18,-1
 243 588 l 1,19,-1
 243 136 l 1,11,-1
552 930 m 1,20,-1
 420 785 l 1,21,-1
 303 785 l 1,22,-1
 169 930 l 1,23,-1
 289 930 l 1,24,-1
 361 851 l 1,25,-1
 425 930 l 1,26,-1
 552 930 l 1,20,-1
EndSplineSet
EndChar

StartChar: dcaron
Encoding: 271 271 208
Width: 611
GlyphClass: 2
Flags: W
AnchorPoint: "Anchor-5" 580 549 basechar 0
AnchorPoint: "Anchor-4" 295 0 basechar 0
AnchorPoint: "Anchor-3" 0 0 basechar 0
AnchorPoint: "Anchor-2" 0 0 basechar 0
LayerCount: 2
Fore
SplineSet
88 62 m 128,-1,1
 30 134 30 134 30 260 c 0,2,3
 30 384 30 384 83.5 455.5 c 128,-1,4
 137 527 137 527 234 527 c 0,5,6
 278 527 278 527 316 511 c 128,-1,7
 354 495 354 495 379 459 c 1,8,-1
 379 743 l 1,9,-1
 550 743 l 1,10,-1
 550 0 l 1,11,-1
 428 0 l 1,12,-1
 415 69 l 1,13,14
 394 37 394 37 351.5 13.5 c 128,-1,15
 309 -10 309 -10 250 -10 c 0,16,0
 146 -10 146 -10 88 62 c 128,-1,1
354 142 m 128,-1,18
 379 173 379 173 379 228 c 2,19,-1
 379 304 l 1,20,21
 374 357 374 357 350.5 381 c 128,-1,22
 327 405 327 405 290 405 c 0,23,24
 195 405 195 405 195 262 c 0,25,26
 195 183 195 183 221 147 c 128,-1,27
 247 111 247 111 290 111 c 0,28,17
 329 111 329 111 354 142 c 128,-1,18
484.5 324 m 128,-1,30
 482 328 482 328 484 334 c 2,31,-1
 514 408 l 2,32,33
 517 416 517 416 517 419 c 0,34,35
 517 426 517 426 508 427 c 2,36,-1
 497 429 l 2,37,38
 488 430 488 430 484.5 433 c 128,-1,39
 481 436 481 436 481 443 c 2,40,-1
 481 535 l 2,41,42
 481 542 481 542 484.5 545.5 c 128,-1,43
 488 549 488 549 493 549 c 2,44,-1
 580 549 l 2,45,46
 592 549 592 549 592 538 c 2,47,-1
 592 429 l 2,48,49
 592 423 592 423 589 420 c 2,50,-1
 553 334 l 2,51,52
 550 326 550 326 544 323 c 128,-1,53
 538 320 538 320 525 320 c 2,54,-1
 493 320 l 2,55,29
 487 320 487 320 484.5 324 c 128,-1,30
EndSplineSet
EndChar

StartChar: Dcroat
Encoding: 272 272 209
Width: 752
GlyphClass: 2
Flags: W
AnchorPoint: "Anchor-5" 0 0 basechar 0
AnchorPoint: "Anchor-4" 0 0 basechar 0
AnchorPoint: "Anchor-3" 390 723 basechar 0
AnchorPoint: "Anchor-2" 0 0 basechar 0
LayerCount: 2
Fore
SplineSet
620 622 m 128,-1,1
 712 528 712 528 712 364 c 0,2,3
 712 195 712 195 617 97.5 c 128,-1,4
 522 0 522 0 335 0 c 2,5,-1
 100 0 l 1,6,-1
 100 295 l 1,7,-1
 54 295 l 2,8,9
 41 295 41 295 36 300 c 128,-1,10
 31 305 31 305 31 317 c 2,11,-1
 31 397 l 2,12,13
 31 417 31 417 48 417 c 2,14,-1
 100 417 l 1,15,-1
 100 723 l 1,16,-1
 202 723 l 2,17,18
 307 723 307 723 338 722 c 0,19,0
 528 716 528 716 620 622 c 128,-1,1
478 192 m 128,-1,21
 534 248 534 248 534 366 c 0,22,23
 534 477 534 477 482.5 532.5 c 128,-1,24
 431 588 431 588 340 588 c 2,25,-1
 271 588 l 1,26,-1
 271 417 l 1,27,-1
 397 417 l 2,28,29
 404 417 404 417 408.5 412.5 c 128,-1,30
 413 408 413 408 413 400 c 2,31,-1
 413 320 l 2,32,33
 413 306 413 306 406 300.5 c 128,-1,34
 399 295 399 295 384 295 c 2,35,-1
 271 295 l 1,36,-1
 271 136 l 1,37,-1
 339 136 l 2,38,20
 422 136 422 136 478 192 c 128,-1,21
EndSplineSet
EndChar

StartChar: dcroat
Encoding: 273 273 210
Width: 615
GlyphClass: 2
Flags: W
AnchorPoint: "Anchor-5" 580 549 basechar 0
AnchorPoint: "Anchor-4" 295 0 basechar 0
AnchorPoint: "Anchor-3" 0 0 basechar 0
AnchorPoint: "Anchor-2" 0 0 basechar 0
LayerCount: 2
Fore
SplineSet
587 573 m 1,0,-1
 550 573 l 1,1,-1
 550 0 l 1,2,-1
 428 0 l 1,3,-1
 415 69 l 1,4,5
 394 37 394 37 351.5 13.5 c 128,-1,6
 309 -10 309 -10 250 -10 c 0,7,8
 146 -10 146 -10 88 62 c 128,-1,9
 30 134 30 134 30 260 c 0,10,11
 30 384 30 384 83.5 455.5 c 128,-1,12
 137 527 137 527 234 527 c 0,13,14
 278 527 278 527 316 511 c 128,-1,15
 354 495 354 495 379 459 c 1,16,-1
 379 573 l 1,17,-1
 237 573 l 1,18,-1
 237 666 l 1,19,-1
 379 666 l 1,20,-1
 379 743 l 1,21,-1
 550 743 l 1,22,-1
 550 666 l 1,23,-1
 587 666 l 1,24,-1
 587 573 l 1,0,-1
379 304 m 1,25,26
 374 357 374 357 350.5 381 c 128,-1,27
 327 405 327 405 290 405 c 0,28,29
 195 405 195 405 195 262 c 0,30,31
 195 183 195 183 221 147 c 128,-1,32
 247 111 247 111 290 111 c 0,33,34
 329 111 329 111 354 142 c 128,-1,35
 379 173 379 173 379 228 c 2,36,-1
 379 304 l 1,25,26
EndSplineSet
EndChar

StartChar: Emacron
Encoding: 274 274 211
Width: 643
GlyphClass: 2
Flags: W
AnchorPoint: "Anchor-5" 0 0 basechar 0
AnchorPoint: "Anchor-4" 335 0 basechar 0
AnchorPoint: "Anchor-3" 332 723 basechar 0
AnchorPoint: "Anchor-2" 588 10 basechar 0
LayerCount: 2
Fore
SplineSet
72 723 m 1,0,-1
 587 723 l 1,1,-1
 586 581 l 1,2,-1
 243 581 l 1,3,-1
 243 433 l 1,4,-1
 536 433 l 1,5,-1
 536 294 l 1,6,-1
 242 294 l 1,7,-1
 242 143 l 1,8,-1
 590 143 l 1,9,-1
 590 0 l 1,10,-1
 72 0 l 1,11,-1
 72 723 l 1,0,-1
520 820 m 1,12,-1
 144 820 l 1,13,-1
 144 926 l 1,14,-1
 520 926 l 1,15,-1
 520 820 l 1,12,-1
EndSplineSet
EndChar

StartChar: emacron
Encoding: 275 275 212
Width: 564
GlyphClass: 2
Flags: W
AnchorPoint: "Anchor-5" 0 0 basechar 0
AnchorPoint: "Anchor-4" 288 0 basechar 0
AnchorPoint: "Anchor-3" 287 517 basechar 0
AnchorPoint: "Anchor-2" 410 24 basechar 0
LayerCount: 2
Fore
SplineSet
222.5 139.5 m 128,-1,1
 248 111 248 111 290 111 c 0,2,3
 324 111 324 111 347 124 c 128,-1,4
 370 137 370 137 382 168 c 1,5,-1
 533 165 l 1,6,7
 525 112 525 112 489.5 72.5 c 128,-1,8
 454 33 454 33 402.5 11.5 c 128,-1,9
 351 -10 351 -10 295 -10 c 0,10,11
 217 -10 217 -10 157 22.5 c 128,-1,12
 97 55 97 55 63.5 114.5 c 128,-1,13
 30 174 30 174 30 252 c 0,14,15
 30 329 30 329 60.5 391.5 c 128,-1,16
 91 454 91 454 149 490.5 c 128,-1,17
 207 527 207 527 286 527 c 0,18,19
 405 527 405 527 469 454 c 128,-1,20
 533 381 533 381 533 262 c 2,21,-1
 533 219 l 1,22,-1
 197 219 l 1,23,0
 197 168 197 168 222.5 139.5 c 128,-1,1
376 317 m 1,24,25
 376 357 376 357 352.5 383.5 c 128,-1,26
 329 410 329 410 286 410 c 0,27,28
 247 410 247 410 222 382 c 128,-1,29
 197 354 197 354 197 317 c 1,30,-1
 376 317 l 1,24,25
475 614 m 1,31,-1
 99 614 l 1,32,-1
 99 720 l 1,33,-1
 475 720 l 1,34,-1
 475 614 l 1,31,-1
EndSplineSet
EndChar

StartChar: Ebreve
Encoding: 276 276 213
Width: 643
GlyphClass: 2
Flags: W
AnchorPoint: "Anchor-5" 0 0 basechar 0
AnchorPoint: "Anchor-4" 335 0 basechar 0
AnchorPoint: "Anchor-3" 332 723 basechar 0
AnchorPoint: "Anchor-2" 588 10 basechar 0
LayerCount: 2
Fore
SplineSet
72 723 m 1,0,-1
 587 723 l 1,1,-1
 586 581 l 1,2,-1
 243 581 l 1,3,-1
 243 433 l 1,4,-1
 536 433 l 1,5,-1
 536 294 l 1,6,-1
 242 294 l 1,7,-1
 242 143 l 1,8,-1
 590 143 l 1,9,-1
 590 0 l 1,10,-1
 72 0 l 1,11,-1
 72 723 l 1,0,-1
449 828.5 m 128,-1,13
 399 793 399 793 333 793 c 0,14,15
 266 793 266 793 215.5 828 c 128,-1,16
 165 863 165 863 146 929 c 1,17,-1
 242 929 l 1,18,19
 255 904 255 904 279.5 888 c 128,-1,20
 304 872 304 872 333 872 c 0,21,22
 358 872 358 872 383 888.5 c 128,-1,23
 408 905 408 905 421 929 c 1,24,-1
 518 929 l 1,25,12
 499 864 499 864 449 828.5 c 128,-1,13
EndSplineSet
EndChar

StartChar: ebreve
Encoding: 277 277 214
Width: 564
GlyphClass: 2
Flags: W
AnchorPoint: "Anchor-5" 0 0 basechar 0
AnchorPoint: "Anchor-4" 288 0 basechar 0
AnchorPoint: "Anchor-3" 287 517 basechar 0
AnchorPoint: "Anchor-2" 410 24 basechar 0
LayerCount: 2
Fore
SplineSet
222.5 139.5 m 128,-1,1
 248 111 248 111 290 111 c 0,2,3
 324 111 324 111 347 124 c 128,-1,4
 370 137 370 137 382 168 c 1,5,-1
 533 165 l 1,6,7
 525 112 525 112 489.5 72.5 c 128,-1,8
 454 33 454 33 402.5 11.5 c 128,-1,9
 351 -10 351 -10 295 -10 c 0,10,11
 217 -10 217 -10 157 22.5 c 128,-1,12
 97 55 97 55 63.5 114.5 c 128,-1,13
 30 174 30 174 30 252 c 0,14,15
 30 329 30 329 60.5 391.5 c 128,-1,16
 91 454 91 454 149 490.5 c 128,-1,17
 207 527 207 527 286 527 c 0,18,19
 405 527 405 527 469 454 c 128,-1,20
 533 381 533 381 533 262 c 2,21,-1
 533 219 l 1,22,-1
 197 219 l 1,23,0
 197 168 197 168 222.5 139.5 c 128,-1,1
376 317 m 1,24,25
 376 357 376 357 352.5 383.5 c 128,-1,26
 329 410 329 410 286 410 c 0,27,28
 247 410 247 410 222 382 c 128,-1,29
 197 354 197 354 197 317 c 1,30,-1
 376 317 l 1,24,25
404 622.5 m 128,-1,32
 354 587 354 587 288 587 c 0,33,34
 221 587 221 587 170.5 622 c 128,-1,35
 120 657 120 657 101 723 c 1,36,-1
 197 723 l 1,37,38
 210 698 210 698 234.5 682 c 128,-1,39
 259 666 259 666 288 666 c 0,40,41
 313 666 313 666 338 682.5 c 128,-1,42
 363 699 363 699 376 723 c 1,43,-1
 473 723 l 1,44,31
 454 658 454 658 404 622.5 c 128,-1,32
EndSplineSet
EndChar

StartChar: Edotaccent
Encoding: 278 278 215
Width: 643
GlyphClass: 2
Flags: W
AnchorPoint: "Anchor-5" 0 0 basechar 0
AnchorPoint: "Anchor-4" 335 0 basechar 0
AnchorPoint: "Anchor-3" 332 723 basechar 0
AnchorPoint: "Anchor-2" 588 10 basechar 0
LayerCount: 2
Fore
SplineSet
72 723 m 1,0,-1
 587 723 l 1,1,-1
 586 581 l 1,2,-1
 243 581 l 1,3,-1
 243 433 l 1,4,-1
 536 433 l 1,5,-1
 536 294 l 1,6,-1
 242 294 l 1,7,-1
 242 143 l 1,8,-1
 590 143 l 1,9,-1
 590 0 l 1,10,-1
 72 0 l 1,11,-1
 72 723 l 1,0,-1
419 777 m 1,12,-1
 247 777 l 1,13,-1
 247 929 l 1,14,-1
 419 929 l 1,15,-1
 419 777 l 1,12,-1
EndSplineSet
EndChar

StartChar: edotaccent
Encoding: 279 279 216
Width: 564
GlyphClass: 2
Flags: W
AnchorPoint: "Anchor-5" 0 0 basechar 0
AnchorPoint: "Anchor-4" 288 0 basechar 0
AnchorPoint: "Anchor-3" 287 517 basechar 0
AnchorPoint: "Anchor-2" 410 24 basechar 0
LayerCount: 2
Fore
SplineSet
222.5 139.5 m 128,-1,1
 248 111 248 111 290 111 c 0,2,3
 324 111 324 111 347 124 c 128,-1,4
 370 137 370 137 382 168 c 1,5,-1
 533 165 l 1,6,7
 525 112 525 112 489.5 72.5 c 128,-1,8
 454 33 454 33 402.5 11.5 c 128,-1,9
 351 -10 351 -10 295 -10 c 0,10,11
 217 -10 217 -10 157 22.5 c 128,-1,12
 97 55 97 55 63.5 114.5 c 128,-1,13
 30 174 30 174 30 252 c 0,14,15
 30 329 30 329 60.5 391.5 c 128,-1,16
 91 454 91 454 149 490.5 c 128,-1,17
 207 527 207 527 286 527 c 0,18,19
 405 527 405 527 469 454 c 128,-1,20
 533 381 533 381 533 262 c 2,21,-1
 533 219 l 1,22,-1
 197 219 l 1,23,0
 197 168 197 168 222.5 139.5 c 128,-1,1
376 317 m 1,24,25
 376 357 376 357 352.5 383.5 c 128,-1,26
 329 410 329 410 286 410 c 0,27,28
 247 410 247 410 222 382 c 128,-1,29
 197 354 197 354 197 317 c 1,30,-1
 376 317 l 1,24,25
374 571 m 1,31,-1
 202 571 l 1,32,-1
 202 723 l 1,33,-1
 374 723 l 1,34,-1
 374 571 l 1,31,-1
EndSplineSet
EndChar

StartChar: Eogonek
Encoding: 280 280 217
Width: 643
GlyphClass: 2
Flags: W
AnchorPoint: "Anchor-5" 0 0 basechar 0
AnchorPoint: "Anchor-4" 335 0 basechar 0
AnchorPoint: "Anchor-3" 332 723 basechar 0
AnchorPoint: "Anchor-2" 588 10 basechar 0
LayerCount: 2
Fore
SplineSet
72 723 m 1,0,-1
 587 723 l 1,1,-1
 586 581 l 1,2,-1
 243 581 l 1,3,-1
 243 433 l 1,4,-1
 536 433 l 1,5,-1
 536 294 l 1,6,-1
 242 294 l 1,7,-1
 242 143 l 1,8,-1
 590 143 l 1,9,-1
 590 0 l 1,10,-1
 72 0 l 1,11,-1
 72 723 l 1,0,-1
416 -34 m 128,-1,13
 436 -12 436 -12 490 7 c 1,14,-1
 607 5 l 1,15,16
 555 -13 555 -13 535.5 -28.5 c 128,-1,17
 516 -44 516 -44 516 -63 c 0,18,19
 516 -93 516 -93 547 -93 c 0,20,21
 572 -93 572 -93 604 -78 c 0,22,23
 610 -75 610 -75 613 -75 c 0,24,25
 620 -75 620 -75 620 -87 c 2,26,-1
 620 -133 l 2,27,28
 620 -143 620 -143 611 -149 c 0,29,30
 596 -157 596 -157 568 -163 c 128,-1,31
 540 -169 540 -169 509 -169 c 0,32,33
 456 -169 456 -169 426 -147.5 c 128,-1,34
 396 -126 396 -126 396 -85 c 0,35,12
 396 -56 396 -56 416 -34 c 128,-1,13
EndSplineSet
EndChar

StartChar: eogonek
Encoding: 281 281 218
Width: 564
GlyphClass: 2
Flags: W
AnchorPoint: "Anchor-5" 0 0 basechar 0
AnchorPoint: "Anchor-4" 288 0 basechar 0
AnchorPoint: "Anchor-3" 287 517 basechar 0
AnchorPoint: "Anchor-2" 410 24 basechar 0
LayerCount: 2
Fore
SplineSet
222.5 139.5 m 128,-1,1
 248 111 248 111 290 111 c 0,2,3
 324 111 324 111 347 124 c 128,-1,4
 370 137 370 137 382 168 c 1,5,-1
 533 165 l 1,6,7
 525 112 525 112 489.5 72.5 c 128,-1,8
 454 33 454 33 402.5 11.5 c 128,-1,9
 351 -10 351 -10 295 -10 c 0,10,11
 217 -10 217 -10 157 22.5 c 128,-1,12
 97 55 97 55 63.5 114.5 c 128,-1,13
 30 174 30 174 30 252 c 0,14,15
 30 329 30 329 60.5 391.5 c 128,-1,16
 91 454 91 454 149 490.5 c 128,-1,17
 207 527 207 527 286 527 c 0,18,19
 405 527 405 527 469 454 c 128,-1,20
 533 381 533 381 533 262 c 2,21,-1
 533 219 l 1,22,-1
 197 219 l 1,23,0
 197 168 197 168 222.5 139.5 c 128,-1,1
376 317 m 1,24,25
 376 357 376 357 352.5 383.5 c 128,-1,26
 329 410 329 410 286 410 c 0,27,28
 247 410 247 410 222 382 c 128,-1,29
 197 354 197 354 197 317 c 1,30,-1
 376 317 l 1,24,25
238 -20 m 128,-1,32
 258 2 258 2 312 21 c 1,33,-1
 429 19 l 1,34,35
 377 1 377 1 357.5 -14.5 c 128,-1,36
 338 -30 338 -30 338 -49 c 0,37,38
 338 -79 338 -79 369 -79 c 0,39,40
 394 -79 394 -79 426 -64 c 0,41,42
 432 -61 432 -61 435 -61 c 0,43,44
 442 -61 442 -61 442 -73 c 2,45,-1
 442 -119 l 2,46,47
 442 -129 442 -129 433 -135 c 0,48,49
 418 -143 418 -143 390 -149 c 128,-1,50
 362 -155 362 -155 331 -155 c 0,51,52
 278 -155 278 -155 248 -133.5 c 128,-1,53
 218 -112 218 -112 218 -71 c 0,54,31
 218 -42 218 -42 238 -20 c 128,-1,32
EndSplineSet
EndChar

StartChar: Ecaron
Encoding: 282 282 219
Width: 643
GlyphClass: 2
Flags: W
AnchorPoint: "Anchor-5" 0 0 basechar 0
AnchorPoint: "Anchor-4" 335 0 basechar 0
AnchorPoint: "Anchor-3" 332 723 basechar 0
AnchorPoint: "Anchor-2" 588 10 basechar 0
LayerCount: 2
Fore
SplineSet
72 723 m 1,0,-1
 587 723 l 1,1,-1
 586 581 l 1,2,-1
 243 581 l 1,3,-1
 243 433 l 1,4,-1
 536 433 l 1,5,-1
 536 294 l 1,6,-1
 242 294 l 1,7,-1
 242 143 l 1,8,-1
 590 143 l 1,9,-1
 590 0 l 1,10,-1
 72 0 l 1,11,-1
 72 723 l 1,0,-1
522 930 m 1,12,-1
 390 785 l 1,13,-1
 273 785 l 1,14,-1
 139 930 l 1,15,-1
 259 930 l 1,16,-1
 331 851 l 1,17,-1
 395 930 l 1,18,-1
 522 930 l 1,12,-1
EndSplineSet
EndChar

StartChar: ecaron
Encoding: 283 283 220
Width: 564
GlyphClass: 2
Flags: W
AnchorPoint: "Anchor-5" 0 0 basechar 0
AnchorPoint: "Anchor-4" 288 0 basechar 0
AnchorPoint: "Anchor-3" 287 517 basechar 0
AnchorPoint: "Anchor-2" 410 24 basechar 0
LayerCount: 2
Fore
SplineSet
222.5 139.5 m 128,-1,1
 248 111 248 111 290 111 c 0,2,3
 324 111 324 111 347 124 c 128,-1,4
 370 137 370 137 382 168 c 1,5,-1
 533 165 l 1,6,7
 525 112 525 112 489.5 72.5 c 128,-1,8
 454 33 454 33 402.5 11.5 c 128,-1,9
 351 -10 351 -10 295 -10 c 0,10,11
 217 -10 217 -10 157 22.5 c 128,-1,12
 97 55 97 55 63.5 114.5 c 128,-1,13
 30 174 30 174 30 252 c 0,14,15
 30 329 30 329 60.5 391.5 c 128,-1,16
 91 454 91 454 149 490.5 c 128,-1,17
 207 527 207 527 286 527 c 0,18,19
 405 527 405 527 469 454 c 128,-1,20
 533 381 533 381 533 262 c 2,21,-1
 533 219 l 1,22,-1
 197 219 l 1,23,0
 197 168 197 168 222.5 139.5 c 128,-1,1
376 317 m 1,24,25
 376 357 376 357 352.5 383.5 c 128,-1,26
 329 410 329 410 286 410 c 0,27,28
 247 410 247 410 222 382 c 128,-1,29
 197 354 197 354 197 317 c 1,30,-1
 376 317 l 1,24,25
477 724 m 1,31,-1
 345 579 l 1,32,-1
 228 579 l 1,33,-1
 94 724 l 1,34,-1
 214 724 l 1,35,-1
 286 645 l 1,36,-1
 350 724 l 1,37,-1
 477 724 l 1,31,-1
EndSplineSet
EndChar

StartChar: Gcircumflex
Encoding: 284 284 221
Width: 762
GlyphClass: 2
Flags: W
AnchorPoint: "Anchor-5" 0 0 basechar 0
AnchorPoint: "Anchor-4" 376 0 basechar 0
AnchorPoint: "Anchor-3" 375 723 basechar 0
AnchorPoint: "Anchor-2" 0 0 basechar 0
LayerCount: 2
Fore
SplineSet
197.5 36 m 128,-1,1
 122 82 122 82 81 166 c 128,-1,2
 40 250 40 250 40 359 c 0,3,4
 40 471 40 471 83.5 556 c 128,-1,5
 127 641 127 641 205 687 c 128,-1,6
 283 733 283 733 384 733 c 0,7,8
 472 733 472 733 541 697.5 c 128,-1,9
 610 662 610 662 648.5 603.5 c 128,-1,10
 687 545 687 545 689 479 c 1,11,-1
 511 478 l 1,12,13
 500 529 500 529 466 560 c 128,-1,14
 432 591 432 591 379 591 c 0,15,16
 310 591 310 591 267.5 536 c 128,-1,17
 225 481 225 481 225 365 c 0,18,19
 225 240 225 240 271 189.5 c 128,-1,20
 317 139 317 139 386 139 c 0,21,22
 436 139 436 139 469 167 c 128,-1,23
 502 195 502 195 510 230 c 2,24,-1
 517 266 l 1,25,-1
 379 266 l 1,26,-1
 379 382 l 1,27,-1
 696 380 l 1,28,-1
 696 0 l 1,29,-1
 582 0 l 1,30,-1
 582 87 l 1,31,32
 546 44 546 44 499 17 c 128,-1,33
 452 -10 452 -10 373 -10 c 0,34,0
 273 -10 273 -10 197.5 36 c 128,-1,1
374 872 m 1,35,-1
 302 794 l 1,36,-1
 182 794 l 1,37,-1
 317 937 l 1,38,-1
 433 937 l 1,39,-1
 565 794 l 1,40,-1
 438 794 l 1,41,-1
 374 872 l 1,35,-1
EndSplineSet
EndChar

StartChar: gcircumflex
Encoding: 285 285 222
Width: 641
GlyphClass: 2
Flags: W
AnchorPoint: "Anchor-5" 0 0 basechar 0
AnchorPoint: "Anchor-4" 0 0 basechar 0
AnchorPoint: "Anchor-3" 314 517 basechar 0
AnchorPoint: "Anchor-2" 0 0 basechar 0
LayerCount: 2
Fore
SplineSet
96.5 -137 m 128,-1,1
 21 -103 21 -103 21 -48 c 0,2,3
 21 13 21 13 70.5 27.5 c 128,-1,4
 120 42 120 42 123 43 c 1,5,6
 121 44 121 44 102.5 53 c 128,-1,7
 84 62 84 62 69.5 81.5 c 128,-1,8
 55 101 55 101 55 125 c 0,9,10
 55 156 55 156 83.5 179.5 c 128,-1,11
 112 203 112 203 167 212 c 1,12,13
 115 236 115 236 87.5 277 c 128,-1,14
 60 318 60 318 60 363 c 0,15,16
 60 413 60 413 93.5 450 c 128,-1,17
 127 487 127 487 185 506 c 128,-1,18
 243 525 243 525 313 525 c 0,19,20
 363 525 363 525 397 515 c 128,-1,21
 431 505 431 505 465 486 c 1,22,23
 472 489 472 489 483 493.5 c 128,-1,24
 494 498 494 498 509 503 c 2,25,-1
 626 550 l 1,26,-1
 625 425 l 1,27,-1
 536 411 l 1,28,29
 540 400 540 400 542.5 386.5 c 128,-1,30
 545 373 545 373 545 364 c 0,31,32
 545 319 545 319 517 279 c 128,-1,33
 489 239 489 239 434 214.5 c 128,-1,34
 379 190 379 190 302 190 c 2,35,-1
 242 192 l 1,36,37
 210 189 210 189 210 177 c 0,38,39
 210 167 210 167 227 164 c 128,-1,40
 244 161 244 161 296 157 c 2,41,-1
 402 151 l 2,42,43
 500 145 500 145 549.5 103.5 c 128,-1,44
 599 62 599 62 599 0 c 0,45,46
 599 -77 599 -77 525 -124 c 128,-1,47
 451 -171 451 -171 313 -171 c 0,48,0
 172 -171 172 -171 96.5 -137 c 128,-1,1
363.5 302.5 m 128,-1,50
 384 323 384 323 384 358 c 128,-1,51
 384 393 384 393 363 416 c 128,-1,52
 342 439 342 439 307 439 c 128,-1,53
 272 439 272 439 251 416 c 128,-1,54
 230 393 230 393 230 358 c 0,55,56
 230 324 230 324 251 303 c 128,-1,57
 272 282 272 282 307 282 c 0,58,49
 343 282 343 282 363.5 302.5 c 128,-1,50
416 -68 m 128,-1,60
 437 -57 437 -57 437 -34 c 0,61,62
 437 -14 437 -14 418.5 -1.5 c 128,-1,63
 400 11 400 11 366 13 c 2,64,-1
 260 20 l 2,65,66
 225 22 225 22 206 7 c 128,-1,67
 187 -8 187 -8 187 -28 c 0,68,69
 187 -56 187 -56 223.5 -67.5 c 128,-1,70
 260 -79 260 -79 340 -79 c 0,71,59
 395 -79 395 -79 416 -68 c 128,-1,60
313 666 m 1,72,-1
 241 588 l 1,73,-1
 121 588 l 1,74,-1
 256 731 l 1,75,-1
 372 731 l 1,76,-1
 504 588 l 1,77,-1
 377 588 l 1,78,-1
 313 666 l 1,72,-1
EndSplineSet
EndChar

